<?xml version="1.0" encoding="UTF-8" standalone="no"?>
<!DOCTYPE svg PUBLIC "-//W3C//DTD SVG 1.1//EN" "http://www.w3.org/Graphics/SVG/1.1/DTD/svg11.dtd">
<svg xmlns="http://www.w3.org/2000/svg" version="1.1" viewBox="0 0 512 512">
<g stroke-width="2.00" fill="none" stroke-linecap="butt">
<path stroke="#04c56e" vector-effect="non-scaling-stroke" d="
  M 233.04 147.00
  Q 234.45 146.29 232.98 145.61
  A 1.00 1.00 0.0 0 1 232.54 144.17
  C 236.81 137.35 242.82 129.60 246.38 124.52
  Q 256.12 110.62 265.92 96.76
  C 269.41 91.83 273.99 84.68 278.35 78.87
  Q 281.74 74.35 283.57 71.62
  Q 286.10 67.88 288.84 63.74
  Q 288.98 63.53 289.20 63.41
  Q 290.49 62.72 290.52 62.37
  A 0.39 0.28 -88.0 0 1 290.81 62.00
  L 298.25 62.00
  A 0.21 0.08 2.1 0 0 298.44 61.94
  L 298.50 61.75
  A 0.28 0.18 3.2 0 0 298.19 61.53
  Q 293.06 61.83 288.00 61.02"
/>
<path stroke="#04c56e" vector-effect="non-scaling-stroke" d="
  M 195.39 215.95
  Q 194.32 219.19 192.19 221.65
  A 1.01 1.01 0.0 0 0 191.99 222.60
  Q 192.46 224.13 191.05 224.02
  A 1.00 0.99 -69.9 0 0 190.15 224.44
  Q 173.50 248.08 156.87 271.73
  C 155.38 273.86 155.41 275.74 156.98 277.69
  A 0.67 0.66 32.7 0 1 157.10 278.22
  Q 156.99 278.79 156.50 278.79"
/>
<path stroke="#03ba66" vector-effect="non-scaling-stroke" d="
  M 202.54 359.00
  Q 203.32 358.02 204.44 357.86
  A 0.97 0.96 -75.6 0 0 205.12 357.45
  L 242.88 303.77
  A 0.80 0.78 20.6 0 1 243.63 303.44
  Q 244.65 303.55 244.01 301.83
  Q 243.94 301.64 243.81 301.49
  Q 242.73 300.33 243.00 298.77"
/>
</g>
<path fill="#03bf6a" d="
  M 233.04 147.00
  Q 234.45 146.29 232.98 145.61
  A 1.00 1.00 0.0 0 1 232.54 144.17
  C 236.81 137.35 242.82 129.60 246.38 124.52
  Q 256.12 110.62 265.92 96.76
  C 269.41 91.83 273.99 84.68 278.35 78.87
  Q 281.74 74.35 283.57 71.62
  Q 286.10 67.88 288.84 63.74
  Q 288.98 63.53 289.20 63.41
  Q 290.49 62.72 290.52 62.37
  A 0.39 0.28 -88.0 0 1 290.81 62.00
  L 298.25 62.00
  A 0.21 0.08 2.1 0 0 298.44 61.94
  L 298.50 61.75
  A 0.28 0.18 3.2 0 0 298.19 61.53
  Q 293.06 61.83 288.00 61.02
  L 326.67 60.99
  A 1.00 1.00 0.0 0 1 327.54 62.49
  L 256.83 185.40
  Q 255.96 186.90 255.09 185.40
  L 233.04 147.00
  Z"
/>
<path fill="#05ca72" d="
  M 288.00 61.02
  Q 293.06 61.83 298.19 61.53
  A 0.28 0.18 3.2 0 1 298.50 61.75
  L 298.44 61.94
  A 0.21 0.08 2.1 0 1 298.25 62.00
  L 290.81 62.00
  A 0.39 0.28 -88.0 0 0 290.52 62.37
  Q 290.49 62.72 289.20 63.41
  Q 288.98 63.53 288.84 63.74
  Q 286.10 67.88 283.57 71.62
  Q 281.74 74.35 278.35 78.87
  C 273.99 84.68 269.41 91.83 265.92 96.76
  Q 256.12 110.62 246.38 124.52
  C 242.82 129.60 236.81 137.35 232.54 144.17
  A 1.00 1.00 0.0 0 0 232.98 145.61
  Q 234.45 146.29 233.04 147.00
  L 221.49 127.00
  A 1.04 1.02 -14.5 0 0 220.62 126.50
  L 145.63 126.49
  A 1.00 1.00 0.0 0 0 144.76 127.99
  L 195.39 215.95
  Q 194.32 219.19 192.19 221.65
  A 1.01 1.01 0.0 0 0 191.99 222.60
  Q 192.46 224.13 191.05 224.02
  A 1.00 0.99 -69.9 0 0 190.15 224.44
  Q 173.50 248.08 156.87 271.73
  C 155.38 273.86 155.41 275.74 156.98 277.69
  A 0.67 0.66 32.7 0 1 157.10 278.22
  Q 156.99 278.79 156.50 278.79
  L 31.95 62.51
  A 1.00 1.00 0.0 0 1 32.81 61.01
  L 288.00 61.02
  Z"
/>
<path fill="#02b462" d="
  M 202.54 359.00
  Q 203.32 358.02 204.44 357.86
  A 0.97 0.96 -75.6 0 0 205.12 357.45
  L 242.88 303.77
  A 0.80 0.78 20.6 0 1 243.63 303.44
  Q 244.65 303.55 244.01 301.83
  Q 243.94 301.64 243.81 301.49
  Q 242.73 300.33 243.00 298.77
  L 255.09 319.70
  Q 255.95 321.20 256.82 319.70
  L 405.37 61.50
  A 1.01 1.00 15.0 0 1 406.24 61.00
  L 479.11 61.00
  A 1.00 1.00 0.0 0 1 480.00 62.47
  Q 479.23 63.93 477.84 66.33
  Q 367.55 258.03 256.83 450.48
  Q 255.97 451.98 255.10 450.47
  L 202.54 359.00
  Z"
/>
<path fill="#03bf6a" d="
  M 195.39 215.95
  L 243.00 298.77
  Q 242.73 300.33 243.81 301.49
  Q 243.94 301.64 244.01 301.83
  Q 244.65 303.55 243.63 303.44
  A 0.80 0.78 20.6 0 0 242.88 303.77
  L 205.12 357.45
  A 0.97 0.96 -75.6 0 1 204.44 357.86
  Q 203.32 358.02 202.54 359.00
  L 156.50 278.79
  Q 156.99 278.79 157.10 278.22
  A 0.67 0.66 32.7 0 0 156.98 277.69
  C 155.41 275.74 155.38 273.86 156.87 271.73
  Q 173.50 248.08 190.15 224.44
  A 1.00 0.99 -69.9 0 1 191.05 224.02
  Q 192.46 224.13 191.99 222.60
  A 1.01 1.01 0.0 0 1 192.19 221.65
  Q 194.32 219.19 195.39 215.95
  Z"
/>
</svg>
