<?xml version="1.0" encoding="UTF-8" standalone="no"?>
<!DOCTYPE svg PUBLIC "-//W3C//DTD SVG 1.1//EN" "http://www.w3.org/Graphics/SVG/1.1/DTD/svg11.dtd">
<svg xmlns="http://www.w3.org/2000/svg" version="1.1" viewBox="0 0 144 126">
<g stroke-width="2.00" fill="none" stroke-linecap="butt">
<path stroke="#3b8171" vector-effect="non-scaling-stroke" d="
  M 57.30 111.59
  L 70.44 124.35
  Q 71.81 125.67 71.80 123.77
  L 71.73 112.25
  A 1.00 0.99 -0.3 0 1 72.73 111.25
  Q 91.85 111.26 110.94 111.24
  C 118.79 111.24 125.25 110.43 128.60 103.30
  Q 130.24 99.82 130.28 89.95
  Q 130.38 62.63 130.26 35.31
  Q 130.21 26.34 128.96 23.35
  C 126.16 16.70 119.81 14.74 112.75 14.74
  Q 73.31 14.73 33.89 14.77
  C 21.80 14.78 13.77 17.66 13.76 31.37
  Q 13.72 63.55 13.78 95.71
  C 13.80 107.21 20.97 111.28 31.59 111.25
  Q 44.11 111.21 56.61 111.31
  A 1.00 0.99 66.8 0 1 57.30 111.59"
/>
<path stroke="#1a2532" vector-effect="non-scaling-stroke" d="
  M 84.53 97.55
  C 97.67 92.64 108.17 79.50 108.56 65.23
  C 108.66 61.76 109.01 58.60 108.11 55.30
  C 99.13 22.35 56.73 15.07 39.91 46.41
  Q 31.88 61.36 38.51 76.72
  C 46.17 94.47 65.80 104.54 84.53 97.55"
/>
<path stroke="#808082" vector-effect="non-scaling-stroke" d="
  M 107.91 63.01
  A 35.62 35.62 0.0 0 0 72.29 27.39
  A 35.62 35.62 0.0 0 0 36.67 63.01
  A 35.62 35.62 0.0 0 0 72.29 98.63
  A 35.62 35.62 0.0 0 0 107.91 63.01"
/>
<path stroke="#808082" vector-effect="non-scaling-stroke" d="
  M 76.19 33.86
  Q 74.50 32.23 74.50 34.58
  L 74.50 43.84
  A 1.00 1.00 0.0 0 0 75.51 44.84
  L 81.24 44.78
  A 1.00 1.00 0.0 0 0 82.18 43.47
  Q 80.36 37.87 76.19 33.86"
/>
<path stroke="#808082" vector-effect="non-scaling-stroke" d="
  M 68.49 44.89
  A 1.00 1.00 0.0 0 0 69.51 43.87
  L 69.35 35.06
  Q 69.31 32.76 67.65 34.36
  Q 63.73 38.16 62.02 43.47
  A 1.00 1.00 0.0 0 0 62.95 44.78
  L 68.49 44.89"
/>
<path stroke="#808082" vector-effect="non-scaling-stroke" d="
  M 55.61 44.80
  A 1.01 1.00 7.8 0 0 56.56 44.09
  Q 57.75 40.15 59.82 36.62
  Q 61.23 34.21 58.76 35.51
  Q 53.16 38.44 48.94 43.17
  Q 47.43 44.85 49.69 44.84
  L 55.61 44.80"
/>
<path stroke="#808082" vector-effect="non-scaling-stroke" d="
  M 91.81 39.44
  Q 88.64 36.87 85.41 35.28
  Q 83.06 34.13 84.37 36.40
  Q 86.44 40.00 87.67 44.00
  A 1.01 1.00 -7.6 0 0 88.61 44.71
  L 94.92 44.82
  Q 97.13 44.86 95.70 43.18
  Q 94.11 41.30 91.81 39.44"
/>
<path stroke="#808082" vector-effect="non-scaling-stroke" d="
  M 69.30 59.50
  L 69.39 50.72
  A 1.00 1.00 0.0 0 0 68.38 49.71
  L 60.81 49.77
  A 1.00 0.99 2.6 0 0 59.83 50.66
  L 58.73 60.39
  A 1.00 0.99 3.3 0 0 59.72 61.50
  L 68.88 61.50
  A 0.65 0.65 0.0 0 0 69.50 61.04
  Q 69.59 60.74 69.48 60.43
  Q 69.30 59.87 69.30 59.50"
/>
<path stroke="#808082" vector-effect="non-scaling-stroke" d="
  M 84.27 50.04
  A 0.30 0.30 0.0 0 0 83.98 49.78
  L 74.80 49.70
  A 0.30 0.30 0.0 0 0 74.50 50.00
  L 74.50 61.20
  A 0.30 0.30 0.0 0 0 74.80 61.50
  L 85.27 61.50
  A 0.30 0.30 0.0 0 0 85.57 61.17
  L 84.27 50.04"
/>
<path stroke="#808082" vector-effect="non-scaling-stroke" d="
  M 54.18 60.45
  Q 53.95 55.65 54.94 50.96
  A 1.01 1.00 -84.1 0 0 53.96 49.75
  L 45.32 49.75
  A 0.98 0.98 0.0 0 0 44.41 50.36
  Q 42.34 55.18 41.73 60.38
  A 1.01 1.00 3.3 0 0 42.73 61.50
  L 53.18 61.50
  A 1.00 1.00 0.0 0 0 54.18 60.45"
/>
<path stroke="#808082" vector-effect="non-scaling-stroke" d="
  M 90.36 60.54
  Q 90.12 60.88 90.25 61.18
  A 0.51 0.50 78.8 0 0 90.72 61.50
  L 101.84 61.50
  A 1.00 1.00 0.0 0 0 102.83 60.37
  Q 102.16 55.22 100.26 50.39
  A 1.01 1.00 79.2 0 0 99.33 49.75
  L 90.38 49.75
  A 1.00 1.00 0.0 0 0 89.39 50.87
  L 90.47 60.10
  A 0.64 0.63 -31.4 0 1 90.36 60.54"
/>
<path stroke="#808082" vector-effect="non-scaling-stroke" d="
  M 45.65 77.50
  L 54.17 77.50
  A 1.01 1.00 82.6 0 0 55.14 76.24
  Q 54.05 72.09 54.27 67.78
  A 1.01 1.00 1.4 0 0 53.26 66.73
  L 42.87 66.76
  A 1.00 1.00 0.0 0 0 41.92 68.06
  L 44.70 76.81
  A 1.00 0.99 -8.8 0 0 45.65 77.50"
/>
<path stroke="#808082" vector-effect="non-scaling-stroke" d="
  M 69.30 75.84
  L 69.38 67.74
  A 1.00 1.00 0.0 0 0 68.38 66.73
  L 59.83 66.76
  A 0.99 0.99 0.0 0 0 58.85 67.90
  L 60.10 76.66
  A 1.00 1.00 0.0 0 0 61.10 77.52
  L 69.02 77.40
  A 0.50 0.50 0.0 0 0 69.52 76.90
  Q 69.52 76.57 69.39 76.25
  Q 69.30 76.06 69.30 75.84"
/>
<path stroke="#808082" vector-effect="non-scaling-stroke" d="
  M 75.13 66.54
  Q 74.96 66.45 74.74 66.50
  A 0.33 0.31 -6.3 0 0 74.47 66.82
  L 74.60 76.54
  A 1.00 0.99 89.1 0 0 75.61 77.53
  L 83.20 77.39
  A 1.00 0.99 -86.3 0 0 84.17 76.53
  L 85.35 67.84
  A 1.01 1.00 -86.2 0 0 84.36 66.70
  L 75.55 66.70
  Q 75.45 66.70 75.13 66.54"
/>
<path stroke="#808082" vector-effect="non-scaling-stroke" d="
  M 98.63 77.51
  A 1.01 1.00 -75.7 0 0 99.56 76.95
  Q 101.68 72.63 102.49 67.92
  A 1.00 1.00 0.0 0 0 101.51 66.75
  L 91.31 66.75
  A 1.00 0.99 3.6 0 0 90.32 67.62
  L 89.16 76.12
  A 1.01 1.00 4.9 0 0 90.12 77.26
  L 98.63 77.51"
/>
<path stroke="#808082" vector-effect="non-scaling-stroke" d="
  M 49.68 83.75
  Q 53.63 87.79 58.62 90.43
  Q 61.14 91.77 59.68 89.32
  Q 58.00 86.48 57.10 83.28
  A 1.02 1.01 -6.6 0 0 56.16 82.55
  L 50.28 82.39
  Q 48.30 82.33 49.68 83.75"
/>
<path stroke="#808082" vector-effect="non-scaling-stroke" d="
  M 63.33 82.44
  A 1.01 1.00 -11.0 0 0 62.40 83.81
  Q 64.24 88.44 67.75 91.93
  Q 69.43 93.61 69.45 91.23
  L 69.51 83.42
  A 0.99 0.99 0.0 0 0 68.51 82.42
  L 63.33 82.44"
/>
<path stroke="#808082" vector-effect="non-scaling-stroke" d="
  M 75.44 82.35
  Q 75.26 82.23 75.05 82.22
  A 0.41 0.41 0.0 0 0 74.62 82.63
  L 74.59 91.51
  Q 74.58 93.94 76.29 92.23
  Q 79.90 88.63 81.86 83.88
  A 1.00 1.00 0.0 0 0 80.95 82.50
  L 75.78 82.45
  A 0.79 0.66 -23.5 0 1 75.44 82.35"
/>
<path stroke="#808082" vector-effect="non-scaling-stroke" d="
  M 94.43 82.37
  L 88.15 82.44
  A 1.01 1.00 6.8 0 0 87.19 83.19
  Q 86.32 86.60 84.47 89.55
  Q 82.93 92.00 85.50 90.69
  Q 90.83 87.99 95.01 83.73
  Q 96.37 82.35 94.43 82.37"
/>
<path stroke="#1a2532" vector-effect="non-scaling-stroke" d="
  M 79.85 43.51
  A 1.00 1.00 0.0 0 0 80.72 42.10
  Q 79.54 39.46 77.80 37.15
  Q 76.02 34.80 76.00 37.74
  L 75.96 42.63
  A 1.01 1.00 88.6 0 0 77.01 43.64
  L 79.85 43.51"
/>
<path stroke="#1a2532" vector-effect="non-scaling-stroke" d="
  M 65.51 40.34
  Q 66.86 37.91 67.01 40.69
  Q 67.09 42.22 67.29 42.82
  Q 67.80 44.35 67.80 42.74
  L 67.81 38.30
  Q 67.81 35.45 66.33 37.88
  L 63.63 42.29
  A 0.64 0.63 -65.2 0 0 63.97 43.23
  C 64.97 43.57 65.27 42.84 65.22 41.95
  Q 65.16 40.97 65.51 40.34"
/>
<path stroke="#1a2532" vector-effect="non-scaling-stroke" d="
  M 52.19 41.19
  Q 52.06 41.29 51.94 41.39
  Q 49.83 43.25 52.64 43.14
  L 54.79 43.06
  A 1.00 1.00 0.0 0 0 55.68 42.45
  L 56.87 39.61
  Q 57.87 37.21 55.69 38.63
  Q 54.05 39.69 52.19 41.19"
/>
<path stroke="#1a2532" vector-effect="non-scaling-stroke" d="
  M 90.92 39.88
  Q 89.77 38.91 88.46 38.15
  Q 85.96 36.71 87.03 39.39
  L 88.42 42.88
  A 1.00 0.98 -7.6 0 0 89.25 43.50
  C 97.42 44.34 92.98 41.62 90.92 39.88"
/>
<path stroke="#1a2532" vector-effect="non-scaling-stroke" d="
  M 59.67 59.79
  A 0.57 0.57 0.0 0 0 60.23 60.45
  L 67.81 60.49
  A 0.57 0.57 0.0 0 0 68.39 59.90
  L 68.19 51.21
  A 0.57 0.57 0.0 0 0 67.61 50.65
  L 61.57 50.79
  A 0.57 0.57 0.0 0 0 61.02 51.27
  L 59.67 59.79"
/>
<path stroke="#1a2532" vector-effect="non-scaling-stroke" d="
  M 79.70 60.29
  C 80.67 60.26 82.44 60.57 83.78 60.28
  A 1.00 0.99 80.3 0 0 84.56 59.17
  L 83.53 51.61
  A 1.01 1.00 85.8 0 0 82.53 50.74
  L 77.03 50.82
  A 1.00 0.99 -89.7 0 0 76.05 51.80
  L 75.88 59.25
  A 1.00 1.00 0.0 0 0 76.84 60.27
  Q 78.28 60.32 79.70 60.29"
/>
<path stroke="#1a2532" vector-effect="non-scaling-stroke" d="
  M 46.44 50.83
  C 44.61 50.00 43.02 58.09 42.85 59.15
  A 0.99 0.99 0.0 0 0 43.81 60.30
  L 52.46 60.51
  A 1.01 1.01 0.0 0 0 53.49 59.52
  L 53.60 51.94
  A 1.00 0.99 0.6 0 0 52.60 50.93
  L 46.85 50.92
  Q 46.64 50.92 46.44 50.83"
/>
<path stroke="#1a2532" vector-effect="non-scaling-stroke" d="
  M 91.16 59.54
  A 1.02 1.01 -5.8 0 0 92.17 60.36
  L 100.44 60.21
  A 1.00 1.00 0.0 0 0 101.42 59.23
  Q 101.51 55.07 99.76 51.29
  A 1.03 1.02 77.0 0 0 98.84 50.71
  L 91.78 50.76
  A 1.01 1.00 -87.8 0 0 90.79 51.68
  Q 90.44 55.66 91.16 59.54"
/>
<path stroke="#1a2532" vector-effect="non-scaling-stroke" d="
  M 53.86 75.32
  C 53.88 73.25 53.52 71.04 53.51 68.80
  A 0.99 0.99 0.0 0 0 52.52 67.81
  L 44.08 67.78
  A 1.00 1.00 0.0 0 0 43.13 69.08
  L 45.16 75.63
  A 1.01 1.00 81.4 0 0 46.12 76.34
  L 52.86 76.31
  A 1.00 1.00 0.0 0 0 53.86 75.32"
/>
<path stroke="#1a2532" vector-effect="non-scaling-stroke" d="
  M 61.79 76.33
  L 67.28 76.23
  A 1.01 1.00 -1.1 0 0 68.27 75.21
  L 68.10 68.79
  A 1.01 0.99 1.3 0 0 67.16 67.82
  C 66.84 67.80 57.25 67.04 59.97 69.47
  A 0.98 0.96 -72.0 0 1 60.30 70.13
  L 60.78 75.42
  A 1.00 0.99 86.9 0 0 61.79 76.33"
/>
<path stroke="#1a2532" vector-effect="non-scaling-stroke" d="
  M 84.50 68.50
  A 0.58 0.58 0.0 0 0 83.93 67.81
  L 76.33 67.79
  A 0.58 0.58 0.0 0 0 75.75 68.37
  L 75.75 75.67
  A 0.58 0.58 0.0 0 0 76.33 76.25
  L 82.55 76.25
  A 0.58 0.58 0.0 0 0 83.12 75.78
  L 84.50 68.50"
/>
<path stroke="#1a2532" vector-effect="non-scaling-stroke" d="
  M 100.34 67.96
  L 92.35 67.73
  A 0.99 0.99 0.0 0 0 91.34 68.57
  L 90.29 75.11
  A 1.00 1.00 0.0 0 0 91.27 76.27
  L 98.18 76.34
  A 1.02 1.00 13.4 0 0 99.08 75.80
  Q 100.72 72.63 101.30 69.12
  A 1.00 1.00 0.0 0 0 100.34 67.96"
/>
<path stroke="#1a2532" vector-effect="non-scaling-stroke" d="
  M 52.05 83.80
  A 0.49 0.49 0.0 0 0 51.79 84.68
  L 56.76 88.33
  A 0.49 0.49 0.0 0 0 57.50 87.76
  L 55.95 83.88
  A 0.49 0.49 0.0 0 0 55.46 83.57
  L 52.05 83.80"
/>
<path stroke="#1a2532" vector-effect="non-scaling-stroke" d="
  M 68.14 84.53
  A 1.00 0.99 1.1 0 0 67.14 83.50
  L 64.73 83.50
  Q 62.85 83.50 63.90 85.05
  L 66.53 88.97
  Q 67.91 91.02 68.00 88.56
  L 68.14 84.53"
/>
<path stroke="#1a2532" vector-effect="non-scaling-stroke" d="
  M 77.12 83.60
  A 1.01 0.99 1.9 0 0 76.04 84.60
  L 76.09 88.68
  Q 76.11 91.42 77.56 89.10
  L 79.96 85.28
  A 1.00 1.00 0.0 0 0 79.18 83.75
  L 77.12 83.60"
/>
<path stroke="#1a2532" vector-effect="non-scaling-stroke" d="
  M 87.97 84.43
  L 87.17 86.72
  Q 86.38 89.00 88.37 87.65
  L 91.46 85.56
  Q 94.22 83.69 90.89 83.73
  L 88.90 83.76
  A 0.99 0.98 -80.4 0 0 87.97 84.43"
/>
</g>
<path fill="#42b983" d="
  M 13.31 0.00
  L 131.06 0.00
  Q 142.10 2.23 144.00 13.31
  L 144.00 112.81
  Q 141.90 124.23 130.44 126.00
  L 13.19 126.00
  Q 1.78 123.89 0.00 112.44
  L 0.00 13.19
  Q 2.02 1.94 13.31 0.00
  Z
  M 57.30 111.59
  L 70.44 124.35
  Q 71.81 125.67 71.80 123.77
  L 71.73 112.25
  A 1.00 0.99 -0.3 0 1 72.73 111.25
  Q 91.85 111.26 110.94 111.24
  C 118.79 111.24 125.25 110.43 128.60 103.30
  Q 130.24 99.82 130.28 89.95
  Q 130.38 62.63 130.26 35.31
  Q 130.21 26.34 128.96 23.35
  C 126.16 16.70 119.81 14.74 112.75 14.74
  Q 73.31 14.73 33.89 14.77
  C 21.80 14.78 13.77 17.66 13.76 31.37
  Q 13.72 63.55 13.78 95.71
  C 13.80 107.21 20.97 111.28 31.59 111.25
  Q 44.11 111.21 56.61 111.31
  A 1.00 0.99 66.8 0 1 57.30 111.59
  Z"
/>
<path fill="#34495e" d="
  M 56.61 111.31
  Q 44.11 111.21 31.59 111.25
  C 20.97 111.28 13.80 107.21 13.78 95.71
  Q 13.72 63.55 13.76 31.37
  C 13.77 17.66 21.80 14.78 33.89 14.77
  Q 73.31 14.73 112.75 14.74
  C 119.81 14.74 126.16 16.70 128.96 23.35
  Q 130.21 26.34 130.26 35.31
  Q 130.38 62.63 130.28 89.95
  Q 130.24 99.82 128.60 103.30
  C 125.25 110.43 118.79 111.24 110.94 111.24
  Q 91.85 111.26 72.73 111.25
  A 1.00 0.99 -0.3 0 0 71.73 112.25
  L 71.80 123.77
  Q 71.81 125.67 70.44 124.35
  L 57.30 111.59
  A 1.00 0.99 66.8 0 0 56.61 111.31
  Z
  M 84.53 97.55
  C 97.67 92.64 108.17 79.50 108.56 65.23
  C 108.66 61.76 109.01 58.60 108.11 55.30
  C 99.13 22.35 56.73 15.07 39.91 46.41
  Q 31.88 61.36 38.51 76.72
  C 46.17 94.47 65.80 104.54 84.53 97.55
  Z"
/>
<path fill="#000105" d="
  M 108.56 65.23
  C 108.17 79.50 97.67 92.64 84.53 97.55
  C 65.80 104.54 46.17 94.47 38.51 76.72
  Q 31.88 61.36 39.91 46.41
  C 56.73 15.07 99.13 22.35 108.11 55.30
  C 109.01 58.60 108.66 61.76 108.56 65.23
  Z
  M 107.91 63.01
  A 35.62 35.62 0.0 0 0 72.29 27.39
  A 35.62 35.62 0.0 0 0 36.67 63.01
  A 35.62 35.62 0.0 0 0 72.29 98.63
  A 35.62 35.62 0.0 0 0 107.91 63.01
  Z"
/>
<path fill="#ffffff" d="
  M 107.91 63.01
  A 35.62 35.62 0.0 0 1 72.29 98.63
  A 35.62 35.62 0.0 0 1 36.67 63.01
  A 35.62 35.62 0.0 0 1 72.29 27.39
  A 35.62 35.62 0.0 0 1 107.91 63.01
  Z
  M 76.19 33.86
  Q 74.50 32.23 74.50 34.58
  L 74.50 43.84
  A 1.00 1.00 0.0 0 0 75.51 44.84
  L 81.24 44.78
  A 1.00 1.00 0.0 0 0 82.18 43.47
  Q 80.36 37.87 76.19 33.86
  Z
  M 68.49 44.89
  A 1.00 1.00 0.0 0 0 69.51 43.87
  L 69.35 35.06
  Q 69.31 32.76 67.65 34.36
  Q 63.73 38.16 62.02 43.47
  A 1.00 1.00 0.0 0 0 62.95 44.78
  L 68.49 44.89
  Z
  M 55.61 44.80
  A 1.01 1.00 7.8 0 0 56.56 44.09
  Q 57.75 40.15 59.82 36.62
  Q 61.23 34.21 58.76 35.51
  Q 53.16 38.44 48.94 43.17
  Q 47.43 44.85 49.69 44.84
  L 55.61 44.80
  Z
  M 91.81 39.44
  Q 88.64 36.87 85.41 35.28
  Q 83.06 34.13 84.37 36.40
  Q 86.44 40.00 87.67 44.00
  A 1.01 1.00 -7.6 0 0 88.61 44.71
  L 94.92 44.82
  Q 97.13 44.86 95.70 43.18
  Q 94.11 41.30 91.81 39.44
  Z
  M 69.30 59.50
  L 69.39 50.72
  A 1.00 1.00 0.0 0 0 68.38 49.71
  L 60.81 49.77
  A 1.00 0.99 2.6 0 0 59.83 50.66
  L 58.73 60.39
  A 1.00 0.99 3.3 0 0 59.72 61.50
  L 68.88 61.50
  A 0.65 0.65 0.0 0 0 69.50 61.04
  Q 69.59 60.74 69.48 60.43
  Q 69.30 59.87 69.30 59.50
  Z
  M 84.27 50.04
  A 0.30 0.30 0.0 0 0 83.98 49.78
  L 74.80 49.70
  A 0.30 0.30 0.0 0 0 74.50 50.00
  L 74.50 61.20
  A 0.30 0.30 0.0 0 0 74.80 61.50
  L 85.27 61.50
  A 0.30 0.30 0.0 0 0 85.57 61.17
  L 84.27 50.04
  Z
  M 54.18 60.45
  Q 53.95 55.65 54.94 50.96
  A 1.01 1.00 -84.1 0 0 53.96 49.75
  L 45.32 49.75
  A 0.98 0.98 0.0 0 0 44.41 50.36
  Q 42.34 55.18 41.73 60.38
  A 1.01 1.00 3.3 0 0 42.73 61.50
  L 53.18 61.50
  A 1.00 1.00 0.0 0 0 54.18 60.45
  Z
  M 90.36 60.54
  Q 90.12 60.88 90.25 61.18
  A 0.51 0.50 78.8 0 0 90.72 61.50
  L 101.84 61.50
  A 1.00 1.00 0.0 0 0 102.83 60.37
  Q 102.16 55.22 100.26 50.39
  A 1.01 1.00 79.2 0 0 99.33 49.75
  L 90.38 49.75
  A 1.00 1.00 0.0 0 0 89.39 50.87
  L 90.47 60.10
  A 0.64 0.63 -31.4 0 1 90.36 60.54
  Z
  M 45.65 77.50
  L 54.17 77.50
  A 1.01 1.00 82.6 0 0 55.14 76.24
  Q 54.05 72.09 54.27 67.78
  A 1.01 1.00 1.4 0 0 53.26 66.73
  L 42.87 66.76
  A 1.00 1.00 0.0 0 0 41.92 68.06
  L 44.70 76.81
  A 1.00 0.99 -8.8 0 0 45.65 77.50
  Z
  M 69.30 75.84
  L 69.38 67.74
  A 1.00 1.00 0.0 0 0 68.38 66.73
  L 59.83 66.76
  A 0.99 0.99 0.0 0 0 58.85 67.90
  L 60.10 76.66
  A 1.00 1.00 0.0 0 0 61.10 77.52
  L 69.02 77.40
  A 0.50 0.50 0.0 0 0 69.52 76.90
  Q 69.52 76.57 69.39 76.25
  Q 69.30 76.06 69.30 75.84
  Z
  M 75.13 66.54
  Q 74.96 66.45 74.74 66.50
  A 0.33 0.31 -6.3 0 0 74.47 66.82
  L 74.60 76.54
  A 1.00 0.99 89.1 0 0 75.61 77.53
  L 83.20 77.39
  A 1.00 0.99 -86.3 0 0 84.17 76.53
  L 85.35 67.84
  A 1.01 1.00 -86.2 0 0 84.36 66.70
  L 75.55 66.70
  Q 75.45 66.70 75.13 66.54
  Z
  M 98.63 77.51
  A 1.01 1.00 -75.7 0 0 99.56 76.95
  Q 101.68 72.63 102.49 67.92
  A 1.00 1.00 0.0 0 0 101.51 66.75
  L 91.31 66.75
  A 1.00 0.99 3.6 0 0 90.32 67.62
  L 89.16 76.12
  A 1.01 1.00 4.9 0 0 90.12 77.26
  L 98.63 77.51
  Z
  M 49.68 83.75
  Q 53.63 87.79 58.62 90.43
  Q 61.14 91.77 59.68 89.32
  Q 58.00 86.48 57.10 83.28
  A 1.02 1.01 -6.6 0 0 56.16 82.55
  L 50.28 82.39
  Q 48.30 82.33 49.68 83.75
  Z
  M 63.33 82.44
  A 1.01 1.00 -11.0 0 0 62.40 83.81
  Q 64.24 88.44 67.75 91.93
  Q 69.43 93.61 69.45 91.23
  L 69.51 83.42
  A 0.99 0.99 0.0 0 0 68.51 82.42
  L 63.33 82.44
  Z
  M 75.44 82.35
  Q 75.26 82.23 75.05 82.22
  A 0.41 0.41 0.0 0 0 74.62 82.63
  L 74.59 91.51
  Q 74.58 93.94 76.29 92.23
  Q 79.90 88.63 81.86 83.88
  A 1.00 1.00 0.0 0 0 80.95 82.50
  L 75.78 82.45
  A 0.79 0.66 -23.5 0 1 75.44 82.35
  Z
  M 94.43 82.37
  L 88.15 82.44
  A 1.01 1.00 6.8 0 0 87.19 83.19
  Q 86.32 86.60 84.47 89.55
  Q 82.93 92.00 85.50 90.69
  Q 90.83 87.99 95.01 83.73
  Q 96.37 82.35 94.43 82.37
  Z"
/>
<path fill="#000105" d="
  M 76.19 33.86
  Q 80.36 37.87 82.18 43.47
  A 1.00 1.00 0.0 0 1 81.24 44.78
  L 75.51 44.84
  A 1.00 1.00 0.0 0 1 74.50 43.84
  L 74.50 34.58
  Q 74.50 32.23 76.19 33.86
  Z
  M 79.85 43.51
  A 1.00 1.00 0.0 0 0 80.72 42.10
  Q 79.54 39.46 77.80 37.15
  Q 76.02 34.80 76.00 37.74
  L 75.96 42.63
  A 1.01 1.00 88.6 0 0 77.01 43.64
  L 79.85 43.51
  Z"
/>
<path fill="#000105" d="
  M 68.49 44.89
  L 62.95 44.78
  A 1.00 1.00 0.0 0 1 62.02 43.47
  Q 63.73 38.16 67.65 34.36
  Q 69.31 32.76 69.35 35.06
  L 69.51 43.87
  A 1.00 1.00 0.0 0 1 68.49 44.89
  Z
  M 65.51 40.34
  Q 66.86 37.91 67.01 40.69
  Q 67.09 42.22 67.29 42.82
  Q 67.80 44.35 67.80 42.74
  L 67.81 38.30
  Q 67.81 35.45 66.33 37.88
  L 63.63 42.29
  A 0.64 0.63 -65.2 0 0 63.97 43.23
  C 64.97 43.57 65.27 42.84 65.22 41.95
  Q 65.16 40.97 65.51 40.34
  Z"
/>
<path fill="#000105" d="
  M 55.61 44.80
  L 49.69 44.84
  Q 47.43 44.85 48.94 43.17
  Q 53.16 38.44 58.76 35.51
  Q 61.23 34.21 59.82 36.62
  Q 57.75 40.15 56.56 44.09
  A 1.01 1.00 7.8 0 1 55.61 44.80
  Z
  M 52.19 41.19
  Q 52.06 41.29 51.94 41.39
  Q 49.83 43.25 52.64 43.14
  L 54.79 43.06
  A 1.00 1.00 0.0 0 0 55.68 42.45
  L 56.87 39.61
  Q 57.87 37.21 55.69 38.63
  Q 54.05 39.69 52.19 41.19
  Z"
/>
<path fill="#000105" d="
  M 91.81 39.44
  Q 94.11 41.30 95.70 43.18
  Q 97.13 44.86 94.92 44.82
  L 88.61 44.71
  A 1.01 1.00 -7.6 0 1 87.67 44.00
  Q 86.44 40.00 84.37 36.40
  Q 83.06 34.13 85.41 35.28
  Q 88.64 36.87 91.81 39.44
  Z
  M 90.92 39.88
  Q 89.77 38.91 88.46 38.15
  Q 85.96 36.71 87.03 39.39
  L 88.42 42.88
  A 1.00 0.98 -7.6 0 0 89.25 43.50
  C 97.42 44.34 92.98 41.62 90.92 39.88
  Z"
/>
<path fill="#34495e" d="
  M 79.85 43.51
  L 77.01 43.64
  A 1.01 1.00 88.6 0 1 75.96 42.63
  L 76.00 37.74
  Q 76.02 34.80 77.80 37.15
  Q 79.54 39.46 80.72 42.10
  A 1.00 1.00 0.0 0 1 79.85 43.51
  Z"
/>
<path fill="#34495e" d="
  M 65.51 40.34
  Q 65.16 40.97 65.22 41.95
  C 65.27 42.84 64.97 43.57 63.97 43.23
  A 0.64 0.63 -65.2 0 1 63.63 42.29
  L 66.33 37.88
  Q 67.81 35.45 67.81 38.30
  L 67.80 42.74
  Q 67.80 44.35 67.29 42.82
  Q 67.09 42.22 67.01 40.69
  Q 66.86 37.91 65.51 40.34
  Z"
/>
<path fill="#34495e" d="
  M 90.92 39.88
  C 92.98 41.62 97.42 44.34 89.25 43.50
  A 1.00 0.98 -7.6 0 1 88.42 42.88
  L 87.03 39.39
  Q 85.96 36.71 88.46 38.15
  Q 89.77 38.91 90.92 39.88
  Z"
/>
<path fill="#34495e" d="
  M 52.19 41.19
  Q 54.05 39.69 55.69 38.63
  Q 57.87 37.21 56.87 39.61
  L 55.68 42.45
  A 1.00 1.00 0.0 0 1 54.79 43.06
  L 52.64 43.14
  Q 49.83 43.25 51.94 41.39
  Q 52.06 41.29 52.19 41.19
  Z"
/>
<path fill="#000105" d="
  M 69.48 60.43
  Q 69.59 60.74 69.50 61.04
  A 0.65 0.65 0.0 0 1 68.88 61.50
  L 59.72 61.50
  A 1.00 0.99 3.3 0 1 58.73 60.39
  L 59.83 50.66
  A 1.00 0.99 2.6 0 1 60.81 49.77
  L 68.38 49.71
  A 1.00 1.00 0.0 0 1 69.39 50.72
  L 69.30 59.50
  Q 69.30 59.87 69.48 60.43
  Z
  M 59.67 59.79
  A 0.57 0.57 0.0 0 0 60.23 60.45
  L 67.81 60.49
  A 0.57 0.57 0.0 0 0 68.39 59.90
  L 68.19 51.21
  A 0.57 0.57 0.0 0 0 67.61 50.65
  L 61.57 50.79
  A 0.57 0.57 0.0 0 0 61.02 51.27
  L 59.67 59.79
  Z"
/>
<path fill="#000105" d="
  M 84.27 50.04
  L 85.57 61.17
  A 0.30 0.30 0.0 0 1 85.27 61.50
  L 74.80 61.50
  A 0.30 0.30 0.0 0 1 74.50 61.20
  L 74.50 50.00
  A 0.30 0.30 0.0 0 1 74.80 49.70
  L 83.98 49.78
  A 0.30 0.30 0.0 0 1 84.27 50.04
  Z
  M 79.70 60.29
  C 80.67 60.26 82.44 60.57 83.78 60.28
  A 1.00 0.99 80.3 0 0 84.56 59.17
  L 83.53 51.61
  A 1.01 1.00 85.8 0 0 82.53 50.74
  L 77.03 50.82
  A 1.00 0.99 -89.7 0 0 76.05 51.80
  L 75.88 59.25
  A 1.00 1.00 0.0 0 0 76.84 60.27
  Q 78.28 60.32 79.70 60.29
  Z"
/>
<path fill="#000105" d="
  M 54.18 60.45
  A 1.00 1.00 0.0 0 1 53.18 61.50
  L 42.73 61.50
  A 1.01 1.00 3.3 0 1 41.73 60.38
  Q 42.34 55.18 44.41 50.36
  A 0.98 0.98 0.0 0 1 45.32 49.75
  L 53.96 49.75
  A 1.01 1.00 -84.1 0 1 54.94 50.96
  Q 53.95 55.65 54.18 60.45
  Z
  M 46.44 50.83
  C 44.61 50.00 43.02 58.09 42.85 59.15
  A 0.99 0.99 0.0 0 0 43.81 60.30
  L 52.46 60.51
  A 1.01 1.01 0.0 0 0 53.49 59.52
  L 53.60 51.94
  A 1.00 0.99 0.6 0 0 52.60 50.93
  L 46.85 50.92
  Q 46.64 50.92 46.44 50.83
  Z"
/>
<path fill="#000105" d="
  M 90.47 60.10
  L 89.39 50.87
  A 1.00 1.00 0.0 0 1 90.38 49.75
  L 99.33 49.75
  A 1.01 1.00 79.2 0 1 100.26 50.39
  Q 102.16 55.22 102.83 60.37
  A 1.00 1.00 0.0 0 1 101.84 61.50
  L 90.72 61.50
  A 0.51 0.50 78.8 0 1 90.25 61.18
  Q 90.12 60.88 90.36 60.54
  A 0.64 0.63 -31.4 0 0 90.47 60.10
  Z
  M 91.16 59.54
  A 1.02 1.01 -5.8 0 0 92.17 60.36
  L 100.44 60.21
  A 1.00 1.00 0.0 0 0 101.42 59.23
  Q 101.51 55.07 99.76 51.29
  A 1.03 1.02 77.0 0 0 98.84 50.71
  L 91.78 50.76
  A 1.01 1.00 -87.8 0 0 90.79 51.68
  Q 90.44 55.66 91.16 59.54
  Z"
/>
<path fill="#34495e" d="
  M 59.67 59.79
  L 61.02 51.27
  A 0.57 0.57 0.0 0 1 61.57 50.79
  L 67.61 50.65
  A 0.57 0.57 0.0 0 1 68.19 51.21
  L 68.39 59.90
  A 0.57 0.57 0.0 0 1 67.81 60.49
  L 60.23 60.45
  A 0.57 0.57 0.0 0 1 59.67 59.79
  Z"
/>
<path fill="#34495e" d="
  M 91.16 59.54
  Q 90.44 55.66 90.79 51.68
  A 1.01 1.00 -87.8 0 1 91.78 50.76
  L 98.84 50.71
  A 1.03 1.02 77.0 0 1 99.76 51.29
  Q 101.51 55.07 101.42 59.23
  A 1.00 1.00 0.0 0 1 100.44 60.21
  L 92.17 60.36
  A 1.02 1.01 -5.8 0 1 91.16 59.54
  Z"
/>
<path fill="#34495e" d="
  M 46.85 50.92
  L 52.60 50.93
  A 1.00 0.99 0.6 0 1 53.60 51.94
  L 53.49 59.52
  A 1.01 1.01 0.0 0 1 52.46 60.51
  L 43.81 60.30
  A 0.99 0.99 0.0 0 1 42.85 59.15
  C 43.02 58.09 44.61 50.00 46.44 50.83
  Q 46.64 50.92 46.85 50.92
  Z"
/>
<path fill="#34495e" d="
  M 79.70 60.29
  Q 78.28 60.32 76.84 60.27
  A 1.00 1.00 0.0 0 1 75.88 59.25
  L 76.05 51.80
  A 1.00 0.99 -89.7 0 1 77.03 50.82
  L 82.53 50.74
  A 1.01 1.00 85.8 0 1 83.53 51.61
  L 84.56 59.17
  A 1.00 0.99 80.3 0 1 83.78 60.28
  C 82.44 60.57 80.67 60.26 79.70 60.29
  Z"
/>
<path fill="#000105" d="
  M 44.70 76.81
  L 41.92 68.06
  A 1.00 1.00 0.0 0 1 42.87 66.76
  L 53.26 66.73
  A 1.01 1.00 1.4 0 1 54.27 67.78
  Q 54.05 72.09 55.14 76.24
  A 1.01 1.00 82.6 0 1 54.17 77.50
  L 45.65 77.50
  A 1.00 0.99 -8.8 0 1 44.70 76.81
  Z
  M 53.86 75.32
  C 53.88 73.25 53.52 71.04 53.51 68.80
  A 0.99 0.99 0.0 0 0 52.52 67.81
  L 44.08 67.78
  A 1.00 1.00 0.0 0 0 43.13 69.08
  L 45.16 75.63
  A 1.01 1.00 81.4 0 0 46.12 76.34
  L 52.86 76.31
  A 1.00 1.00 0.0 0 0 53.86 75.32
  Z"
/>
<path fill="#000105" d="
  M 69.39 76.25
  Q 69.52 76.57 69.52 76.90
  A 0.50 0.50 0.0 0 1 69.02 77.40
  L 61.10 77.52
  A 1.00 1.00 0.0 0 1 60.10 76.66
  L 58.85 67.90
  A 0.99 0.99 0.0 0 1 59.83 66.76
  L 68.38 66.73
  A 1.00 1.00 0.0 0 1 69.38 67.74
  L 69.30 75.84
  Q 69.30 76.06 69.39 76.25
  Z
  M 61.79 76.33
  L 67.28 76.23
  A 1.01 1.00 -1.1 0 0 68.27 75.21
  L 68.10 68.79
  A 1.01 0.99 1.3 0 0 67.16 67.82
  C 66.84 67.80 57.25 67.04 59.97 69.47
  A 0.98 0.96 -72.0 0 1 60.30 70.13
  L 60.78 75.42
  A 1.00 0.99 86.9 0 0 61.79 76.33
  Z"
/>
<path fill="#000105" d="
  M 75.55 66.70
  L 84.36 66.70
  A 1.01 1.00 -86.2 0 1 85.35 67.84
  L 84.17 76.53
  A 1.00 0.99 -86.3 0 1 83.20 77.39
  L 75.61 77.53
  A 1.00 0.99 89.1 0 1 74.60 76.54
  L 74.47 66.82
  A 0.33 0.31 -6.3 0 1 74.74 66.50
  Q 74.96 66.45 75.13 66.54
  Q 75.45 66.70 75.55 66.70
  Z
  M 84.50 68.50
  A 0.58 0.58 0.0 0 0 83.93 67.81
  L 76.33 67.79
  A 0.58 0.58 0.0 0 0 75.75 68.37
  L 75.75 75.67
  A 0.58 0.58 0.0 0 0 76.33 76.25
  L 82.55 76.25
  A 0.58 0.58 0.0 0 0 83.12 75.78
  L 84.50 68.50
  Z"
/>
<path fill="#000105" d="
  M 98.63 77.51
  L 90.12 77.26
  A 1.01 1.00 4.9 0 1 89.16 76.12
  L 90.32 67.62
  A 1.00 0.99 3.6 0 1 91.31 66.75
  L 101.51 66.75
  A 1.00 1.00 0.0 0 1 102.49 67.92
  Q 101.68 72.63 99.56 76.95
  A 1.01 1.00 -75.7 0 1 98.63 77.51
  Z
  M 100.34 67.96
  L 92.35 67.73
  A 0.99 0.99 0.0 0 0 91.34 68.57
  L 90.29 75.11
  A 1.00 1.00 0.0 0 0 91.27 76.27
  L 98.18 76.34
  A 1.02 1.00 13.4 0 0 99.08 75.80
  Q 100.72 72.63 101.30 69.12
  A 1.00 1.00 0.0 0 0 100.34 67.96
  Z"
/>
<path fill="#34495e" d="
  M 53.51 68.80
  C 53.52 71.04 53.88 73.25 53.86 75.32
  A 1.00 1.00 0.0 0 1 52.86 76.31
  L 46.12 76.34
  A 1.01 1.00 81.4 0 1 45.16 75.63
  L 43.13 69.08
  A 1.00 1.00 0.0 0 1 44.08 67.78
  L 52.52 67.81
  A 0.99 0.99 0.0 0 1 53.51 68.80
  Z"
/>
<path fill="#34495e" d="
  M 61.79 76.33
  A 1.00 0.99 86.9 0 1 60.78 75.42
  L 60.30 70.13
  A 0.98 0.96 -72.0 0 0 59.97 69.47
  C 57.25 67.04 66.84 67.80 67.16 67.82
  A 1.01 0.99 1.3 0 1 68.10 68.79
  L 68.27 75.21
  A 1.01 1.00 -1.1 0 1 67.28 76.23
  L 61.79 76.33
  Z"
/>
<path fill="#34495e" d="
  M 84.50 68.50
  L 83.12 75.78
  A 0.58 0.58 0.0 0 1 82.55 76.25
  L 76.33 76.25
  A 0.58 0.58 0.0 0 1 75.75 75.67
  L 75.75 68.37
  A 0.58 0.58 0.0 0 1 76.33 67.79
  L 83.93 67.81
  A 0.58 0.58 0.0 0 1 84.50 68.50
  Z"
/>
<path fill="#34495e" d="
  M 100.34 67.96
  A 1.00 1.00 0.0 0 1 101.30 69.12
  Q 100.72 72.63 99.08 75.80
  A 1.02 1.00 13.4 0 1 98.18 76.34
  L 91.27 76.27
  A 1.00 1.00 0.0 0 1 90.29 75.11
  L 91.34 68.57
  A 0.99 0.99 0.0 0 1 92.35 67.73
  L 100.34 67.96
  Z"
/>
<path fill="#000105" d="
  M 49.68 83.75
  Q 48.30 82.33 50.28 82.39
  L 56.16 82.55
  A 1.02 1.01 -6.6 0 1 57.10 83.28
  Q 58.00 86.48 59.68 89.32
  Q 61.14 91.77 58.62 90.43
  Q 53.63 87.79 49.68 83.75
  Z
  M 52.05 83.80
  A 0.49 0.49 0.0 0 0 51.79 84.68
  L 56.76 88.33
  A 0.49 0.49 0.0 0 0 57.50 87.76
  L 55.95 83.88
  A 0.49 0.49 0.0 0 0 55.46 83.57
  L 52.05 83.80
  Z"
/>
<path fill="#000105" d="
  M 63.33 82.44
  L 68.51 82.42
  A 0.99 0.99 0.0 0 1 69.51 83.42
  L 69.45 91.23
  Q 69.43 93.61 67.75 91.93
  Q 64.24 88.44 62.40 83.81
  A 1.01 1.00 -11.0 0 1 63.33 82.44
  Z
  M 68.14 84.53
  A 1.00 0.99 1.1 0 0 67.14 83.50
  L 64.73 83.50
  Q 62.85 83.50 63.90 85.05
  L 66.53 88.97
  Q 67.91 91.02 68.00 88.56
  L 68.14 84.53
  Z"
/>
<path fill="#000105" d="
  M 75.78 82.45
  L 80.95 82.50
  A 1.00 1.00 0.0 0 1 81.86 83.88
  Q 79.90 88.63 76.29 92.23
  Q 74.58 93.94 74.59 91.51
  L 74.62 82.63
  A 0.41 0.41 0.0 0 1 75.05 82.22
  Q 75.26 82.23 75.44 82.35
  A 0.79 0.66 -23.5 0 0 75.78 82.45
  Z
  M 77.12 83.60
  A 1.01 0.99 1.9 0 0 76.04 84.60
  L 76.09 88.68
  Q 76.11 91.42 77.56 89.10
  L 79.96 85.28
  A 1.00 1.00 0.0 0 0 79.18 83.75
  L 77.12 83.60
  Z"
/>
<path fill="#000105" d="
  M 94.43 82.37
  Q 96.37 82.35 95.01 83.73
  Q 90.83 87.99 85.50 90.69
  Q 82.93 92.00 84.47 89.55
  Q 86.32 86.60 87.19 83.19
  A 1.01 1.00 6.8 0 1 88.15 82.44
  L 94.43 82.37
  Z
  M 87.97 84.43
  L 87.17 86.72
  Q 86.38 89.00 88.37 87.65
  L 91.46 85.56
  Q 94.22 83.69 90.89 83.73
  L 88.90 83.76
  A 0.99 0.98 -80.4 0 0 87.97 84.43
  Z"
/>
<path fill="#34495e" d="
  M 52.05 83.80
  L 55.46 83.57
  A 0.49 0.49 0.0 0 1 55.95 83.88
  L 57.50 87.76
  A 0.49 0.49 0.0 0 1 56.76 88.33
  L 51.79 84.68
  A 0.49 0.49 0.0 0 1 52.05 83.80
  Z"
/>
<path fill="#34495e" d="
  M 68.14 84.53
  L 68.00 88.56
  Q 67.91 91.02 66.53 88.97
  L 63.90 85.05
  Q 62.85 83.50 64.73 83.50
  L 67.14 83.50
  A 1.00 0.99 1.1 0 1 68.14 84.53
  Z"
/>
<path fill="#34495e" d="
  M 77.12 83.60
  L 79.18 83.75
  A 1.00 1.00 0.0 0 1 79.96 85.28
  L 77.56 89.10
  Q 76.11 91.42 76.09 88.68
  L 76.04 84.60
  A 1.01 0.99 1.9 0 1 77.12 83.60
  Z"
/>
<path fill="#34495e" d="
  M 87.97 84.43
  A 0.99 0.98 -80.4 0 1 88.90 83.76
  L 90.89 83.73
  Q 94.22 83.69 91.46 85.56
  L 88.37 87.65
  Q 86.38 89.00 87.17 86.72
  L 87.97 84.43
  Z"
/>
</svg>
