<?xml version="1.0" encoding="UTF-8" standalone="no"?>
<!DOCTYPE svg PUBLIC "-//W3C//DTD SVG 1.1//EN" "http://www.w3.org/Graphics/SVG/1.1/DTD/svg11.dtd">
<svg xmlns="http://www.w3.org/2000/svg" version="1.1" viewBox="0 0 512 512">
<g stroke-width="2.00" fill="none" stroke-linecap="butt">
<path stroke="#534999" vector-effect="non-scaling-stroke" d="
  M 36.00 88.04
  L 36.07 88.34
  A 0.81 0.81 0.0 0 0 36.85 88.94
  L 232.00 88.96"
/>
<path stroke="#a04978" vector-effect="non-scaling-stroke" d="
  M 232.00 88.96
  C 237.34 90.46 238.24 94.08 238.23 99.46
  Q 238.21 106.73 238.54 114.00"
/>
<path stroke="#9b9ec8" vector-effect="non-scaling-stroke" d="
  M 238.54 114.00
  Q 237.86 127.10 238.48 139.79"
/>
<path stroke="#a04978" vector-effect="non-scaling-stroke" d="
  M 238.48 139.79
  Q 237.89 152.74 238.51 165.65"
/>
<path stroke="#9b9ec8" vector-effect="non-scaling-stroke" d="
  M 238.51 165.65
  L 238.29 191.50"
/>
<path stroke="#a04978" vector-effect="non-scaling-stroke" d="
  M 238.29 191.50
  L 238.54 217.25"
/>
<path stroke="#9b9ec8" vector-effect="non-scaling-stroke" d="
  M 238.54 217.25
  Q 237.86 230.35 238.47 243.05"
/>
<path stroke="#a04978" vector-effect="non-scaling-stroke" d="
  M 238.47 243.05
  C 238.25 248.29 239.44 260.23 237.07 264.36
  Q 235.36 267.33 231.75 268.90"
/>
<path stroke="#9b9ec8" vector-effect="non-scaling-stroke" d="
  M 231.75 268.90
  C 229.94 268.68 227.87 269.00 226.41 269.00
  Q 119.05 269.01 11.70 268.99
  Q 7.18 268.99 5.09 268.02
  Q 1.91 266.53 0.03 263.17"
/>
<path stroke="#9b9ec8" vector-effect="non-scaling-stroke" d="
  M 27.19 114.44
  A 0.65 0.65 0.0 0 1 26.60 114.01
  L 24.61 108.43
  A 0.65 0.65 0.0 0 0 23.39 108.43
  L 21.40 114.01
  A 0.65 0.65 0.0 0 1 20.81 114.44
  L 14.89 114.61
  A 0.65 0.65 0.0 0 0 14.51 115.77
  L 19.20 119.38
  A 0.65 0.65 0.0 0 1 19.42 120.08
  L 17.76 125.76
  A 0.65 0.65 0.0 0 0 18.75 126.48
  L 23.63 123.14
  A 0.65 0.65 0.0 0 1 24.37 123.14
  L 29.25 126.48
  A 0.65 0.65 0.0 0 0 30.24 125.76
  L 28.58 120.08
  A 0.65 0.65 0.0 0 1 28.80 119.38
  L 33.49 115.77
  A 0.65 0.65 0.0 0 0 33.11 114.61
  L 27.19 114.44"
/>
<path stroke="#9b9ec8" vector-effect="non-scaling-stroke" d="
  M 74.84 114.47
  A 0.74 0.74 0.0 0 1 74.15 113.98
  L 72.30 108.61
  A 0.74 0.74 0.0 0 0 70.90 108.61
  L 69.05 113.98
  A 0.74 0.74 0.0 0 1 68.36 114.47
  L 62.68 114.58
  A 0.74 0.74 0.0 0 0 62.25 115.91
  L 66.78 119.33
  A 0.74 0.74 0.0 0 1 67.05 120.14
  L 65.39 125.57
  A 0.74 0.74 0.0 0 0 66.52 126.39
  L 71.18 123.14
  A 0.74 0.74 0.0 0 1 72.02 123.14
  L 76.68 126.39
  A 0.74 0.74 0.0 0 0 77.81 125.57
  L 76.15 120.14
  A 0.74 0.74 0.0 0 1 76.42 119.33
  L 80.95 115.91
  A 0.74 0.74 0.0 0 0 80.52 114.58
  L 74.84 114.47"
/>
<path stroke="#9b9ec8" vector-effect="non-scaling-stroke" d="
  M 122.42 114.50
  A 0.75 0.75 0.0 0 1 121.72 113.99
  L 119.91 108.58
  A 0.75 0.75 0.0 0 0 118.49 108.58
  L 116.65 113.98
  A 0.75 0.75 0.0 0 1 115.95 114.49
  L 110.25 114.54
  A 0.75 0.75 0.0 0 0 109.80 115.89
  L 114.38 119.31
  A 0.75 0.75 0.0 0 1 114.64 120.13
  L 112.93 125.57
  A 0.75 0.75 0.0 0 0 114.08 126.41
  L 118.74 123.12
  A 0.75 0.75 0.0 0 1 119.61 123.12
  L 124.25 126.43
  A 0.75 0.75 0.0 0 0 125.40 125.60
  L 123.71 120.15
  A 0.75 0.75 0.0 0 1 123.98 119.32
  L 128.56 115.93
  A 0.75 0.75 0.0 0 0 128.13 114.57
  L 122.42 114.50"
/>
<path stroke="#9b9ec8" vector-effect="non-scaling-stroke" d="
  M 169.97 114.44
  A 0.65 0.65 0.0 0 1 169.38 114.01
  L 167.40 108.45
  A 0.65 0.65 0.0 0 0 166.18 108.45
  L 164.18 114.00
  A 0.65 0.65 0.0 0 1 163.58 114.43
  L 157.68 114.60
  A 0.65 0.65 0.0 0 0 157.30 115.76
  L 161.97 119.38
  A 0.65 0.65 0.0 0 1 162.19 120.07
  L 160.52 125.74
  A 0.65 0.65 0.0 0 0 161.51 126.46
  L 166.40 123.14
  A 0.65 0.65 0.0 0 1 167.13 123.14
  L 172.00 126.48
  A 0.65 0.65 0.0 0 0 172.99 125.76
  L 171.34 120.09
  A 0.65 0.65 0.0 0 1 171.57 119.39
  L 176.25 115.79
  A 0.65 0.65 0.0 0 0 175.87 114.63
  L 169.97 114.44"
/>
<path stroke="#9b9ec8" vector-effect="non-scaling-stroke" d="
  M 217.59 114.46
  A 0.73 0.73 0.0 0 1 216.92 113.97
  L 215.04 108.62
  A 0.73 0.73 0.0 0 0 213.66 108.62
  L 211.78 113.97
  A 0.73 0.73 0.0 0 1 211.11 114.46
  L 205.44 114.59
  A 0.73 0.73 0.0 0 0 205.01 115.90
  L 209.53 119.34
  A 0.73 0.73 0.0 0 1 209.78 120.13
  L 208.15 125.57
  A 0.73 0.73 0.0 0 0 209.27 126.38
  L 213.93 123.15
  A 0.73 0.73 0.0 0 1 214.77 123.15
  L 219.43 126.38
  A 0.73 0.73 0.0 0 0 220.55 125.57
  L 218.92 120.13
  A 0.73 0.73 0.0 0 1 219.17 119.34
  L 223.69 115.90
  A 0.73 0.73 0.0 0 0 223.26 114.59
  L 217.59 114.46"
/>
<path stroke="#9b9ec8" vector-effect="non-scaling-stroke" d="
  M 51.04 129.47
  A 0.73 0.73 0.0 0 1 50.37 128.98
  L 48.49 123.64
  A 0.73 0.73 0.0 0 0 47.11 123.64
  L 45.23 128.98
  A 0.73 0.73 0.0 0 1 44.56 129.47
  L 38.89 129.61
  A 0.73 0.73 0.0 0 0 38.46 130.92
  L 42.97 134.36
  A 0.73 0.73 0.0 0 1 43.22 135.15
  L 41.60 140.59
  A 0.73 0.73 0.0 0 0 42.72 141.40
  L 47.39 138.18
  A 0.73 0.73 0.0 0 1 48.21 138.18
  L 52.88 141.40
  A 0.73 0.73 0.0 0 0 54.00 140.59
  L 52.38 135.15
  A 0.73 0.73 0.0 0 1 52.63 134.36
  L 57.14 130.92
  A 0.73 0.73 0.0 0 0 56.71 129.61
  L 51.04 129.47"
/>
<path stroke="#9b9ec8" vector-effect="non-scaling-stroke" d="
  M 98.58 129.44
  A 0.65 0.65 0.0 0 1 97.99 129.01
  L 95.99 123.49
  A 0.65 0.65 0.0 0 0 94.77 123.49
  L 92.77 129.01
  A 0.65 0.65 0.0 0 1 92.18 129.44
  L 86.30 129.64
  A 0.65 0.65 0.0 0 0 85.93 130.80
  L 90.56 134.41
  A 0.65 0.65 0.0 0 1 90.79 135.11
  L 89.16 140.75
  A 0.65 0.65 0.0 0 0 90.15 141.47
  L 95.02 138.18
  A 0.65 0.65 0.0 0 1 95.74 138.18
  L 100.61 141.47
  A 0.65 0.65 0.0 0 0 101.60 140.75
  L 99.97 135.11
  A 0.65 0.65 0.0 0 1 100.20 134.41
  L 104.83 130.80
  A 0.65 0.65 0.0 0 0 104.46 129.64
  L 98.58 129.44"
/>
<path stroke="#9b9ec8" vector-effect="non-scaling-stroke" d="
  M 146.16 129.46
  A 0.65 0.65 0.0 0 1 145.57 129.03
  L 143.58 123.45
  A 0.65 0.65 0.0 0 0 142.36 123.45
  L 140.37 129.03
  A 0.65 0.65 0.0 0 1 139.78 129.46
  L 133.86 129.63
  A 0.65 0.65 0.0 0 0 133.48 130.79
  L 138.18 134.40
  A 0.65 0.65 0.0 0 1 138.40 135.10
  L 136.73 140.78
  A 0.65 0.65 0.0 0 0 137.72 141.50
  L 142.60 138.15
  A 0.65 0.65 0.0 0 1 143.34 138.15
  L 148.22 141.50
  A 0.65 0.65 0.0 0 0 149.21 140.78
  L 147.54 135.10
  A 0.65 0.65 0.0 0 1 147.76 134.40
  L 152.46 130.79
  A 0.65 0.65 0.0 0 0 152.08 129.63
  L 146.16 129.46"
/>
<path stroke="#9b9ec8" vector-effect="non-scaling-stroke" d="
  M 193.76 129.43
  A 0.65 0.65 0.0 0 1 193.17 129.00
  L 191.16 123.43
  A 0.65 0.65 0.0 0 0 189.94 123.43
  L 187.93 129.00
  A 0.65 0.65 0.0 0 1 187.34 129.43
  L 181.42 129.62
  A 0.65 0.65 0.0 0 0 181.04 130.78
  L 185.71 134.42
  A 0.65 0.65 0.0 0 1 185.94 135.11
  L 184.30 140.80
  A 0.65 0.65 0.0 0 0 185.28 141.52
  L 190.19 138.20
  A 0.65 0.65 0.0 0 1 190.91 138.20
  L 195.82 141.52
  A 0.65 0.65 0.0 0 0 196.80 140.80
  L 195.16 135.11
  A 0.65 0.65 0.0 0 1 195.39 134.42
  L 200.06 130.78
  A 0.65 0.65 0.0 0 0 199.68 129.62
  L 193.76 129.43"
/>
<path stroke="#9b9ec8" vector-effect="non-scaling-stroke" d="
  M 170.04 145.06
  A 0.77 0.77 0.0 0 1 169.33 144.54
  L 167.49 139.19
  A 0.77 0.77 0.0 0 0 166.03 139.19
  L 164.19 144.54
  A 0.77 0.77 0.0 0 1 163.48 145.06
  L 157.82 145.16
  A 0.77 0.77 0.0 0 0 157.37 146.54
  L 161.89 149.95
  A 0.77 0.77 0.0 0 1 162.16 150.79
  L 160.51 156.20
  A 0.77 0.77 0.0 0 0 161.69 157.05
  L 166.32 153.81
  A 0.77 0.77 0.0 0 1 167.20 153.81
  L 171.83 157.05
  A 0.77 0.77 0.0 0 0 173.01 156.20
  L 171.36 150.79
  A 0.77 0.77 0.0 0 1 171.63 149.95
  L 176.15 146.54
  A 0.77 0.77 0.0 0 0 175.70 145.16
  L 170.04 145.06"
/>
<path stroke="#9b9ec8" vector-effect="non-scaling-stroke" d="
  M 27.27 145.12
  A 0.76 0.76 0.0 0 1 26.56 144.61
  L 24.75 139.21
  A 0.76 0.76 0.0 0 0 23.31 139.21
  L 21.47 144.60
  A 0.76 0.76 0.0 0 1 20.76 145.11
  L 15.07 145.17
  A 0.76 0.76 0.0 0 0 14.62 146.54
  L 19.18 149.95
  A 0.76 0.76 0.0 0 1 19.45 150.78
  L 17.75 156.22
  A 0.76 0.76 0.0 0 0 18.91 157.06
  L 23.56 153.78
  A 0.76 0.76 0.0 0 1 24.44 153.78
  L 29.08 157.08
  A 0.76 0.76 0.0 0 0 30.25 156.24
  L 28.56 150.80
  A 0.76 0.76 0.0 0 1 28.83 149.96
  L 33.41 146.57
  A 0.76 0.76 0.0 0 0 32.96 145.20
  L 27.27 145.12"
/>
<path stroke="#9b9ec8" vector-effect="non-scaling-stroke" d="
  M 74.88 145.09
  A 0.79 0.79 0.0 0 1 74.14 144.56
  L 72.33 139.20
  A 0.79 0.79 0.0 0 0 70.83 139.21
  L 69.05 144.56
  A 0.79 0.79 0.0 0 1 68.31 145.11
  L 62.66 145.17
  A 0.79 0.79 0.0 0 0 62.20 146.59
  L 66.75 149.94
  A 0.79 0.79 0.0 0 1 67.03 150.82
  L 65.34 156.20
  A 0.79 0.79 0.0 0 0 66.56 157.08
  L 71.15 153.80
  A 0.79 0.79 0.0 0 1 72.07 153.80
  L 76.67 157.07
  A 0.79 0.79 0.0 0 0 77.88 156.18
  L 76.18 150.80
  A 0.79 0.79 0.0 0 1 76.46 149.93
  L 80.99 146.56
  A 0.79 0.79 0.0 0 0 80.52 145.13
  L 74.88 145.09"
/>
<path stroke="#9b9ec8" vector-effect="non-scaling-stroke" d="
  M 122.46 145.10
  A 0.79 0.79 0.0 0 1 121.71 144.56
  L 119.92 139.18
  A 0.79 0.79 0.0 0 0 118.42 139.18
  L 116.63 144.56
  A 0.79 0.79 0.0 0 1 115.88 145.10
  L 110.21 145.14
  A 0.79 0.79 0.0 0 0 109.75 146.57
  L 114.31 149.94
  A 0.79 0.79 0.0 0 1 114.60 150.81
  L 112.88 156.22
  A 0.79 0.79 0.0 0 0 114.10 157.10
  L 118.71 153.80
  A 0.79 0.79 0.0 0 1 119.63 153.80
  L 124.24 157.10
  A 0.79 0.79 0.0 0 0 125.46 156.22
  L 123.74 150.81
  A 0.79 0.79 0.0 0 1 124.03 149.94
  L 128.59 146.57
  A 0.79 0.79 0.0 0 0 128.13 145.14
  L 122.46 145.10"
/>
<path stroke="#9b9ec8" vector-effect="non-scaling-stroke" d="
  M 217.63 145.10
  A 0.77 0.77 0.0 0 1 216.92 144.58
  L 215.10 139.24
  A 0.77 0.77 0.0 0 0 213.64 139.24
  L 211.80 144.57
  A 0.77 0.77 0.0 0 1 211.08 145.09
  L 205.44 145.17
  A 0.77 0.77 0.0 0 0 204.99 146.56
  L 209.49 149.95
  A 0.77 0.77 0.0 0 1 209.77 150.80
  L 208.10 156.18
  A 0.77 0.77 0.0 0 0 209.28 157.04
  L 213.90 153.81
  A 0.77 0.77 0.0 0 1 214.78 153.81
  L 219.39 157.06
  A 0.77 0.77 0.0 0 0 220.57 156.20
  L 218.93 150.81
  A 0.77 0.77 0.0 0 1 219.20 149.97
  L 223.72 146.59
  A 0.77 0.77 0.0 0 0 223.27 145.20
  L 217.63 145.10"
/>
<path stroke="#9b9ec8" vector-effect="non-scaling-stroke" d="
  M 51.08 160.18
  A 0.79 0.79 0.0 0 1 50.33 159.64
  L 48.55 154.25
  A 0.79 0.79 0.0 0 0 47.05 154.25
  L 45.27 159.64
  A 0.79 0.79 0.0 0 1 44.52 160.18
  L 38.84 160.21
  A 0.79 0.79 0.0 0 0 38.38 161.64
  L 42.96 165.00
  A 0.79 0.79 0.0 0 1 43.24 165.88
  L 41.52 171.28
  A 0.79 0.79 0.0 0 0 42.73 172.17
  L 47.34 168.85
  A 0.79 0.79 0.0 0 1 48.26 168.85
  L 52.87 172.17
  A 0.79 0.79 0.0 0 0 54.08 171.28
  L 52.36 165.88
  A 0.79 0.79 0.0 0 1 52.64 165.00
  L 57.22 161.64
  A 0.79 0.79 0.0 0 0 56.76 160.21
  L 51.08 160.18"
/>
<path stroke="#9b9ec8" vector-effect="non-scaling-stroke" d="
  M 98.64 160.16
  A 0.76 0.76 0.0 0 1 97.93 159.65
  L 96.10 154.29
  A 0.76 0.76 0.0 0 0 94.66 154.29
  L 92.83 159.65
  A 0.76 0.76 0.0 0 1 92.12 160.16
  L 86.47 160.25
  A 0.76 0.76 0.0 0 0 86.02 161.62
  L 90.55 165.01
  A 0.76 0.76 0.0 0 1 90.82 165.84
  L 89.15 171.25
  A 0.76 0.76 0.0 0 0 90.32 172.09
  L 94.94 168.84
  A 0.76 0.76 0.0 0 1 95.82 168.84
  L 100.44 172.09
  A 0.76 0.76 0.0 0 0 101.61 171.25
  L 99.94 165.84
  A 0.76 0.76 0.0 0 1 100.21 165.01
  L 104.74 161.62
  A 0.76 0.76 0.0 0 0 104.29 160.25
  L 98.64 160.16"
/>
<path stroke="#9b9ec8" vector-effect="non-scaling-stroke" d="
  M 146.18 160.11
  A 0.65 0.65 0.0 0 1 145.59 159.68
  L 143.58 154.18
  A 0.65 0.65 0.0 0 0 142.36 154.18
  L 140.35 159.68
  A 0.65 0.65 0.0 0 1 139.76 160.11
  L 133.92 160.32
  A 0.65 0.65 0.0 0 0 133.54 161.48
  L 138.15 165.09
  A 0.65 0.65 0.0 0 1 138.37 165.78
  L 136.76 171.40
  A 0.65 0.65 0.0 0 0 137.75 172.12
  L 142.61 168.85
  A 0.65 0.65 0.0 0 1 143.33 168.85
  L 148.19 172.12
  A 0.65 0.65 0.0 0 0 149.18 171.40
  L 147.57 165.78
  A 0.65 0.65 0.0 0 1 147.79 165.09
  L 152.40 161.48
  A 0.65 0.65 0.0 0 0 152.02 160.32
  L 146.18 160.11"
/>
<path stroke="#9b9ec8" vector-effect="non-scaling-stroke" d="
  M 193.82 160.18
  A 0.77 0.77 0.0 0 1 193.10 159.65
  L 191.29 154.28
  A 0.77 0.77 0.0 0 0 189.83 154.28
  L 188.02 159.65
  A 0.77 0.77 0.0 0 1 187.30 160.18
  L 181.63 160.24
  A 0.77 0.77 0.0 0 0 181.18 161.63
  L 185.73 165.01
  A 0.77 0.77 0.0 0 1 186.00 165.86
  L 184.31 171.27
  A 0.77 0.77 0.0 0 0 185.49 172.13
  L 190.11 168.85
  A 0.77 0.77 0.0 0 1 191.01 168.85
  L 195.63 172.13
  A 0.77 0.77 0.0 0 0 196.81 171.27
  L 195.12 165.86
  A 0.77 0.77 0.0 0 1 195.39 165.01
  L 199.94 161.63
  A 0.77 0.77 0.0 0 0 199.49 160.24
  L 193.82 160.18"
/>
<path stroke="#9b9ec8" vector-effect="non-scaling-stroke" d="
  M 27.21 175.71
  A 0.65 0.65 0.0 0 1 26.62 175.28
  L 24.61 169.72
  A 0.65 0.65 0.0 0 0 23.39 169.72
  L 21.38 175.28
  A 0.65 0.65 0.0 0 1 20.79 175.71
  L 14.88 175.90
  A 0.65 0.65 0.0 0 0 14.50 177.07
  L 19.17 180.69
  A 0.65 0.65 0.0 0 1 19.40 181.39
  L 17.75 187.07
  A 0.65 0.65 0.0 0 0 18.74 187.79
  L 23.64 184.47
  A 0.65 0.65 0.0 0 1 24.36 184.47
  L 29.26 187.79
  A 0.65 0.65 0.0 0 0 30.25 187.07
  L 28.60 181.39
  A 0.65 0.65 0.0 0 1 28.83 180.69
  L 33.50 177.07
  A 0.65 0.65 0.0 0 0 33.12 175.90
  L 27.21 175.71"
/>
<path stroke="#9b9ec8" vector-effect="non-scaling-stroke" d="
  M 74.81 175.72
  A 0.65 0.65 0.0 0 1 74.22 175.29
  L 72.22 169.72
  A 0.65 0.65 0.0 0 0 71.00 169.72
  L 68.98 175.28
  A 0.65 0.65 0.0 0 1 68.39 175.71
  L 62.47 175.89
  A 0.65 0.65 0.0 0 0 62.09 177.05
  L 66.76 180.69
  A 0.65 0.65 0.0 0 1 66.98 181.38
  L 65.33 187.06
  A 0.65 0.65 0.0 0 0 66.31 187.78
  L 71.22 184.47
  A 0.65 0.65 0.0 0 1 71.95 184.47
  L 76.84 187.80
  A 0.65 0.65 0.0 0 0 77.83 187.08
  L 76.19 181.40
  A 0.65 0.65 0.0 0 1 76.42 180.70
  L 81.10 177.08
  A 0.65 0.65 0.0 0 0 80.72 175.92
  L 74.81 175.72"
/>
<path stroke="#9b9ec8" vector-effect="non-scaling-stroke" d="
  M 122.38 175.69
  A 0.66 0.66 0.0 0 1 121.79 175.26
  L 119.78 169.75
  A 0.66 0.66 0.0 0 0 118.54 169.75
  L 116.53 175.26
  A 0.66 0.66 0.0 0 1 115.94 175.69
  L 110.08 175.90
  A 0.66 0.66 0.0 0 0 109.70 177.08
  L 114.31 180.69
  A 0.66 0.66 0.0 0 1 114.54 181.39
  L 112.93 187.02
  A 0.66 0.66 0.0 0 0 113.93 187.75
  L 118.79 184.48
  A 0.66 0.66 0.0 0 1 119.53 184.48
  L 124.39 187.75
  A 0.66 0.66 0.0 0 0 125.39 187.02
  L 123.78 181.39
  A 0.66 0.66 0.0 0 1 124.01 180.69
  L 128.62 177.08
  A 0.66 0.66 0.0 0 0 128.24 175.90
  L 122.38 175.69"
/>
<path stroke="#9b9ec8" vector-effect="non-scaling-stroke" d="
  M 169.97 175.70
  A 0.65 0.65 0.0 0 1 169.38 175.27
  L 167.37 169.69
  A 0.65 0.65 0.0 0 0 166.15 169.69
  L 164.14 175.27
  A 0.65 0.65 0.0 0 1 163.55 175.70
  L 157.62 175.89
  A 0.65 0.65 0.0 0 0 157.24 177.05
  L 161.93 180.68
  A 0.65 0.65 0.0 0 1 162.16 181.38
  L 160.50 187.08
  A 0.65 0.65 0.0 0 0 161.49 187.80
  L 166.39 184.46
  A 0.65 0.65 0.0 0 1 167.13 184.46
  L 172.03 187.80
  A 0.65 0.65 0.0 0 0 173.02 187.08
  L 171.36 181.38
  A 0.65 0.65 0.0 0 1 171.59 180.68
  L 176.28 177.05
  A 0.65 0.65 0.0 0 0 175.90 175.89
  L 169.97 175.70"
/>
<path stroke="#9b9ec8" vector-effect="non-scaling-stroke" d="
  M 217.57 175.69
  A 0.66 0.66 0.0 0 1 216.98 175.26
  L 214.97 169.76
  A 0.66 0.66 0.0 0 0 213.73 169.76
  L 211.72 175.26
  A 0.66 0.66 0.0 0 1 211.13 175.69
  L 205.28 175.90
  A 0.66 0.66 0.0 0 0 204.89 177.08
  L 209.50 180.69
  A 0.66 0.66 0.0 0 1 209.73 181.39
  L 208.12 187.02
  A 0.66 0.66 0.0 0 0 209.13 187.75
  L 213.98 184.48
  A 0.66 0.66 0.0 0 1 214.72 184.48
  L 219.57 187.75
  A 0.66 0.66 0.0 0 0 220.58 187.02
  L 218.97 181.39
  A 0.66 0.66 0.0 0 1 219.20 180.69
  L 223.81 177.08
  A 0.66 0.66 0.0 0 0 223.42 175.90
  L 217.57 175.69"
/>
<path stroke="#9b9ec8" vector-effect="non-scaling-stroke" d="
  M 51.07 190.78
  A 0.76 0.76 0.0 0 1 50.36 190.26
  L 48.52 184.91
  A 0.76 0.76 0.0 0 0 47.08 184.91
  L 45.24 190.26
  A 0.76 0.76 0.0 0 1 44.53 190.78
  L 38.87 190.87
  A 0.76 0.76 0.0 0 0 38.43 192.24
  L 42.95 195.65
  A 0.76 0.76 0.0 0 1 43.22 196.48
  L 41.56 201.89
  A 0.76 0.76 0.0 0 0 42.73 202.74
  L 47.36 199.49
  A 0.76 0.76 0.0 0 1 48.24 199.49
  L 52.87 202.74
  A 0.76 0.76 0.0 0 0 54.04 201.89
  L 52.38 196.48
  A 0.76 0.76 0.0 0 1 52.65 195.65
  L 57.17 192.24
  A 0.76 0.76 0.0 0 0 56.73 190.87
  L 51.07 190.78"
/>
<path stroke="#9b9ec8" vector-effect="non-scaling-stroke" d="
  M 98.64 190.74
  A 0.75 0.75 0.0 0 1 97.95 190.24
  L 96.09 184.92
  A 0.75 0.75 0.0 0 0 94.67 184.92
  L 92.81 190.24
  A 0.75 0.75 0.0 0 1 92.12 190.74
  L 86.48 190.87
  A 0.75 0.75 0.0 0 0 86.04 192.22
  L 90.53 195.64
  A 0.75 0.75 0.0 0 1 90.79 196.45
  L 89.17 201.85
  A 0.75 0.75 0.0 0 0 90.32 202.68
  L 94.95 199.48
  A 0.75 0.75 0.0 0 1 95.81 199.48
  L 100.44 202.68
  A 0.75 0.75 0.0 0 0 101.59 201.85
  L 99.97 196.45
  A 0.75 0.75 0.0 0 1 100.23 195.64
  L 104.72 192.22
  A 0.75 0.75 0.0 0 0 104.28 190.87
  L 98.64 190.74"
/>
<path stroke="#9b9ec8" vector-effect="non-scaling-stroke" d="
  M 146.19 190.72
  A 0.65 0.65 0.0 0 1 145.60 190.29
  L 143.59 184.73
  A 0.65 0.65 0.0 0 0 142.37 184.73
  L 140.36 190.29
  A 0.65 0.65 0.0 0 1 139.77 190.72
  L 133.86 190.91
  A 0.65 0.65 0.0 0 0 133.48 192.08
  L 138.14 195.71
  A 0.65 0.65 0.0 0 1 138.37 196.40
  L 136.73 202.08
  A 0.65 0.65 0.0 0 0 137.72 202.80
  L 142.62 199.49
  A 0.65 0.65 0.0 0 1 143.34 199.49
  L 148.24 202.80
  A 0.65 0.65 0.0 0 0 149.23 202.08
  L 147.59 196.40
  A 0.65 0.65 0.0 0 1 147.82 195.71
  L 152.48 192.08
  A 0.65 0.65 0.0 0 0 152.10 190.91
  L 146.19 190.72"
/>
<path stroke="#9b9ec8" vector-effect="non-scaling-stroke" d="
  M 193.82 190.77
  A 0.74 0.74 0.0 0 1 193.14 190.27
  L 191.28 184.88
  A 0.74 0.74 0.0 0 0 189.88 184.88
  L 188.00 190.26
  A 0.74 0.74 0.0 0 1 187.31 190.75
  L 181.62 190.86
  A 0.74 0.74 0.0 0 0 181.18 192.19
  L 185.72 195.64
  A 0.74 0.74 0.0 0 1 185.98 196.44
  L 184.32 201.90
  A 0.74 0.74 0.0 0 0 185.45 202.72
  L 190.13 199.47
  A 0.74 0.74 0.0 0 1 190.97 199.47
  L 195.65 202.74
  A 0.74 0.74 0.0 0 0 196.78 201.92
  L 195.14 196.46
  A 0.74 0.74 0.0 0 1 195.40 195.66
  L 199.95 192.22
  A 0.74 0.74 0.0 0 0 199.52 190.89
  L 193.82 190.77"
/>
<path stroke="#9b9ec8" vector-effect="non-scaling-stroke" d="
  M 27.20 206.40
  A 0.65 0.65 0.0 0 1 26.61 205.97
  L 24.61 200.47
  A 0.65 0.65 0.0 0 0 23.39 200.47
  L 21.39 205.97
  A 0.65 0.65 0.0 0 1 20.80 206.40
  L 14.96 206.60
  A 0.65 0.65 0.0 0 0 14.58 207.76
  L 19.19 211.36
  A 0.65 0.65 0.0 0 1 19.42 212.05
  L 17.80 217.67
  A 0.65 0.65 0.0 0 0 18.79 218.39
  L 23.64 215.12
  A 0.65 0.65 0.0 0 1 24.36 215.12
  L 29.21 218.39
  A 0.65 0.65 0.0 0 0 30.20 217.67
  L 28.58 212.05
  A 0.65 0.65 0.0 0 1 28.81 211.36
  L 33.42 207.76
  A 0.65 0.65 0.0 0 0 33.04 206.60
  L 27.20 206.40"
/>
<path stroke="#9b9ec8" vector-effect="non-scaling-stroke" d="
  M 74.84 206.44
  A 0.74 0.74 0.0 0 1 74.15 205.95
  L 72.30 200.60
  A 0.74 0.74 0.0 0 0 70.90 200.60
  L 69.05 205.95
  A 0.74 0.74 0.0 0 1 68.36 206.44
  L 62.70 206.55
  A 0.74 0.74 0.0 0 0 62.27 207.88
  L 66.79 211.30
  A 0.74 0.74 0.0 0 1 67.05 212.10
  L 65.40 217.52
  A 0.74 0.74 0.0 0 0 66.53 218.34
  L 71.18 215.11
  A 0.74 0.74 0.0 0 1 72.02 215.11
  L 76.67 218.34
  A 0.74 0.74 0.0 0 0 77.80 217.52
  L 76.15 212.10
  A 0.74 0.74 0.0 0 1 76.41 211.30
  L 80.93 207.88
  A 0.74 0.74 0.0 0 0 80.50 206.55
  L 74.84 206.44"
/>
<path stroke="#9b9ec8" vector-effect="non-scaling-stroke" d="
  M 122.41 206.48
  A 0.76 0.76 0.0 0 1 121.70 205.96
  L 119.89 200.58
  A 0.76 0.76 0.0 0 0 118.45 200.58
  L 116.64 205.96
  A 0.76 0.76 0.0 0 1 115.93 206.48
  L 110.25 206.53
  A 0.76 0.76 0.0 0 0 109.81 207.91
  L 114.37 211.29
  A 0.76 0.76 0.0 0 1 114.64 212.12
  L 112.94 217.54
  A 0.76 0.76 0.0 0 0 114.10 218.39
  L 118.73 215.09
  A 0.76 0.76 0.0 0 1 119.61 215.09
  L 124.24 218.39
  A 0.76 0.76 0.0 0 0 125.40 217.54
  L 123.70 212.12
  A 0.76 0.76 0.0 0 1 123.97 211.29
  L 128.53 207.91
  A 0.76 0.76 0.0 0 0 128.09 206.53
  L 122.41 206.48"
/>
<path stroke="#9b9ec8" vector-effect="non-scaling-stroke" d="
  M 170.05 206.49
  A 0.83 0.83 0.0 0 1 169.27 205.91
  L 167.55 200.65
  A 0.83 0.83 0.0 0 0 165.97 200.65
  L 164.25 205.91
  A 0.83 0.83 0.0 0 1 163.47 206.49
  L 157.93 206.49
  A 0.83 0.83 0.0 0 0 157.44 207.99
  L 161.92 211.25
  A 0.83 0.83 0.0 0 1 162.22 212.18
  L 160.51 217.44
  A 0.83 0.83 0.0 0 0 161.79 218.37
  L 166.27 215.12
  A 0.83 0.83 0.0 0 1 167.25 215.12
  L 171.73 218.37
  A 0.83 0.83 0.0 0 0 173.01 217.44
  L 171.30 212.18
  A 0.83 0.83 0.0 0 1 171.60 211.25
  L 176.08 207.99
  A 0.83 0.83 0.0 0 0 175.59 206.49
  L 170.05 206.49"
/>
<path stroke="#9b9ec8" vector-effect="non-scaling-stroke" d="
  M 217.57 206.36
  A 0.66 0.66 0.0 0 1 216.97 205.92
  L 214.96 200.41
  A 0.66 0.66 0.0 0 0 213.72 200.41
  L 211.71 205.92
  A 0.66 0.66 0.0 0 1 211.11 206.36
  L 205.24 206.56
  A 0.66 0.66 0.0 0 0 204.86 207.74
  L 209.49 211.36
  A 0.66 0.66 0.0 0 1 209.72 212.06
  L 208.10 217.71
  A 0.66 0.66 0.0 0 0 209.10 218.43
  L 213.97 215.15
  A 0.66 0.66 0.0 0 1 214.71 215.15
  L 219.58 218.43
  A 0.66 0.66 0.0 0 0 220.58 217.71
  L 218.96 212.06
  A 0.66 0.66 0.0 0 1 219.19 211.36
  L 223.82 207.74
  A 0.66 0.66 0.0 0 0 223.44 206.56
  L 217.57 206.36"
/>
<path stroke="#9b9ec8" vector-effect="non-scaling-stroke" d="
  M 51.03 221.44
  A 0.72 0.72 0.0 0 1 50.38 220.96
  L 48.47 215.60
  A 0.72 0.72 0.0 0 0 47.11 215.60
  L 45.20 220.96
  A 0.72 0.72 0.0 0 1 44.55 221.44
  L 38.86 221.60
  A 0.72 0.72 0.0 0 0 38.44 222.89
  L 42.95 226.36
  A 0.72 0.72 0.0 0 1 43.20 227.13
  L 41.60 232.58
  A 0.72 0.72 0.0 0 0 42.69 233.38
  L 47.38 230.17
  A 0.72 0.72 0.0 0 1 48.20 230.17
  L 52.89 233.38
  A 0.72 0.72 0.0 0 0 53.98 232.58
  L 52.38 227.13
  A 0.72 0.72 0.0 0 1 52.63 226.36
  L 57.14 222.89
  A 0.72 0.72 0.0 0 0 56.72 221.60
  L 51.03 221.44"
/>
<path stroke="#9b9ec8" vector-effect="non-scaling-stroke" d="
  M 98.65 221.42
  A 0.73 0.73 0.0 0 1 97.99 220.93
  L 96.08 215.64
  A 0.73 0.73 0.0 0 0 94.70 215.64
  L 92.79 220.93
  A 0.73 0.73 0.0 0 1 92.13 221.42
  L 86.50 221.60
  A 0.73 0.73 0.0 0 0 86.08 222.91
  L 90.52 226.36
  A 0.73 0.73 0.0 0 1 90.77 227.14
  L 89.21 232.55
  A 0.73 0.73 0.0 0 0 90.32 233.36
  L 94.98 230.20
  A 0.73 0.73 0.0 0 1 95.80 230.20
  L 100.46 233.36
  A 0.73 0.73 0.0 0 0 101.57 232.55
  L 100.01 227.14
  A 0.73 0.73 0.0 0 1 100.26 226.36
  L 104.70 222.91
  A 0.73 0.73 0.0 0 0 104.28 221.60
  L 98.65 221.42"
/>
<path stroke="#9b9ec8" vector-effect="non-scaling-stroke" d="
  M 146.21 221.44
  A 0.72 0.72 0.0 0 1 145.55 220.96
  L 143.65 215.58
  A 0.72 0.72 0.0 0 0 142.29 215.58
  L 140.39 220.96
  A 0.72 0.72 0.0 0 1 139.73 221.44
  L 134.02 221.59
  A 0.72 0.72 0.0 0 0 133.60 222.88
  L 138.14 226.35
  A 0.72 0.72 0.0 0 1 138.39 227.13
  L 136.76 232.60
  A 0.72 0.72 0.0 0 0 137.86 233.40
  L 142.56 230.16
  A 0.72 0.72 0.0 0 1 143.38 230.16
  L 148.08 233.40
  A 0.72 0.72 0.0 0 0 149.18 232.60
  L 147.55 227.13
  A 0.72 0.72 0.0 0 1 147.80 226.35
  L 152.34 222.88
  A 0.72 0.72 0.0 0 0 151.92 221.59
  L 146.21 221.44"
/>
<path stroke="#9b9ec8" vector-effect="non-scaling-stroke" d="
  M 193.80 221.44
  A 0.72 0.72 0.0 0 1 193.15 220.96
  L 191.24 215.62
  A 0.72 0.72 0.0 0 0 189.88 215.62
  L 187.97 220.96
  A 0.72 0.72 0.0 0 1 187.32 221.44
  L 181.65 221.60
  A 0.72 0.72 0.0 0 0 181.23 222.89
  L 185.72 226.36
  A 0.72 0.72 0.0 0 1 185.97 227.13
  L 184.37 232.57
  A 0.72 0.72 0.0 0 0 185.47 233.37
  L 190.15 230.17
  A 0.72 0.72 0.0 0 1 190.97 230.17
  L 195.65 233.37
  A 0.72 0.72 0.0 0 0 196.75 232.57
  L 195.15 227.13
  A 0.72 0.72 0.0 0 1 195.40 226.36
  L 199.89 222.89
  A 0.72 0.72 0.0 0 0 199.47 221.60
  L 193.80 221.44"
/>
<path stroke="#9b9ec8" vector-effect="non-scaling-stroke" d="
  M 122.44 237.07
  A 0.76 0.76 0.0 0 1 121.73 236.55
  L 119.89 231.19
  A 0.76 0.76 0.0 0 0 118.45 231.19
  L 116.61 236.55
  A 0.76 0.76 0.0 0 1 115.90 237.07
  L 110.23 237.16
  A 0.76 0.76 0.0 0 0 109.79 238.53
  L 114.32 241.94
  A 0.76 0.76 0.0 0 1 114.59 242.77
  L 112.93 248.19
  A 0.76 0.76 0.0 0 0 114.09 249.04
  L 118.73 245.78
  A 0.76 0.76 0.0 0 1 119.61 245.78
  L 124.25 249.04
  A 0.76 0.76 0.0 0 0 125.41 248.19
  L 123.75 242.77
  A 0.76 0.76 0.0 0 1 124.02 241.94
  L 128.55 238.53
  A 0.76 0.76 0.0 0 0 128.11 237.16
  L 122.44 237.07"
/>
<path stroke="#9b9ec8" vector-effect="non-scaling-stroke" d="
  M 170.03 237.05
  A 0.76 0.76 0.0 0 1 169.32 236.53
  L 167.48 231.15
  A 0.76 0.76 0.0 0 0 166.04 231.15
  L 164.20 236.53
  A 0.76 0.76 0.0 0 1 163.49 237.05
  L 157.81 237.13
  A 0.76 0.76 0.0 0 0 157.36 238.50
  L 161.91 241.92
  A 0.76 0.76 0.0 0 1 162.18 242.75
  L 160.51 248.18
  A 0.76 0.76 0.0 0 0 161.67 249.03
  L 166.32 245.76
  A 0.76 0.76 0.0 0 1 167.20 245.76
  L 171.85 249.03
  A 0.76 0.76 0.0 0 0 173.01 248.18
  L 171.34 242.75
  A 0.76 0.76 0.0 0 1 171.61 241.92
  L 176.16 238.50
  A 0.76 0.76 0.0 0 0 175.71 237.13
  L 170.03 237.05"
/>
<path stroke="#9b9ec8" vector-effect="non-scaling-stroke" d="
  M 27.26 237.10
  A 0.76 0.76 0.0 0 1 26.55 236.59
  L 24.72 231.21
  A 0.76 0.76 0.0 0 0 23.28 231.21
  L 21.45 236.59
  A 0.76 0.76 0.0 0 1 20.74 237.10
  L 15.07 237.18
  A 0.76 0.76 0.0 0 0 14.62 238.55
  L 19.17 241.95
  A 0.76 0.76 0.0 0 1 19.44 242.78
  L 17.76 248.21
  A 0.76 0.76 0.0 0 0 18.92 249.05
  L 23.56 245.78
  A 0.76 0.76 0.0 0 1 24.44 245.78
  L 29.08 249.05
  A 0.76 0.76 0.0 0 0 30.24 248.21
  L 28.56 242.78
  A 0.76 0.76 0.0 0 1 28.83 241.95
  L 33.38 238.55
  A 0.76 0.76 0.0 0 0 32.93 237.18
  L 27.26 237.10"
/>
<path stroke="#9b9ec8" vector-effect="non-scaling-stroke" d="
  M 74.87 237.00
  A 0.76 0.76 0.0 0 1 74.18 236.50
  L 72.31 231.23
  A 0.76 0.76 0.0 0 0 70.87 231.23
  L 69.00 236.50
  A 0.76 0.76 0.0 0 1 68.31 237.00
  L 62.72 237.16
  A 0.76 0.76 0.0 0 0 62.28 238.52
  L 66.71 241.92
  A 0.76 0.76 0.0 0 1 66.97 242.74
  L 65.39 248.10
  A 0.76 0.76 0.0 0 0 66.55 248.94
  L 71.16 245.78
  A 0.76 0.76 0.0 0 1 72.02 245.78
  L 76.63 248.94
  A 0.76 0.76 0.0 0 0 77.79 248.10
  L 76.21 242.74
  A 0.76 0.76 0.0 0 1 76.47 241.92
  L 80.90 238.52
  A 0.76 0.76 0.0 0 0 80.46 237.16
  L 74.87 237.00"
/>
<path stroke="#9b9ec8" vector-effect="non-scaling-stroke" d="
  M 217.64 237.08
  A 0.79 0.79 0.0 0 1 216.89 236.54
  L 215.10 231.17
  A 0.79 0.79 0.0 0 0 213.60 231.17
  L 211.81 236.54
  A 0.79 0.79 0.0 0 1 211.06 237.08
  L 205.40 237.12
  A 0.79 0.79 0.0 0 0 204.94 238.55
  L 209.49 241.92
  A 0.79 0.79 0.0 0 1 209.78 242.79
  L 208.07 248.19
  A 0.79 0.79 0.0 0 0 209.28 249.07
  L 213.89 245.78
  A 0.79 0.79 0.0 0 1 214.81 245.78
  L 219.42 249.07
  A 0.79 0.79 0.0 0 0 220.63 248.19
  L 218.92 242.79
  A 0.79 0.79 0.0 0 1 219.21 241.92
  L 223.76 238.55
  A 0.79 0.79 0.0 0 0 223.30 237.12
  L 217.64 237.08"
/>
<path stroke="#b24b76" vector-effect="non-scaling-stroke" d="
  M 232.00 88.04
  Q 231.20 88.61 232.00 88.96"
/>
<path stroke="#faa0a5" vector-effect="non-scaling-stroke" d="
  M 509.94 113.91
  L 238.54 114.00"
/>
<path stroke="#faa0a5" vector-effect="non-scaling-stroke" d="
  M 512.00 139.81
  L 238.48 139.79"
/>
<path stroke="#faa0a5" vector-effect="non-scaling-stroke" d="
  M 512.00 165.56
  L 238.51 165.65"
/>
<path stroke="#faa0a5" vector-effect="non-scaling-stroke" d="
  M 512.00 191.56
  L 238.29 191.50"
/>
<path stroke="#faa0a5" vector-effect="non-scaling-stroke" d="
  M 512.00 217.06
  L 238.54 217.25"
/>
<path stroke="#faa0a5" vector-effect="non-scaling-stroke" d="
  M 512.00 243.06
  L 238.47 243.05"
/>
<path stroke="#faa0a5" vector-effect="non-scaling-stroke" d="
  M 512.00 268.81
  L 231.75 268.90"
/>
<path stroke="#faa0a5" vector-effect="non-scaling-stroke" d="
  M 512.00 294.81
  L 0.00 294.69"
/>
<path stroke="#faa0a5" vector-effect="non-scaling-stroke" d="
  M 512.00 320.56
  L 0.00 320.44"
/>
<path stroke="#faa0a5" vector-effect="non-scaling-stroke" d="
  M 512.00 346.27
  L 0.00 346.19"
/>
<path stroke="#faa0a5" vector-effect="non-scaling-stroke" d="
  M 512.00 372.06
  L 0.00 372.16"
/>
<path stroke="#faa0a5" vector-effect="non-scaling-stroke" d="
  M 509.72 398.09
  L 2.08 398.08"
/>
</g>
<path fill="#41479b" d="
  M 36.00 88.04
  L 36.07 88.34
  A 0.81 0.81 0.0 0 0 36.85 88.94
  L 232.00 88.96
  C 237.34 90.46 238.24 94.08 238.23 99.46
  Q 238.21 106.73 238.54 114.00
  Q 237.86 127.10 238.48 139.79
  Q 237.89 152.74 238.51 165.65
  L 238.29 191.50
  L 238.54 217.25
  Q 237.86 230.35 238.47 243.05
  C 238.25 248.29 239.44 260.23 237.07 264.36
  Q 235.36 267.33 231.75 268.90
  C 229.94 268.68 227.87 269.00 226.41 269.00
  Q 119.05 269.01 11.70 268.99
  Q 7.18 268.99 5.09 268.02
  Q 1.91 266.53 0.03 263.17
  L 0.00 122.19
  C 2.71 103.29 16.81 89.90 36.00 88.04
  Z
  M 27.19 114.44
  A 0.65 0.65 0.0 0 1 26.60 114.01
  L 24.61 108.43
  A 0.65 0.65 0.0 0 0 23.39 108.43
  L 21.40 114.01
  A 0.65 0.65 0.0 0 1 20.81 114.44
  L 14.89 114.61
  A 0.65 0.65 0.0 0 0 14.51 115.77
  L 19.20 119.38
  A 0.65 0.65 0.0 0 1 19.42 120.08
  L 17.76 125.76
  A 0.65 0.65 0.0 0 0 18.75 126.48
  L 23.63 123.14
  A 0.65 0.65 0.0 0 1 24.37 123.14
  L 29.25 126.48
  A 0.65 0.65 0.0 0 0 30.24 125.76
  L 28.58 120.08
  A 0.65 0.65 0.0 0 1 28.80 119.38
  L 33.49 115.77
  A 0.65 0.65 0.0 0 0 33.11 114.61
  L 27.19 114.44
  Z
  M 74.84 114.47
  A 0.74 0.74 0.0 0 1 74.15 113.98
  L 72.30 108.61
  A 0.74 0.74 0.0 0 0 70.90 108.61
  L 69.05 113.98
  A 0.74 0.74 0.0 0 1 68.36 114.47
  L 62.68 114.58
  A 0.74 0.74 0.0 0 0 62.25 115.91
  L 66.78 119.33
  A 0.74 0.74 0.0 0 1 67.05 120.14
  L 65.39 125.57
  A 0.74 0.74 0.0 0 0 66.52 126.39
  L 71.18 123.14
  A 0.74 0.74 0.0 0 1 72.02 123.14
  L 76.68 126.39
  A 0.74 0.74 0.0 0 0 77.81 125.57
  L 76.15 120.14
  A 0.74 0.74 0.0 0 1 76.42 119.33
  L 80.95 115.91
  A 0.74 0.74 0.0 0 0 80.52 114.58
  L 74.84 114.47
  Z
  M 122.42 114.50
  A 0.75 0.75 0.0 0 1 121.72 113.99
  L 119.91 108.58
  A 0.75 0.75 0.0 0 0 118.49 108.58
  L 116.65 113.98
  A 0.75 0.75 0.0 0 1 115.95 114.49
  L 110.25 114.54
  A 0.75 0.75 0.0 0 0 109.80 115.89
  L 114.38 119.31
  A 0.75 0.75 0.0 0 1 114.64 120.13
  L 112.93 125.57
  A 0.75 0.75 0.0 0 0 114.08 126.41
  L 118.74 123.12
  A 0.75 0.75 0.0 0 1 119.61 123.12
  L 124.25 126.43
  A 0.75 0.75 0.0 0 0 125.40 125.60
  L 123.71 120.15
  A 0.75 0.75 0.0 0 1 123.98 119.32
  L 128.56 115.93
  A 0.75 0.75 0.0 0 0 128.13 114.57
  L 122.42 114.50
  Z
  M 169.97 114.44
  A 0.65 0.65 0.0 0 1 169.38 114.01
  L 167.40 108.45
  A 0.65 0.65 0.0 0 0 166.18 108.45
  L 164.18 114.00
  A 0.65 0.65 0.0 0 1 163.58 114.43
  L 157.68 114.60
  A 0.65 0.65 0.0 0 0 157.30 115.76
  L 161.97 119.38
  A 0.65 0.65 0.0 0 1 162.19 120.07
  L 160.52 125.74
  A 0.65 0.65 0.0 0 0 161.51 126.46
  L 166.40 123.14
  A 0.65 0.65 0.0 0 1 167.13 123.14
  L 172.00 126.48
  A 0.65 0.65 0.0 0 0 172.99 125.76
  L 171.34 120.09
  A 0.65 0.65 0.0 0 1 171.57 119.39
  L 176.25 115.79
  A 0.65 0.65 0.0 0 0 175.87 114.63
  L 169.97 114.44
  Z
  M 217.59 114.46
  A 0.73 0.73 0.0 0 1 216.92 113.97
  L 215.04 108.62
  A 0.73 0.73 0.0 0 0 213.66 108.62
  L 211.78 113.97
  A 0.73 0.73 0.0 0 1 211.11 114.46
  L 205.44 114.59
  A 0.73 0.73 0.0 0 0 205.01 115.90
  L 209.53 119.34
  A 0.73 0.73 0.0 0 1 209.78 120.13
  L 208.15 125.57
  A 0.73 0.73 0.0 0 0 209.27 126.38
  L 213.93 123.15
  A 0.73 0.73 0.0 0 1 214.77 123.15
  L 219.43 126.38
  A 0.73 0.73 0.0 0 0 220.55 125.57
  L 218.92 120.13
  A 0.73 0.73 0.0 0 1 219.17 119.34
  L 223.69 115.90
  A 0.73 0.73 0.0 0 0 223.26 114.59
  L 217.59 114.46
  Z
  M 51.04 129.47
  A 0.73 0.73 0.0 0 1 50.37 128.98
  L 48.49 123.64
  A 0.73 0.73 0.0 0 0 47.11 123.64
  L 45.23 128.98
  A 0.73 0.73 0.0 0 1 44.56 129.47
  L 38.89 129.61
  A 0.73 0.73 0.0 0 0 38.46 130.92
  L 42.97 134.36
  A 0.73 0.73 0.0 0 1 43.22 135.15
  L 41.60 140.59
  A 0.73 0.73 0.0 0 0 42.72 141.40
  L 47.39 138.18
  A 0.73 0.73 0.0 0 1 48.21 138.18
  L 52.88 141.40
  A 0.73 0.73 0.0 0 0 54.00 140.59
  L 52.38 135.15
  A 0.73 0.73 0.0 0 1 52.63 134.36
  L 57.14 130.92
  A 0.73 0.73 0.0 0 0 56.71 129.61
  L 51.04 129.47
  Z
  M 98.58 129.44
  A 0.65 0.65 0.0 0 1 97.99 129.01
  L 95.99 123.49
  A 0.65 0.65 0.0 0 0 94.77 123.49
  L 92.77 129.01
  A 0.65 0.65 0.0 0 1 92.18 129.44
  L 86.30 129.64
  A 0.65 0.65 0.0 0 0 85.93 130.80
  L 90.56 134.41
  A 0.65 0.65 0.0 0 1 90.79 135.11
  L 89.16 140.75
  A 0.65 0.65 0.0 0 0 90.15 141.47
  L 95.02 138.18
  A 0.65 0.65 0.0 0 1 95.74 138.18
  L 100.61 141.47
  A 0.65 0.65 0.0 0 0 101.60 140.75
  L 99.97 135.11
  A 0.65 0.65 0.0 0 1 100.20 134.41
  L 104.83 130.80
  A 0.65 0.65 0.0 0 0 104.46 129.64
  L 98.58 129.44
  Z
  M 146.16 129.46
  A 0.65 0.65 0.0 0 1 145.57 129.03
  L 143.58 123.45
  A 0.65 0.65 0.0 0 0 142.36 123.45
  L 140.37 129.03
  A 0.65 0.65 0.0 0 1 139.78 129.46
  L 133.86 129.63
  A 0.65 0.65 0.0 0 0 133.48 130.79
  L 138.18 134.40
  A 0.65 0.65 0.0 0 1 138.40 135.10
  L 136.73 140.78
  A 0.65 0.65 0.0 0 0 137.72 141.50
  L 142.60 138.15
  A 0.65 0.65 0.0 0 1 143.34 138.15
  L 148.22 141.50
  A 0.65 0.65 0.0 0 0 149.21 140.78
  L 147.54 135.10
  A 0.65 0.65 0.0 0 1 147.76 134.40
  L 152.46 130.79
  A 0.65 0.65 0.0 0 0 152.08 129.63
  L 146.16 129.46
  Z
  M 193.76 129.43
  A 0.65 0.65 0.0 0 1 193.17 129.00
  L 191.16 123.43
  A 0.65 0.65 0.0 0 0 189.94 123.43
  L 187.93 129.00
  A 0.65 0.65 0.0 0 1 187.34 129.43
  L 181.42 129.62
  A 0.65 0.65 0.0 0 0 181.04 130.78
  L 185.71 134.42
  A 0.65 0.65 0.0 0 1 185.94 135.11
  L 184.30 140.80
  A 0.65 0.65 0.0 0 0 185.28 141.52
  L 190.19 138.20
  A 0.65 0.65 0.0 0 1 190.91 138.20
  L 195.82 141.52
  A 0.65 0.65 0.0 0 0 196.80 140.80
  L 195.16 135.11
  A 0.65 0.65 0.0 0 1 195.39 134.42
  L 200.06 130.78
  A 0.65 0.65 0.0 0 0 199.68 129.62
  L 193.76 129.43
  Z
  M 170.04 145.06
  A 0.77 0.77 0.0 0 1 169.33 144.54
  L 167.49 139.19
  A 0.77 0.77 0.0 0 0 166.03 139.19
  L 164.19 144.54
  A 0.77 0.77 0.0 0 1 163.48 145.06
  L 157.82 145.16
  A 0.77 0.77 0.0 0 0 157.37 146.54
  L 161.89 149.95
  A 0.77 0.77 0.0 0 1 162.16 150.79
  L 160.51 156.20
  A 0.77 0.77 0.0 0 0 161.69 157.05
  L 166.32 153.81
  A 0.77 0.77 0.0 0 1 167.20 153.81
  L 171.83 157.05
  A 0.77 0.77 0.0 0 0 173.01 156.20
  L 171.36 150.79
  A 0.77 0.77 0.0 0 1 171.63 149.95
  L 176.15 146.54
  A 0.77 0.77 0.0 0 0 175.70 145.16
  L 170.04 145.06
  Z
  M 27.27 145.12
  A 0.76 0.76 0.0 0 1 26.56 144.61
  L 24.75 139.21
  A 0.76 0.76 0.0 0 0 23.31 139.21
  L 21.47 144.60
  A 0.76 0.76 0.0 0 1 20.76 145.11
  L 15.07 145.17
  A 0.76 0.76 0.0 0 0 14.62 146.54
  L 19.18 149.95
  A 0.76 0.76 0.0 0 1 19.45 150.78
  L 17.75 156.22
  A 0.76 0.76 0.0 0 0 18.91 157.06
  L 23.56 153.78
  A 0.76 0.76 0.0 0 1 24.44 153.78
  L 29.08 157.08
  A 0.76 0.76 0.0 0 0 30.25 156.24
  L 28.56 150.80
  A 0.76 0.76 0.0 0 1 28.83 149.96
  L 33.41 146.57
  A 0.76 0.76 0.0 0 0 32.96 145.20
  L 27.27 145.12
  Z
  M 74.88 145.09
  A 0.79 0.79 0.0 0 1 74.14 144.56
  L 72.33 139.20
  A 0.79 0.79 0.0 0 0 70.83 139.21
  L 69.05 144.56
  A 0.79 0.79 0.0 0 1 68.31 145.11
  L 62.66 145.17
  A 0.79 0.79 0.0 0 0 62.20 146.59
  L 66.75 149.94
  A 0.79 0.79 0.0 0 1 67.03 150.82
  L 65.34 156.20
  A 0.79 0.79 0.0 0 0 66.56 157.08
  L 71.15 153.80
  A 0.79 0.79 0.0 0 1 72.07 153.80
  L 76.67 157.07
  A 0.79 0.79 0.0 0 0 77.88 156.18
  L 76.18 150.80
  A 0.79 0.79 0.0 0 1 76.46 149.93
  L 80.99 146.56
  A 0.79 0.79 0.0 0 0 80.52 145.13
  L 74.88 145.09
  Z
  M 122.46 145.10
  A 0.79 0.79 0.0 0 1 121.71 144.56
  L 119.92 139.18
  A 0.79 0.79 0.0 0 0 118.42 139.18
  L 116.63 144.56
  A 0.79 0.79 0.0 0 1 115.88 145.10
  L 110.21 145.14
  A 0.79 0.79 0.0 0 0 109.75 146.57
  L 114.31 149.94
  A 0.79 0.79 0.0 0 1 114.60 150.81
  L 112.88 156.22
  A 0.79 0.79 0.0 0 0 114.10 157.10
  L 118.71 153.80
  A 0.79 0.79 0.0 0 1 119.63 153.80
  L 124.24 157.10
  A 0.79 0.79 0.0 0 0 125.46 156.22
  L 123.74 150.81
  A 0.79 0.79 0.0 0 1 124.03 149.94
  L 128.59 146.57
  A 0.79 0.79 0.0 0 0 128.13 145.14
  L 122.46 145.10
  Z
  M 217.63 145.10
  A 0.77 0.77 0.0 0 1 216.92 144.58
  L 215.10 139.24
  A 0.77 0.77 0.0 0 0 213.64 139.24
  L 211.80 144.57
  A 0.77 0.77 0.0 0 1 211.08 145.09
  L 205.44 145.17
  A 0.77 0.77 0.0 0 0 204.99 146.56
  L 209.49 149.95
  A 0.77 0.77 0.0 0 1 209.77 150.80
  L 208.10 156.18
  A 0.77 0.77 0.0 0 0 209.28 157.04
  L 213.90 153.81
  A 0.77 0.77 0.0 0 1 214.78 153.81
  L 219.39 157.06
  A 0.77 0.77 0.0 0 0 220.57 156.20
  L 218.93 150.81
  A 0.77 0.77 0.0 0 1 219.20 149.97
  L 223.72 146.59
  A 0.77 0.77 0.0 0 0 223.27 145.20
  L 217.63 145.10
  Z
  M 51.08 160.18
  A 0.79 0.79 0.0 0 1 50.33 159.64
  L 48.55 154.25
  A 0.79 0.79 0.0 0 0 47.05 154.25
  L 45.27 159.64
  A 0.79 0.79 0.0 0 1 44.52 160.18
  L 38.84 160.21
  A 0.79 0.79 0.0 0 0 38.38 161.64
  L 42.96 165.00
  A 0.79 0.79 0.0 0 1 43.24 165.88
  L 41.52 171.28
  A 0.79 0.79 0.0 0 0 42.73 172.17
  L 47.34 168.85
  A 0.79 0.79 0.0 0 1 48.26 168.85
  L 52.87 172.17
  A 0.79 0.79 0.0 0 0 54.08 171.28
  L 52.36 165.88
  A 0.79 0.79 0.0 0 1 52.64 165.00
  L 57.22 161.64
  A 0.79 0.79 0.0 0 0 56.76 160.21
  L 51.08 160.18
  Z
  M 98.64 160.16
  A 0.76 0.76 0.0 0 1 97.93 159.65
  L 96.10 154.29
  A 0.76 0.76 0.0 0 0 94.66 154.29
  L 92.83 159.65
  A 0.76 0.76 0.0 0 1 92.12 160.16
  L 86.47 160.25
  A 0.76 0.76 0.0 0 0 86.02 161.62
  L 90.55 165.01
  A 0.76 0.76 0.0 0 1 90.82 165.84
  L 89.15 171.25
  A 0.76 0.76 0.0 0 0 90.32 172.09
  L 94.94 168.84
  A 0.76 0.76 0.0 0 1 95.82 168.84
  L 100.44 172.09
  A 0.76 0.76 0.0 0 0 101.61 171.25
  L 99.94 165.84
  A 0.76 0.76 0.0 0 1 100.21 165.01
  L 104.74 161.62
  A 0.76 0.76 0.0 0 0 104.29 160.25
  L 98.64 160.16
  Z
  M 146.18 160.11
  A 0.65 0.65 0.0 0 1 145.59 159.68
  L 143.58 154.18
  A 0.65 0.65 0.0 0 0 142.36 154.18
  L 140.35 159.68
  A 0.65 0.65 0.0 0 1 139.76 160.11
  L 133.92 160.32
  A 0.65 0.65 0.0 0 0 133.54 161.48
  L 138.15 165.09
  A 0.65 0.65 0.0 0 1 138.37 165.78
  L 136.76 171.40
  A 0.65 0.65 0.0 0 0 137.75 172.12
  L 142.61 168.85
  A 0.65 0.65 0.0 0 1 143.33 168.85
  L 148.19 172.12
  A 0.65 0.65 0.0 0 0 149.18 171.40
  L 147.57 165.78
  A 0.65 0.65 0.0 0 1 147.79 165.09
  L 152.40 161.48
  A 0.65 0.65 0.0 0 0 152.02 160.32
  L 146.18 160.11
  Z
  M 193.82 160.18
  A 0.77 0.77 0.0 0 1 193.10 159.65
  L 191.29 154.28
  A 0.77 0.77 0.0 0 0 189.83 154.28
  L 188.02 159.65
  A 0.77 0.77 0.0 0 1 187.30 160.18
  L 181.63 160.24
  A 0.77 0.77 0.0 0 0 181.18 161.63
  L 185.73 165.01
  A 0.77 0.77 0.0 0 1 186.00 165.86
  L 184.31 171.27
  A 0.77 0.77 0.0 0 0 185.49 172.13
  L 190.11 168.85
  A 0.77 0.77 0.0 0 1 191.01 168.85
  L 195.63 172.13
  A 0.77 0.77 0.0 0 0 196.81 171.27
  L 195.12 165.86
  A 0.77 0.77 0.0 0 1 195.39 165.01
  L 199.94 161.63
  A 0.77 0.77 0.0 0 0 199.49 160.24
  L 193.82 160.18
  Z
  M 27.21 175.71
  A 0.65 0.65 0.0 0 1 26.62 175.28
  L 24.61 169.72
  A 0.65 0.65 0.0 0 0 23.39 169.72
  L 21.38 175.28
  A 0.65 0.65 0.0 0 1 20.79 175.71
  L 14.88 175.90
  A 0.65 0.65 0.0 0 0 14.50 177.07
  L 19.17 180.69
  A 0.65 0.65 0.0 0 1 19.40 181.39
  L 17.75 187.07
  A 0.65 0.65 0.0 0 0 18.74 187.79
  L 23.64 184.47
  A 0.65 0.65 0.0 0 1 24.36 184.47
  L 29.26 187.79
  A 0.65 0.65 0.0 0 0 30.25 187.07
  L 28.60 181.39
  A 0.65 0.65 0.0 0 1 28.83 180.69
  L 33.50 177.07
  A 0.65 0.65 0.0 0 0 33.12 175.90
  L 27.21 175.71
  Z
  M 74.81 175.72
  A 0.65 0.65 0.0 0 1 74.22 175.29
  L 72.22 169.72
  A 0.65 0.65 0.0 0 0 71.00 169.72
  L 68.98 175.28
  A 0.65 0.65 0.0 0 1 68.39 175.71
  L 62.47 175.89
  A 0.65 0.65 0.0 0 0 62.09 177.05
  L 66.76 180.69
  A 0.65 0.65 0.0 0 1 66.98 181.38
  L 65.33 187.06
  A 0.65 0.65 0.0 0 0 66.31 187.78
  L 71.22 184.47
  A 0.65 0.65 0.0 0 1 71.95 184.47
  L 76.84 187.80
  A 0.65 0.65 0.0 0 0 77.83 187.08
  L 76.19 181.40
  A 0.65 0.65 0.0 0 1 76.42 180.70
  L 81.10 177.08
  A 0.65 0.65 0.0 0 0 80.72 175.92
  L 74.81 175.72
  Z
  M 122.38 175.69
  A 0.66 0.66 0.0 0 1 121.79 175.26
  L 119.78 169.75
  A 0.66 0.66 0.0 0 0 118.54 169.75
  L 116.53 175.26
  A 0.66 0.66 0.0 0 1 115.94 175.69
  L 110.08 175.90
  A 0.66 0.66 0.0 0 0 109.70 177.08
  L 114.31 180.69
  A 0.66 0.66 0.0 0 1 114.54 181.39
  L 112.93 187.02
  A 0.66 0.66 0.0 0 0 113.93 187.75
  L 118.79 184.48
  A 0.66 0.66 0.0 0 1 119.53 184.48
  L 124.39 187.75
  A 0.66 0.66 0.0 0 0 125.39 187.02
  L 123.78 181.39
  A 0.66 0.66 0.0 0 1 124.01 180.69
  L 128.62 177.08
  A 0.66 0.66 0.0 0 0 128.24 175.90
  L 122.38 175.69
  Z
  M 169.97 175.70
  A 0.65 0.65 0.0 0 1 169.38 175.27
  L 167.37 169.69
  A 0.65 0.65 0.0 0 0 166.15 169.69
  L 164.14 175.27
  A 0.65 0.65 0.0 0 1 163.55 175.70
  L 157.62 175.89
  A 0.65 0.65 0.0 0 0 157.24 177.05
  L 161.93 180.68
  A 0.65 0.65 0.0 0 1 162.16 181.38
  L 160.50 187.08
  A 0.65 0.65 0.0 0 0 161.49 187.80
  L 166.39 184.46
  A 0.65 0.65 0.0 0 1 167.13 184.46
  L 172.03 187.80
  A 0.65 0.65 0.0 0 0 173.02 187.08
  L 171.36 181.38
  A 0.65 0.65 0.0 0 1 171.59 180.68
  L 176.28 177.05
  A 0.65 0.65 0.0 0 0 175.90 175.89
  L 169.97 175.70
  Z
  M 217.57 175.69
  A 0.66 0.66 0.0 0 1 216.98 175.26
  L 214.97 169.76
  A 0.66 0.66 0.0 0 0 213.73 169.76
  L 211.72 175.26
  A 0.66 0.66 0.0 0 1 211.13 175.69
  L 205.28 175.90
  A 0.66 0.66 0.0 0 0 204.89 177.08
  L 209.50 180.69
  A 0.66 0.66 0.0 0 1 209.73 181.39
  L 208.12 187.02
  A 0.66 0.66 0.0 0 0 209.13 187.75
  L 213.98 184.48
  A 0.66 0.66 0.0 0 1 214.72 184.48
  L 219.57 187.75
  A 0.66 0.66 0.0 0 0 220.58 187.02
  L 218.97 181.39
  A 0.66 0.66 0.0 0 1 219.20 180.69
  L 223.81 177.08
  A 0.66 0.66 0.0 0 0 223.42 175.90
  L 217.57 175.69
  Z
  M 51.07 190.78
  A 0.76 0.76 0.0 0 1 50.36 190.26
  L 48.52 184.91
  A 0.76 0.76 0.0 0 0 47.08 184.91
  L 45.24 190.26
  A 0.76 0.76 0.0 0 1 44.53 190.78
  L 38.87 190.87
  A 0.76 0.76 0.0 0 0 38.43 192.24
  L 42.95 195.65
  A 0.76 0.76 0.0 0 1 43.22 196.48
  L 41.56 201.89
  A 0.76 0.76 0.0 0 0 42.73 202.74
  L 47.36 199.49
  A 0.76 0.76 0.0 0 1 48.24 199.49
  L 52.87 202.74
  A 0.76 0.76 0.0 0 0 54.04 201.89
  L 52.38 196.48
  A 0.76 0.76 0.0 0 1 52.65 195.65
  L 57.17 192.24
  A 0.76 0.76 0.0 0 0 56.73 190.87
  L 51.07 190.78
  Z
  M 98.64 190.74
  A 0.75 0.75 0.0 0 1 97.95 190.24
  L 96.09 184.92
  A 0.75 0.75 0.0 0 0 94.67 184.92
  L 92.81 190.24
  A 0.75 0.75 0.0 0 1 92.12 190.74
  L 86.48 190.87
  A 0.75 0.75 0.0 0 0 86.04 192.22
  L 90.53 195.64
  A 0.75 0.75 0.0 0 1 90.79 196.45
  L 89.17 201.85
  A 0.75 0.75 0.0 0 0 90.32 202.68
  L 94.95 199.48
  A 0.75 0.75 0.0 0 1 95.81 199.48
  L 100.44 202.68
  A 0.75 0.75 0.0 0 0 101.59 201.85
  L 99.97 196.45
  A 0.75 0.75 0.0 0 1 100.23 195.64
  L 104.72 192.22
  A 0.75 0.75 0.0 0 0 104.28 190.87
  L 98.64 190.74
  Z
  M 146.19 190.72
  A 0.65 0.65 0.0 0 1 145.60 190.29
  L 143.59 184.73
  A 0.65 0.65 0.0 0 0 142.37 184.73
  L 140.36 190.29
  A 0.65 0.65 0.0 0 1 139.77 190.72
  L 133.86 190.91
  A 0.65 0.65 0.0 0 0 133.48 192.08
  L 138.14 195.71
  A 0.65 0.65 0.0 0 1 138.37 196.40
  L 136.73 202.08
  A 0.65 0.65 0.0 0 0 137.72 202.80
  L 142.62 199.49
  A 0.65 0.65 0.0 0 1 143.34 199.49
  L 148.24 202.80
  A 0.65 0.65 0.0 0 0 149.23 202.08
  L 147.59 196.40
  A 0.65 0.65 0.0 0 1 147.82 195.71
  L 152.48 192.08
  A 0.65 0.65 0.0 0 0 152.10 190.91
  L 146.19 190.72
  Z
  M 193.82 190.77
  A 0.74 0.74 0.0 0 1 193.14 190.27
  L 191.28 184.88
  A 0.74 0.74 0.0 0 0 189.88 184.88
  L 188.00 190.26
  A 0.74 0.74 0.0 0 1 187.31 190.75
  L 181.62 190.86
  A 0.74 0.74 0.0 0 0 181.18 192.19
  L 185.72 195.64
  A 0.74 0.74 0.0 0 1 185.98 196.44
  L 184.32 201.90
  A 0.74 0.74 0.0 0 0 185.45 202.72
  L 190.13 199.47
  A 0.74 0.74 0.0 0 1 190.97 199.47
  L 195.65 202.74
  A 0.74 0.74 0.0 0 0 196.78 201.92
  L 195.14 196.46
  A 0.74 0.74 0.0 0 1 195.40 195.66
  L 199.95 192.22
  A 0.74 0.74 0.0 0 0 199.52 190.89
  L 193.82 190.77
  Z
  M 27.20 206.40
  A 0.65 0.65 0.0 0 1 26.61 205.97
  L 24.61 200.47
  A 0.65 0.65 0.0 0 0 23.39 200.47
  L 21.39 205.97
  A 0.65 0.65 0.0 0 1 20.80 206.40
  L 14.96 206.60
  A 0.65 0.65 0.0 0 0 14.58 207.76
  L 19.19 211.36
  A 0.65 0.65 0.0 0 1 19.42 212.05
  L 17.80 217.67
  A 0.65 0.65 0.0 0 0 18.79 218.39
  L 23.64 215.12
  A 0.65 0.65 0.0 0 1 24.36 215.12
  L 29.21 218.39
  A 0.65 0.65 0.0 0 0 30.20 217.67
  L 28.58 212.05
  A 0.65 0.65 0.0 0 1 28.81 211.36
  L 33.42 207.76
  A 0.65 0.65 0.0 0 0 33.04 206.60
  L 27.20 206.40
  Z
  M 74.84 206.44
  A 0.74 0.74 0.0 0 1 74.15 205.95
  L 72.30 200.60
  A 0.74 0.74 0.0 0 0 70.90 200.60
  L 69.05 205.95
  A 0.74 0.74 0.0 0 1 68.36 206.44
  L 62.70 206.55
  A 0.74 0.74 0.0 0 0 62.27 207.88
  L 66.79 211.30
  A 0.74 0.74 0.0 0 1 67.05 212.10
  L 65.40 217.52
  A 0.74 0.74 0.0 0 0 66.53 218.34
  L 71.18 215.11
  A 0.74 0.74 0.0 0 1 72.02 215.11
  L 76.67 218.34
  A 0.74 0.74 0.0 0 0 77.80 217.52
  L 76.15 212.10
  A 0.74 0.74 0.0 0 1 76.41 211.30
  L 80.93 207.88
  A 0.74 0.74 0.0 0 0 80.50 206.55
  L 74.84 206.44
  Z
  M 122.41 206.48
  A 0.76 0.76 0.0 0 1 121.70 205.96
  L 119.89 200.58
  A 0.76 0.76 0.0 0 0 118.45 200.58
  L 116.64 205.96
  A 0.76 0.76 0.0 0 1 115.93 206.48
  L 110.25 206.53
  A 0.76 0.76 0.0 0 0 109.81 207.91
  L 114.37 211.29
  A 0.76 0.76 0.0 0 1 114.64 212.12
  L 112.94 217.54
  A 0.76 0.76 0.0 0 0 114.10 218.39
  L 118.73 215.09
  A 0.76 0.76 0.0 0 1 119.61 215.09
  L 124.24 218.39
  A 0.76 0.76 0.0 0 0 125.40 217.54
  L 123.70 212.12
  A 0.76 0.76 0.0 0 1 123.97 211.29
  L 128.53 207.91
  A 0.76 0.76 0.0 0 0 128.09 206.53
  L 122.41 206.48
  Z
  M 170.05 206.49
  A 0.83 0.83 0.0 0 1 169.27 205.91
  L 167.55 200.65
  A 0.83 0.83 0.0 0 0 165.97 200.65
  L 164.25 205.91
  A 0.83 0.83 0.0 0 1 163.47 206.49
  L 157.93 206.49
  A 0.83 0.83 0.0 0 0 157.44 207.99
  L 161.92 211.25
  A 0.83 0.83 0.0 0 1 162.22 212.18
  L 160.51 217.44
  A 0.83 0.83 0.0 0 0 161.79 218.37
  L 166.27 215.12
  A 0.83 0.83 0.0 0 1 167.25 215.12
  L 171.73 218.37
  A 0.83 0.83 0.0 0 0 173.01 217.44
  L 171.30 212.18
  A 0.83 0.83 0.0 0 1 171.60 211.25
  L 176.08 207.99
  A 0.83 0.83 0.0 0 0 175.59 206.49
  L 170.05 206.49
  Z
  M 217.57 206.36
  A 0.66 0.66 0.0 0 1 216.97 205.92
  L 214.96 200.41
  A 0.66 0.66 0.0 0 0 213.72 200.41
  L 211.71 205.92
  A 0.66 0.66 0.0 0 1 211.11 206.36
  L 205.24 206.56
  A 0.66 0.66 0.0 0 0 204.86 207.74
  L 209.49 211.36
  A 0.66 0.66 0.0 0 1 209.72 212.06
  L 208.10 217.71
  A 0.66 0.66 0.0 0 0 209.10 218.43
  L 213.97 215.15
  A 0.66 0.66 0.0 0 1 214.71 215.15
  L 219.58 218.43
  A 0.66 0.66 0.0 0 0 220.58 217.71
  L 218.96 212.06
  A 0.66 0.66 0.0 0 1 219.19 211.36
  L 223.82 207.74
  A 0.66 0.66 0.0 0 0 223.44 206.56
  L 217.57 206.36
  Z
  M 51.03 221.44
  A 0.72 0.72 0.0 0 1 50.38 220.96
  L 48.47 215.60
  A 0.72 0.72 0.0 0 0 47.11 215.60
  L 45.20 220.96
  A 0.72 0.72 0.0 0 1 44.55 221.44
  L 38.86 221.60
  A 0.72 0.72 0.0 0 0 38.44 222.89
  L 42.95 226.36
  A 0.72 0.72 0.0 0 1 43.20 227.13
  L 41.60 232.58
  A 0.72 0.72 0.0 0 0 42.69 233.38
  L 47.38 230.17
  A 0.72 0.72 0.0 0 1 48.20 230.17
  L 52.89 233.38
  A 0.72 0.72 0.0 0 0 53.98 232.58
  L 52.38 227.13
  A 0.72 0.72 0.0 0 1 52.63 226.36
  L 57.14 222.89
  A 0.72 0.72 0.0 0 0 56.72 221.60
  L 51.03 221.44
  Z
  M 98.65 221.42
  A 0.73 0.73 0.0 0 1 97.99 220.93
  L 96.08 215.64
  A 0.73 0.73 0.0 0 0 94.70 215.64
  L 92.79 220.93
  A 0.73 0.73 0.0 0 1 92.13 221.42
  L 86.50 221.60
  A 0.73 0.73 0.0 0 0 86.08 222.91
  L 90.52 226.36
  A 0.73 0.73 0.0 0 1 90.77 227.14
  L 89.21 232.55
  A 0.73 0.73 0.0 0 0 90.32 233.36
  L 94.98 230.20
  A 0.73 0.73 0.0 0 1 95.80 230.20
  L 100.46 233.36
  A 0.73 0.73 0.0 0 0 101.57 232.55
  L 100.01 227.14
  A 0.73 0.73 0.0 0 1 100.26 226.36
  L 104.70 222.91
  A 0.73 0.73 0.0 0 0 104.28 221.60
  L 98.65 221.42
  Z
  M 146.21 221.44
  A 0.72 0.72 0.0 0 1 145.55 220.96
  L 143.65 215.58
  A 0.72 0.72 0.0 0 0 142.29 215.58
  L 140.39 220.96
  A 0.72 0.72 0.0 0 1 139.73 221.44
  L 134.02 221.59
  A 0.72 0.72 0.0 0 0 133.60 222.88
  L 138.14 226.35
  A 0.72 0.72 0.0 0 1 138.39 227.13
  L 136.76 232.60
  A 0.72 0.72 0.0 0 0 137.86 233.40
  L 142.56 230.16
  A 0.72 0.72 0.0 0 1 143.38 230.16
  L 148.08 233.40
  A 0.72 0.72 0.0 0 0 149.18 232.60
  L 147.55 227.13
  A 0.72 0.72 0.0 0 1 147.80 226.35
  L 152.34 222.88
  A 0.72 0.72 0.0 0 0 151.92 221.59
  L 146.21 221.44
  Z
  M 193.80 221.44
  A 0.72 0.72 0.0 0 1 193.15 220.96
  L 191.24 215.62
  A 0.72 0.72 0.0 0 0 189.88 215.62
  L 187.97 220.96
  A 0.72 0.72 0.0 0 1 187.32 221.44
  L 181.65 221.60
  A 0.72 0.72 0.0 0 0 181.23 222.89
  L 185.72 226.36
  A 0.72 0.72 0.0 0 1 185.97 227.13
  L 184.37 232.57
  A 0.72 0.72 0.0 0 0 185.47 233.37
  L 190.15 230.17
  A 0.72 0.72 0.0 0 1 190.97 230.17
  L 195.65 233.37
  A 0.72 0.72 0.0 0 0 196.75 232.57
  L 195.15 227.13
  A 0.72 0.72 0.0 0 1 195.40 226.36
  L 199.89 222.89
  A 0.72 0.72 0.0 0 0 199.47 221.60
  L 193.80 221.44
  Z
  M 122.44 237.07
  A 0.76 0.76 0.0 0 1 121.73 236.55
  L 119.89 231.19
  A 0.76 0.76 0.0 0 0 118.45 231.19
  L 116.61 236.55
  A 0.76 0.76 0.0 0 1 115.90 237.07
  L 110.23 237.16
  A 0.76 0.76 0.0 0 0 109.79 238.53
  L 114.32 241.94
  A 0.76 0.76 0.0 0 1 114.59 242.77
  L 112.93 248.19
  A 0.76 0.76 0.0 0 0 114.09 249.04
  L 118.73 245.78
  A 0.76 0.76 0.0 0 1 119.61 245.78
  L 124.25 249.04
  A 0.76 0.76 0.0 0 0 125.41 248.19
  L 123.75 242.77
  A 0.76 0.76 0.0 0 1 124.02 241.94
  L 128.55 238.53
  A 0.76 0.76 0.0 0 0 128.11 237.16
  L 122.44 237.07
  Z
  M 170.03 237.05
  A 0.76 0.76 0.0 0 1 169.32 236.53
  L 167.48 231.15
  A 0.76 0.76 0.0 0 0 166.04 231.15
  L 164.20 236.53
  A 0.76 0.76 0.0 0 1 163.49 237.05
  L 157.81 237.13
  A 0.76 0.76 0.0 0 0 157.36 238.50
  L 161.91 241.92
  A 0.76 0.76 0.0 0 1 162.18 242.75
  L 160.51 248.18
  A 0.76 0.76 0.0 0 0 161.67 249.03
  L 166.32 245.76
  A 0.76 0.76 0.0 0 1 167.20 245.76
  L 171.85 249.03
  A 0.76 0.76 0.0 0 0 173.01 248.18
  L 171.34 242.75
  A 0.76 0.76 0.0 0 1 171.61 241.92
  L 176.16 238.50
  A 0.76 0.76 0.0 0 0 175.71 237.13
  L 170.03 237.05
  Z
  M 27.26 237.10
  A 0.76 0.76 0.0 0 1 26.55 236.59
  L 24.72 231.21
  A 0.76 0.76 0.0 0 0 23.28 231.21
  L 21.45 236.59
  A 0.76 0.76 0.0 0 1 20.74 237.10
  L 15.07 237.18
  A 0.76 0.76 0.0 0 0 14.62 238.55
  L 19.17 241.95
  A 0.76 0.76 0.0 0 1 19.44 242.78
  L 17.76 248.21
  A 0.76 0.76 0.0 0 0 18.92 249.05
  L 23.56 245.78
  A 0.76 0.76 0.0 0 1 24.44 245.78
  L 29.08 249.05
  A 0.76 0.76 0.0 0 0 30.24 248.21
  L 28.56 242.78
  A 0.76 0.76 0.0 0 1 28.83 241.95
  L 33.38 238.55
  A 0.76 0.76 0.0 0 0 32.93 237.18
  L 27.26 237.10
  Z
  M 74.87 237.00
  A 0.76 0.76 0.0 0 1 74.18 236.50
  L 72.31 231.23
  A 0.76 0.76 0.0 0 0 70.87 231.23
  L 69.00 236.50
  A 0.76 0.76 0.0 0 1 68.31 237.00
  L 62.72 237.16
  A 0.76 0.76 0.0 0 0 62.28 238.52
  L 66.71 241.92
  A 0.76 0.76 0.0 0 1 66.97 242.74
  L 65.39 248.10
  A 0.76 0.76 0.0 0 0 66.55 248.94
  L 71.16 245.78
  A 0.76 0.76 0.0 0 1 72.02 245.78
  L 76.63 248.94
  A 0.76 0.76 0.0 0 0 77.79 248.10
  L 76.21 242.74
  A 0.76 0.76 0.0 0 1 76.47 241.92
  L 80.90 238.52
  A 0.76 0.76 0.0 0 0 80.46 237.16
  L 74.87 237.00
  Z
  M 217.64 237.08
  A 0.79 0.79 0.0 0 1 216.89 236.54
  L 215.10 231.17
  A 0.79 0.79 0.0 0 0 213.60 231.17
  L 211.81 236.54
  A 0.79 0.79 0.0 0 1 211.06 237.08
  L 205.40 237.12
  A 0.79 0.79 0.0 0 0 204.94 238.55
  L 209.49 241.92
  A 0.79 0.79 0.0 0 1 209.78 242.79
  L 208.07 248.19
  A 0.79 0.79 0.0 0 0 209.28 249.07
  L 213.89 245.78
  A 0.79 0.79 0.0 0 1 214.81 245.78
  L 219.42 249.07
  A 0.79 0.79 0.0 0 0 220.63 248.19
  L 218.92 242.79
  A 0.79 0.79 0.0 0 1 219.21 241.92
  L 223.76 238.55
  A 0.79 0.79 0.0 0 0 223.30 237.12
  L 217.64 237.08
  Z"
/>
<path fill="#654b97" fill-opacity="0.996" d="
  M 36.00 88.04
  L 232.00 88.04
  Q 231.20 88.61 232.00 88.96
  L 36.85 88.94
  A 0.81 0.81 0.0 0 1 36.07 88.34
  L 36.00 88.04
  Z"
/>
<path fill="#ff4b55" d="
  M 232.00 88.04
  Q 433.16 87.90 472.00 88.02
  Q 499.34 88.11 509.94 113.91
  L 238.54 114.00
  Q 238.21 106.73 238.23 99.46
  C 238.24 94.08 237.34 90.46 232.00 88.96
  Q 231.20 88.61 232.00 88.04
  Z"
/>
<path fill="#f5f5f5" d="
  M 27.19 114.44
  L 33.11 114.61
  A 0.65 0.65 0.0 0 1 33.49 115.77
  L 28.80 119.38
  A 0.65 0.65 0.0 0 0 28.58 120.08
  L 30.24 125.76
  A 0.65 0.65 0.0 0 1 29.25 126.48
  L 24.37 123.14
  A 0.65 0.65 0.0 0 0 23.63 123.14
  L 18.75 126.48
  A 0.65 0.65 0.0 0 1 17.76 125.76
  L 19.42 120.08
  A 0.65 0.65 0.0 0 0 19.20 119.38
  L 14.51 115.77
  A 0.65 0.65 0.0 0 1 14.89 114.61
  L 20.81 114.44
  A 0.65 0.65 0.0 0 0 21.40 114.01
  L 23.39 108.43
  A 0.65 0.65 0.0 0 1 24.61 108.43
  L 26.60 114.01
  A 0.65 0.65 0.0 0 0 27.19 114.44
  Z"
/>
<path fill="#f5f5f5" d="
  M 74.84 114.47
  L 80.52 114.58
  A 0.74 0.74 0.0 0 1 80.95 115.91
  L 76.42 119.33
  A 0.74 0.74 0.0 0 0 76.15 120.14
  L 77.81 125.57
  A 0.74 0.74 0.0 0 1 76.68 126.39
  L 72.02 123.14
  A 0.74 0.74 0.0 0 0 71.18 123.14
  L 66.52 126.39
  A 0.74 0.74 0.0 0 1 65.39 125.57
  L 67.05 120.14
  A 0.74 0.74 0.0 0 0 66.78 119.33
  L 62.25 115.91
  A 0.74 0.74 0.0 0 1 62.68 114.58
  L 68.36 114.47
  A 0.74 0.74 0.0 0 0 69.05 113.98
  L 70.90 108.61
  A 0.74 0.74 0.0 0 1 72.30 108.61
  L 74.15 113.98
  A 0.74 0.74 0.0 0 0 74.84 114.47
  Z"
/>
<path fill="#f5f5f5" d="
  M 122.42 114.50
  L 128.13 114.57
  A 0.75 0.75 0.0 0 1 128.56 115.93
  L 123.98 119.32
  A 0.75 0.75 0.0 0 0 123.71 120.15
  L 125.40 125.60
  A 0.75 0.75 0.0 0 1 124.25 126.43
  L 119.61 123.12
  A 0.75 0.75 0.0 0 0 118.74 123.12
  L 114.08 126.41
  A 0.75 0.75 0.0 0 1 112.93 125.57
  L 114.64 120.13
  A 0.75 0.75 0.0 0 0 114.38 119.31
  L 109.80 115.89
  A 0.75 0.75 0.0 0 1 110.25 114.54
  L 115.95 114.49
  A 0.75 0.75 0.0 0 0 116.65 113.98
  L 118.49 108.58
  A 0.75 0.75 0.0 0 1 119.91 108.58
  L 121.72 113.99
  A 0.75 0.75 0.0 0 0 122.42 114.50
  Z"
/>
<path fill="#f5f5f5" d="
  M 169.97 114.44
  L 175.87 114.63
  A 0.65 0.65 0.0 0 1 176.25 115.79
  L 171.57 119.39
  A 0.65 0.65 0.0 0 0 171.34 120.09
  L 172.99 125.76
  A 0.65 0.65 0.0 0 1 172.00 126.48
  L 167.13 123.14
  A 0.65 0.65 0.0 0 0 166.40 123.14
  L 161.51 126.46
  A 0.65 0.65 0.0 0 1 160.52 125.74
  L 162.19 120.07
  A 0.65 0.65 0.0 0 0 161.97 119.38
  L 157.30 115.76
  A 0.65 0.65 0.0 0 1 157.68 114.60
  L 163.58 114.43
  A 0.65 0.65 0.0 0 0 164.18 114.00
  L 166.18 108.45
  A 0.65 0.65 0.0 0 1 167.40 108.45
  L 169.38 114.01
  A 0.65 0.65 0.0 0 0 169.97 114.44
  Z"
/>
<path fill="#f5f5f5" d="
  M 217.59 114.46
  L 223.26 114.59
  A 0.73 0.73 0.0 0 1 223.69 115.90
  L 219.17 119.34
  A 0.73 0.73 0.0 0 0 218.92 120.13
  L 220.55 125.57
  A 0.73 0.73 0.0 0 1 219.43 126.38
  L 214.77 123.15
  A 0.73 0.73 0.0 0 0 213.93 123.15
  L 209.27 126.38
  A 0.73 0.73 0.0 0 1 208.15 125.57
  L 209.78 120.13
  A 0.73 0.73 0.0 0 0 209.53 119.34
  L 205.01 115.90
  A 0.73 0.73 0.0 0 1 205.44 114.59
  L 211.11 114.46
  A 0.73 0.73 0.0 0 0 211.78 113.97
  L 213.66 108.62
  A 0.73 0.73 0.0 0 1 215.04 108.62
  L 216.92 113.97
  A 0.73 0.73 0.0 0 0 217.59 114.46
  Z"
/>
<path fill="#f5f5f5" d="
  M 509.94 113.91
  Q 511.42 119.37 512.00 125.56
  L 512.00 139.81
  L 238.48 139.79
  Q 237.86 127.10 238.54 114.00
  L 509.94 113.91
  Z"
/>
<path fill="#f5f5f5" d="
  M 51.04 129.47
  L 56.71 129.61
  A 0.73 0.73 0.0 0 1 57.14 130.92
  L 52.63 134.36
  A 0.73 0.73 0.0 0 0 52.38 135.15
  L 54.00 140.59
  A 0.73 0.73 0.0 0 1 52.88 141.40
  L 48.21 138.18
  A 0.73 0.73 0.0 0 0 47.39 138.18
  L 42.72 141.40
  A 0.73 0.73 0.0 0 1 41.60 140.59
  L 43.22 135.15
  A 0.73 0.73 0.0 0 0 42.97 134.36
  L 38.46 130.92
  A 0.73 0.73 0.0 0 1 38.89 129.61
  L 44.56 129.47
  A 0.73 0.73 0.0 0 0 45.23 128.98
  L 47.11 123.64
  A 0.73 0.73 0.0 0 1 48.49 123.64
  L 50.37 128.98
  A 0.73 0.73 0.0 0 0 51.04 129.47
  Z"
/>
<path fill="#f5f5f5" d="
  M 98.58 129.44
  L 104.46 129.64
  A 0.65 0.65 0.0 0 1 104.83 130.80
  L 100.20 134.41
  A 0.65 0.65 0.0 0 0 99.97 135.11
  L 101.60 140.75
  A 0.65 0.65 0.0 0 1 100.61 141.47
  L 95.74 138.18
  A 0.65 0.65 0.0 0 0 95.02 138.18
  L 90.15 141.47
  A 0.65 0.65 0.0 0 1 89.16 140.75
  L 90.79 135.11
  A 0.65 0.65 0.0 0 0 90.56 134.41
  L 85.93 130.80
  A 0.65 0.65 0.0 0 1 86.30 129.64
  L 92.18 129.44
  A 0.65 0.65 0.0 0 0 92.77 129.01
  L 94.77 123.49
  A 0.65 0.65 0.0 0 1 95.99 123.49
  L 97.99 129.01
  A 0.65 0.65 0.0 0 0 98.58 129.44
  Z"
/>
<path fill="#f5f5f5" d="
  M 146.16 129.46
  L 152.08 129.63
  A 0.65 0.65 0.0 0 1 152.46 130.79
  L 147.76 134.40
  A 0.65 0.65 0.0 0 0 147.54 135.10
  L 149.21 140.78
  A 0.65 0.65 0.0 0 1 148.22 141.50
  L 143.34 138.15
  A 0.65 0.65 0.0 0 0 142.60 138.15
  L 137.72 141.50
  A 0.65 0.65 0.0 0 1 136.73 140.78
  L 138.40 135.10
  A 0.65 0.65 0.0 0 0 138.18 134.40
  L 133.48 130.79
  A 0.65 0.65 0.0 0 1 133.86 129.63
  L 139.78 129.46
  A 0.65 0.65 0.0 0 0 140.37 129.03
  L 142.36 123.45
  A 0.65 0.65 0.0 0 1 143.58 123.45
  L 145.57 129.03
  A 0.65 0.65 0.0 0 0 146.16 129.46
  Z"
/>
<path fill="#f5f5f5" d="
  M 193.76 129.43
  L 199.68 129.62
  A 0.65 0.65 0.0 0 1 200.06 130.78
  L 195.39 134.42
  A 0.65 0.65 0.0 0 0 195.16 135.11
  L 196.80 140.80
  A 0.65 0.65 0.0 0 1 195.82 141.52
  L 190.91 138.20
  A 0.65 0.65 0.0 0 0 190.19 138.20
  L 185.28 141.52
  A 0.65 0.65 0.0 0 1 184.30 140.80
  L 185.94 135.11
  A 0.65 0.65 0.0 0 0 185.71 134.42
  L 181.04 130.78
  A 0.65 0.65 0.0 0 1 181.42 129.62
  L 187.34 129.43
  A 0.65 0.65 0.0 0 0 187.93 129.00
  L 189.94 123.43
  A 0.65 0.65 0.0 0 1 191.16 123.43
  L 193.17 129.00
  A 0.65 0.65 0.0 0 0 193.76 129.43
  Z"
/>
<path fill="#f5f5f5" d="
  M 170.04 145.06
  L 175.70 145.16
  A 0.77 0.77 0.0 0 1 176.15 146.54
  L 171.63 149.95
  A 0.77 0.77 0.0 0 0 171.36 150.79
  L 173.01 156.20
  A 0.77 0.77 0.0 0 1 171.83 157.05
  L 167.20 153.81
  A 0.77 0.77 0.0 0 0 166.32 153.81
  L 161.69 157.05
  A 0.77 0.77 0.0 0 1 160.51 156.20
  L 162.16 150.79
  A 0.77 0.77 0.0 0 0 161.89 149.95
  L 157.37 146.54
  A 0.77 0.77 0.0 0 1 157.82 145.16
  L 163.48 145.06
  A 0.77 0.77 0.0 0 0 164.19 144.54
  L 166.03 139.19
  A 0.77 0.77 0.0 0 1 167.49 139.19
  L 169.33 144.54
  A 0.77 0.77 0.0 0 0 170.04 145.06
  Z"
/>
<path fill="#f5f5f5" d="
  M 27.27 145.12
  L 32.96 145.20
  A 0.76 0.76 0.0 0 1 33.41 146.57
  L 28.83 149.96
  A 0.76 0.76 0.0 0 0 28.56 150.80
  L 30.25 156.24
  A 0.76 0.76 0.0 0 1 29.08 157.08
  L 24.44 153.78
  A 0.76 0.76 0.0 0 0 23.56 153.78
  L 18.91 157.06
  A 0.76 0.76 0.0 0 1 17.75 156.22
  L 19.45 150.78
  A 0.76 0.76 0.0 0 0 19.18 149.95
  L 14.62 146.54
  A 0.76 0.76 0.0 0 1 15.07 145.17
  L 20.76 145.11
  A 0.76 0.76 0.0 0 0 21.47 144.60
  L 23.31 139.21
  A 0.76 0.76 0.0 0 1 24.75 139.21
  L 26.56 144.61
  A 0.76 0.76 0.0 0 0 27.27 145.12
  Z"
/>
<path fill="#f5f5f5" d="
  M 74.88 145.09
  L 80.52 145.13
  A 0.79 0.79 0.0 0 1 80.99 146.56
  L 76.46 149.93
  A 0.79 0.79 0.0 0 0 76.18 150.80
  L 77.88 156.18
  A 0.79 0.79 0.0 0 1 76.67 157.07
  L 72.07 153.80
  A 0.79 0.79 0.0 0 0 71.15 153.80
  L 66.56 157.08
  A 0.79 0.79 0.0 0 1 65.34 156.20
  L 67.03 150.82
  A 0.79 0.79 0.0 0 0 66.75 149.94
  L 62.20 146.59
  A 0.79 0.79 0.0 0 1 62.66 145.17
  L 68.31 145.11
  A 0.79 0.79 0.0 0 0 69.05 144.56
  L 70.83 139.21
  A 0.79 0.79 0.0 0 1 72.33 139.20
  L 74.14 144.56
  A 0.79 0.79 0.0 0 0 74.88 145.09
  Z"
/>
<path fill="#f5f5f5" d="
  M 122.46 145.10
  L 128.13 145.14
  A 0.79 0.79 0.0 0 1 128.59 146.57
  L 124.03 149.94
  A 0.79 0.79 0.0 0 0 123.74 150.81
  L 125.46 156.22
  A 0.79 0.79 0.0 0 1 124.24 157.10
  L 119.63 153.80
  A 0.79 0.79 0.0 0 0 118.71 153.80
  L 114.10 157.10
  A 0.79 0.79 0.0 0 1 112.88 156.22
  L 114.60 150.81
  A 0.79 0.79 0.0 0 0 114.31 149.94
  L 109.75 146.57
  A 0.79 0.79 0.0 0 1 110.21 145.14
  L 115.88 145.10
  A 0.79 0.79 0.0 0 0 116.63 144.56
  L 118.42 139.18
  A 0.79 0.79 0.0 0 1 119.92 139.18
  L 121.71 144.56
  A 0.79 0.79 0.0 0 0 122.46 145.10
  Z"
/>
<path fill="#f5f5f5" d="
  M 217.63 145.10
  L 223.27 145.20
  A 0.77 0.77 0.0 0 1 223.72 146.59
  L 219.20 149.97
  A 0.77 0.77 0.0 0 0 218.93 150.81
  L 220.57 156.20
  A 0.77 0.77 0.0 0 1 219.39 157.06
  L 214.78 153.81
  A 0.77 0.77 0.0 0 0 213.90 153.81
  L 209.28 157.04
  A 0.77 0.77 0.0 0 1 208.10 156.18
  L 209.77 150.80
  A 0.77 0.77 0.0 0 0 209.49 149.95
  L 204.99 146.56
  A 0.77 0.77 0.0 0 1 205.44 145.17
  L 211.08 145.09
  A 0.77 0.77 0.0 0 0 211.80 144.57
  L 213.64 139.24
  A 0.77 0.77 0.0 0 1 215.10 139.24
  L 216.92 144.58
  A 0.77 0.77 0.0 0 0 217.63 145.10
  Z"
/>
<path fill="#ff4b55" d="
  M 512.00 139.81
  L 512.00 165.56
  L 238.51 165.65
  Q 237.89 152.74 238.48 139.79
  L 512.00 139.81
  Z"
/>
<path fill="#f5f5f5" d="
  M 51.08 160.18
  L 56.76 160.21
  A 0.79 0.79 0.0 0 1 57.22 161.64
  L 52.64 165.00
  A 0.79 0.79 0.0 0 0 52.36 165.88
  L 54.08 171.28
  A 0.79 0.79 0.0 0 1 52.87 172.17
  L 48.26 168.85
  A 0.79 0.79 0.0 0 0 47.34 168.85
  L 42.73 172.17
  A 0.79 0.79 0.0 0 1 41.52 171.28
  L 43.24 165.88
  A 0.79 0.79 0.0 0 0 42.96 165.00
  L 38.38 161.64
  A 0.79 0.79 0.0 0 1 38.84 160.21
  L 44.52 160.18
  A 0.79 0.79 0.0 0 0 45.27 159.64
  L 47.05 154.25
  A 0.79 0.79 0.0 0 1 48.55 154.25
  L 50.33 159.64
  A 0.79 0.79 0.0 0 0 51.08 160.18
  Z"
/>
<path fill="#f5f5f5" d="
  M 98.64 160.16
  L 104.29 160.25
  A 0.76 0.76 0.0 0 1 104.74 161.62
  L 100.21 165.01
  A 0.76 0.76 0.0 0 0 99.94 165.84
  L 101.61 171.25
  A 0.76 0.76 0.0 0 1 100.44 172.09
  L 95.82 168.84
  A 0.76 0.76 0.0 0 0 94.94 168.84
  L 90.32 172.09
  A 0.76 0.76 0.0 0 1 89.15 171.25
  L 90.82 165.84
  A 0.76 0.76 0.0 0 0 90.55 165.01
  L 86.02 161.62
  A 0.76 0.76 0.0 0 1 86.47 160.25
  L 92.12 160.16
  A 0.76 0.76 0.0 0 0 92.83 159.65
  L 94.66 154.29
  A 0.76 0.76 0.0 0 1 96.10 154.29
  L 97.93 159.65
  A 0.76 0.76 0.0 0 0 98.64 160.16
  Z"
/>
<path fill="#f5f5f5" d="
  M 146.18 160.11
  L 152.02 160.32
  A 0.65 0.65 0.0 0 1 152.40 161.48
  L 147.79 165.09
  A 0.65 0.65 0.0 0 0 147.57 165.78
  L 149.18 171.40
  A 0.65 0.65 0.0 0 1 148.19 172.12
  L 143.33 168.85
  A 0.65 0.65 0.0 0 0 142.61 168.85
  L 137.75 172.12
  A 0.65 0.65 0.0 0 1 136.76 171.40
  L 138.37 165.78
  A 0.65 0.65 0.0 0 0 138.15 165.09
  L 133.54 161.48
  A 0.65 0.65 0.0 0 1 133.92 160.32
  L 139.76 160.11
  A 0.65 0.65 0.0 0 0 140.35 159.68
  L 142.36 154.18
  A 0.65 0.65 0.0 0 1 143.58 154.18
  L 145.59 159.68
  A 0.65 0.65 0.0 0 0 146.18 160.11
  Z"
/>
<path fill="#f5f5f5" d="
  M 193.82 160.18
  L 199.49 160.24
  A 0.77 0.77 0.0 0 1 199.94 161.63
  L 195.39 165.01
  A 0.77 0.77 0.0 0 0 195.12 165.86
  L 196.81 171.27
  A 0.77 0.77 0.0 0 1 195.63 172.13
  L 191.01 168.85
  A 0.77 0.77 0.0 0 0 190.11 168.85
  L 185.49 172.13
  A 0.77 0.77 0.0 0 1 184.31 171.27
  L 186.00 165.86
  A 0.77 0.77 0.0 0 0 185.73 165.01
  L 181.18 161.63
  A 0.77 0.77 0.0 0 1 181.63 160.24
  L 187.30 160.18
  A 0.77 0.77 0.0 0 0 188.02 159.65
  L 189.83 154.28
  A 0.77 0.77 0.0 0 1 191.29 154.28
  L 193.10 159.65
  A 0.77 0.77 0.0 0 0 193.82 160.18
  Z"
/>
<path fill="#f5f5f5" d="
  M 238.51 165.65
  L 512.00 165.56
  L 512.00 191.56
  L 238.29 191.50
  L 238.51 165.65
  Z"
/>
<path fill="#f5f5f5" d="
  M 27.21 175.71
  L 33.12 175.90
  A 0.65 0.65 0.0 0 1 33.50 177.07
  L 28.83 180.69
  A 0.65 0.65 0.0 0 0 28.60 181.39
  L 30.25 187.07
  A 0.65 0.65 0.0 0 1 29.26 187.79
  L 24.36 184.47
  A 0.65 0.65 0.0 0 0 23.64 184.47
  L 18.74 187.79
  A 0.65 0.65 0.0 0 1 17.75 187.07
  L 19.40 181.39
  A 0.65 0.65 0.0 0 0 19.17 180.69
  L 14.50 177.07
  A 0.65 0.65 0.0 0 1 14.88 175.90
  L 20.79 175.71
  A 0.65 0.65 0.0 0 0 21.38 175.28
  L 23.39 169.72
  A 0.65 0.65 0.0 0 1 24.61 169.72
  L 26.62 175.28
  A 0.65 0.65 0.0 0 0 27.21 175.71
  Z"
/>
<path fill="#f5f5f5" d="
  M 74.81 175.72
  L 80.72 175.92
  A 0.65 0.65 0.0 0 1 81.10 177.08
  L 76.42 180.70
  A 0.65 0.65 0.0 0 0 76.19 181.40
  L 77.83 187.08
  A 0.65 0.65 0.0 0 1 76.84 187.80
  L 71.95 184.47
  A 0.65 0.65 0.0 0 0 71.22 184.47
  L 66.31 187.78
  A 0.65 0.65 0.0 0 1 65.33 187.06
  L 66.98 181.38
  A 0.65 0.65 0.0 0 0 66.76 180.69
  L 62.09 177.05
  A 0.65 0.65 0.0 0 1 62.47 175.89
  L 68.39 175.71
  A 0.65 0.65 0.0 0 0 68.98 175.28
  L 71.00 169.72
  A 0.65 0.65 0.0 0 1 72.22 169.72
  L 74.22 175.29
  A 0.65 0.65 0.0 0 0 74.81 175.72
  Z"
/>
<path fill="#f5f5f5" d="
  M 122.38 175.69
  L 128.24 175.90
  A 0.66 0.66 0.0 0 1 128.62 177.08
  L 124.01 180.69
  A 0.66 0.66 0.0 0 0 123.78 181.39
  L 125.39 187.02
  A 0.66 0.66 0.0 0 1 124.39 187.75
  L 119.53 184.48
  A 0.66 0.66 0.0 0 0 118.79 184.48
  L 113.93 187.75
  A 0.66 0.66 0.0 0 1 112.93 187.02
  L 114.54 181.39
  A 0.66 0.66 0.0 0 0 114.31 180.69
  L 109.70 177.08
  A 0.66 0.66 0.0 0 1 110.08 175.90
  L 115.94 175.69
  A 0.66 0.66 0.0 0 0 116.53 175.26
  L 118.54 169.75
  A 0.66 0.66 0.0 0 1 119.78 169.75
  L 121.79 175.26
  A 0.66 0.66 0.0 0 0 122.38 175.69
  Z"
/>
<path fill="#f5f5f5" d="
  M 169.97 175.70
  L 175.90 175.89
  A 0.65 0.65 0.0 0 1 176.28 177.05
  L 171.59 180.68
  A 0.65 0.65 0.0 0 0 171.36 181.38
  L 173.02 187.08
  A 0.65 0.65 0.0 0 1 172.03 187.80
  L 167.13 184.46
  A 0.65 0.65 0.0 0 0 166.39 184.46
  L 161.49 187.80
  A 0.65 0.65 0.0 0 1 160.50 187.08
  L 162.16 181.38
  A 0.65 0.65 0.0 0 0 161.93 180.68
  L 157.24 177.05
  A 0.65 0.65 0.0 0 1 157.62 175.89
  L 163.55 175.70
  A 0.65 0.65 0.0 0 0 164.14 175.27
  L 166.15 169.69
  A 0.65 0.65 0.0 0 1 167.37 169.69
  L 169.38 175.27
  A 0.65 0.65 0.0 0 0 169.97 175.70
  Z"
/>
<path fill="#f5f5f5" d="
  M 217.57 175.69
  L 223.42 175.90
  A 0.66 0.66 0.0 0 1 223.81 177.08
  L 219.20 180.69
  A 0.66 0.66 0.0 0 0 218.97 181.39
  L 220.58 187.02
  A 0.66 0.66 0.0 0 1 219.57 187.75
  L 214.72 184.48
  A 0.66 0.66 0.0 0 0 213.98 184.48
  L 209.13 187.75
  A 0.66 0.66 0.0 0 1 208.12 187.02
  L 209.73 181.39
  A 0.66 0.66 0.0 0 0 209.50 180.69
  L 204.89 177.08
  A 0.66 0.66 0.0 0 1 205.28 175.90
  L 211.13 175.69
  A 0.66 0.66 0.0 0 0 211.72 175.26
  L 213.73 169.76
  A 0.66 0.66 0.0 0 1 214.97 169.76
  L 216.98 175.26
  A 0.66 0.66 0.0 0 0 217.57 175.69
  Z"
/>
<path fill="#f5f5f5" d="
  M 51.07 190.78
  L 56.73 190.87
  A 0.76 0.76 0.0 0 1 57.17 192.24
  L 52.65 195.65
  A 0.76 0.76 0.0 0 0 52.38 196.48
  L 54.04 201.89
  A 0.76 0.76 0.0 0 1 52.87 202.74
  L 48.24 199.49
  A 0.76 0.76 0.0 0 0 47.36 199.49
  L 42.73 202.74
  A 0.76 0.76 0.0 0 1 41.56 201.89
  L 43.22 196.48
  A 0.76 0.76 0.0 0 0 42.95 195.65
  L 38.43 192.24
  A 0.76 0.76 0.0 0 1 38.87 190.87
  L 44.53 190.78
  A 0.76 0.76 0.0 0 0 45.24 190.26
  L 47.08 184.91
  A 0.76 0.76 0.0 0 1 48.52 184.91
  L 50.36 190.26
  A 0.76 0.76 0.0 0 0 51.07 190.78
  Z"
/>
<path fill="#f5f5f5" d="
  M 98.64 190.74
  L 104.28 190.87
  A 0.75 0.75 0.0 0 1 104.72 192.22
  L 100.23 195.64
  A 0.75 0.75 0.0 0 0 99.97 196.45
  L 101.59 201.85
  A 0.75 0.75 0.0 0 1 100.44 202.68
  L 95.81 199.48
  A 0.75 0.75 0.0 0 0 94.95 199.48
  L 90.32 202.68
  A 0.75 0.75 0.0 0 1 89.17 201.85
  L 90.79 196.45
  A 0.75 0.75 0.0 0 0 90.53 195.64
  L 86.04 192.22
  A 0.75 0.75 0.0 0 1 86.48 190.87
  L 92.12 190.74
  A 0.75 0.75 0.0 0 0 92.81 190.24
  L 94.67 184.92
  A 0.75 0.75 0.0 0 1 96.09 184.92
  L 97.95 190.24
  A 0.75 0.75 0.0 0 0 98.64 190.74
  Z"
/>
<path fill="#f5f5f5" d="
  M 146.19 190.72
  L 152.10 190.91
  A 0.65 0.65 0.0 0 1 152.48 192.08
  L 147.82 195.71
  A 0.65 0.65 0.0 0 0 147.59 196.40
  L 149.23 202.08
  A 0.65 0.65 0.0 0 1 148.24 202.80
  L 143.34 199.49
  A 0.65 0.65 0.0 0 0 142.62 199.49
  L 137.72 202.80
  A 0.65 0.65 0.0 0 1 136.73 202.08
  L 138.37 196.40
  A 0.65 0.65 0.0 0 0 138.14 195.71
  L 133.48 192.08
  A 0.65 0.65 0.0 0 1 133.86 190.91
  L 139.77 190.72
  A 0.65 0.65 0.0 0 0 140.36 190.29
  L 142.37 184.73
  A 0.65 0.65 0.0 0 1 143.59 184.73
  L 145.60 190.29
  A 0.65 0.65 0.0 0 0 146.19 190.72
  Z"
/>
<path fill="#f5f5f5" d="
  M 193.82 190.77
  L 199.52 190.89
  A 0.74 0.74 0.0 0 1 199.95 192.22
  L 195.40 195.66
  A 0.74 0.74 0.0 0 0 195.14 196.46
  L 196.78 201.92
  A 0.74 0.74 0.0 0 1 195.65 202.74
  L 190.97 199.47
  A 0.74 0.74 0.0 0 0 190.13 199.47
  L 185.45 202.72
  A 0.74 0.74 0.0 0 1 184.32 201.90
  L 185.98 196.44
  A 0.74 0.74 0.0 0 0 185.72 195.64
  L 181.18 192.19
  A 0.74 0.74 0.0 0 1 181.62 190.86
  L 187.31 190.75
  A 0.74 0.74 0.0 0 0 188.00 190.26
  L 189.88 184.88
  A 0.74 0.74 0.0 0 1 191.28 184.88
  L 193.14 190.27
  A 0.74 0.74 0.0 0 0 193.82 190.77
  Z"
/>
<path fill="#ff4b55" d="
  M 238.29 191.50
  L 512.00 191.56
  L 512.00 217.06
  L 238.54 217.25
  L 238.29 191.50
  Z"
/>
<path fill="#f5f5f5" d="
  M 27.20 206.40
  L 33.04 206.60
  A 0.65 0.65 0.0 0 1 33.42 207.76
  L 28.81 211.36
  A 0.65 0.65 0.0 0 0 28.58 212.05
  L 30.20 217.67
  A 0.65 0.65 0.0 0 1 29.21 218.39
  L 24.36 215.12
  A 0.65 0.65 0.0 0 0 23.64 215.12
  L 18.79 218.39
  A 0.65 0.65 0.0 0 1 17.80 217.67
  L 19.42 212.05
  A 0.65 0.65 0.0 0 0 19.19 211.36
  L 14.58 207.76
  A 0.65 0.65 0.0 0 1 14.96 206.60
  L 20.80 206.40
  A 0.65 0.65 0.0 0 0 21.39 205.97
  L 23.39 200.47
  A 0.65 0.65 0.0 0 1 24.61 200.47
  L 26.61 205.97
  A 0.65 0.65 0.0 0 0 27.20 206.40
  Z"
/>
<path fill="#f5f5f5" d="
  M 74.84 206.44
  L 80.50 206.55
  A 0.74 0.74 0.0 0 1 80.93 207.88
  L 76.41 211.30
  A 0.74 0.74 0.0 0 0 76.15 212.10
  L 77.80 217.52
  A 0.74 0.74 0.0 0 1 76.67 218.34
  L 72.02 215.11
  A 0.74 0.74 0.0 0 0 71.18 215.11
  L 66.53 218.34
  A 0.74 0.74 0.0 0 1 65.40 217.52
  L 67.05 212.10
  A 0.74 0.74 0.0 0 0 66.79 211.30
  L 62.27 207.88
  A 0.74 0.74 0.0 0 1 62.70 206.55
  L 68.36 206.44
  A 0.74 0.74 0.0 0 0 69.05 205.95
  L 70.90 200.60
  A 0.74 0.74 0.0 0 1 72.30 200.60
  L 74.15 205.95
  A 0.74 0.74 0.0 0 0 74.84 206.44
  Z"
/>
<path fill="#f5f5f5" d="
  M 122.41 206.48
  L 128.09 206.53
  A 0.76 0.76 0.0 0 1 128.53 207.91
  L 123.97 211.29
  A 0.76 0.76 0.0 0 0 123.70 212.12
  L 125.40 217.54
  A 0.76 0.76 0.0 0 1 124.24 218.39
  L 119.61 215.09
  A 0.76 0.76 0.0 0 0 118.73 215.09
  L 114.10 218.39
  A 0.76 0.76 0.0 0 1 112.94 217.54
  L 114.64 212.12
  A 0.76 0.76 0.0 0 0 114.37 211.29
  L 109.81 207.91
  A 0.76 0.76 0.0 0 1 110.25 206.53
  L 115.93 206.48
  A 0.76 0.76 0.0 0 0 116.64 205.96
  L 118.45 200.58
  A 0.76 0.76 0.0 0 1 119.89 200.58
  L 121.70 205.96
  A 0.76 0.76 0.0 0 0 122.41 206.48
  Z"
/>
<path fill="#f5f5f5" d="
  M 170.05 206.49
  L 175.59 206.49
  A 0.83 0.83 0.0 0 1 176.08 207.99
  L 171.60 211.25
  A 0.83 0.83 0.0 0 0 171.30 212.18
  L 173.01 217.44
  A 0.83 0.83 0.0 0 1 171.73 218.37
  L 167.25 215.12
  A 0.83 0.83 0.0 0 0 166.27 215.12
  L 161.79 218.37
  A 0.83 0.83 0.0 0 1 160.51 217.44
  L 162.22 212.18
  A 0.83 0.83 0.0 0 0 161.92 211.25
  L 157.44 207.99
  A 0.83 0.83 0.0 0 1 157.93 206.49
  L 163.47 206.49
  A 0.83 0.83 0.0 0 0 164.25 205.91
  L 165.97 200.65
  A 0.83 0.83 0.0 0 1 167.55 200.65
  L 169.27 205.91
  A 0.83 0.83 0.0 0 0 170.05 206.49
  Z"
/>
<path fill="#f5f5f5" d="
  M 217.57 206.36
  L 223.44 206.56
  A 0.66 0.66 0.0 0 1 223.82 207.74
  L 219.19 211.36
  A 0.66 0.66 0.0 0 0 218.96 212.06
  L 220.58 217.71
  A 0.66 0.66 0.0 0 1 219.58 218.43
  L 214.71 215.15
  A 0.66 0.66 0.0 0 0 213.97 215.15
  L 209.10 218.43
  A 0.66 0.66 0.0 0 1 208.10 217.71
  L 209.72 212.06
  A 0.66 0.66 0.0 0 0 209.49 211.36
  L 204.86 207.74
  A 0.66 0.66 0.0 0 1 205.24 206.56
  L 211.11 206.36
  A 0.66 0.66 0.0 0 0 211.71 205.92
  L 213.72 200.41
  A 0.66 0.66 0.0 0 1 214.96 200.41
  L 216.97 205.92
  A 0.66 0.66 0.0 0 0 217.57 206.36
  Z"
/>
<path fill="#f5f5f5" d="
  M 51.03 221.44
  L 56.72 221.60
  A 0.72 0.72 0.0 0 1 57.14 222.89
  L 52.63 226.36
  A 0.72 0.72 0.0 0 0 52.38 227.13
  L 53.98 232.58
  A 0.72 0.72 0.0 0 1 52.89 233.38
  L 48.20 230.17
  A 0.72 0.72 0.0 0 0 47.38 230.17
  L 42.69 233.38
  A 0.72 0.72 0.0 0 1 41.60 232.58
  L 43.20 227.13
  A 0.72 0.72 0.0 0 0 42.95 226.36
  L 38.44 222.89
  A 0.72 0.72 0.0 0 1 38.86 221.60
  L 44.55 221.44
  A 0.72 0.72 0.0 0 0 45.20 220.96
  L 47.11 215.60
  A 0.72 0.72 0.0 0 1 48.47 215.60
  L 50.38 220.96
  A 0.72 0.72 0.0 0 0 51.03 221.44
  Z"
/>
<path fill="#f5f5f5" d="
  M 98.65 221.42
  L 104.28 221.60
  A 0.73 0.73 0.0 0 1 104.70 222.91
  L 100.26 226.36
  A 0.73 0.73 0.0 0 0 100.01 227.14
  L 101.57 232.55
  A 0.73 0.73 0.0 0 1 100.46 233.36
  L 95.80 230.20
  A 0.73 0.73 0.0 0 0 94.98 230.20
  L 90.32 233.36
  A 0.73 0.73 0.0 0 1 89.21 232.55
  L 90.77 227.14
  A 0.73 0.73 0.0 0 0 90.52 226.36
  L 86.08 222.91
  A 0.73 0.73 0.0 0 1 86.50 221.60
  L 92.13 221.42
  A 0.73 0.73 0.0 0 0 92.79 220.93
  L 94.70 215.64
  A 0.73 0.73 0.0 0 1 96.08 215.64
  L 97.99 220.93
  A 0.73 0.73 0.0 0 0 98.65 221.42
  Z"
/>
<path fill="#f5f5f5" d="
  M 146.21 221.44
  L 151.92 221.59
  A 0.72 0.72 0.0 0 1 152.34 222.88
  L 147.80 226.35
  A 0.72 0.72 0.0 0 0 147.55 227.13
  L 149.18 232.60
  A 0.72 0.72 0.0 0 1 148.08 233.40
  L 143.38 230.16
  A 0.72 0.72 0.0 0 0 142.56 230.16
  L 137.86 233.40
  A 0.72 0.72 0.0 0 1 136.76 232.60
  L 138.39 227.13
  A 0.72 0.72 0.0 0 0 138.14 226.35
  L 133.60 222.88
  A 0.72 0.72 0.0 0 1 134.02 221.59
  L 139.73 221.44
  A 0.72 0.72 0.0 0 0 140.39 220.96
  L 142.29 215.58
  A 0.72 0.72 0.0 0 1 143.65 215.58
  L 145.55 220.96
  A 0.72 0.72 0.0 0 0 146.21 221.44
  Z"
/>
<path fill="#f5f5f5" d="
  M 193.80 221.44
  L 199.47 221.60
  A 0.72 0.72 0.0 0 1 199.89 222.89
  L 195.40 226.36
  A 0.72 0.72 0.0 0 0 195.15 227.13
  L 196.75 232.57
  A 0.72 0.72 0.0 0 1 195.65 233.37
  L 190.97 230.17
  A 0.72 0.72 0.0 0 0 190.15 230.17
  L 185.47 233.37
  A 0.72 0.72 0.0 0 1 184.37 232.57
  L 185.97 227.13
  A 0.72 0.72 0.0 0 0 185.72 226.36
  L 181.23 222.89
  A 0.72 0.72 0.0 0 1 181.65 221.60
  L 187.32 221.44
  A 0.72 0.72 0.0 0 0 187.97 220.96
  L 189.88 215.62
  A 0.72 0.72 0.0 0 1 191.24 215.62
  L 193.15 220.96
  A 0.72 0.72 0.0 0 0 193.80 221.44
  Z"
/>
<path fill="#f5f5f5" d="
  M 512.00 217.06
  L 512.00 243.06
  L 238.47 243.05
  Q 237.86 230.35 238.54 217.25
  L 512.00 217.06
  Z"
/>
<path fill="#f5f5f5" d="
  M 122.44 237.07
  L 128.11 237.16
  A 0.76 0.76 0.0 0 1 128.55 238.53
  L 124.02 241.94
  A 0.76 0.76 0.0 0 0 123.75 242.77
  L 125.41 248.19
  A 0.76 0.76 0.0 0 1 124.25 249.04
  L 119.61 245.78
  A 0.76 0.76 0.0 0 0 118.73 245.78
  L 114.09 249.04
  A 0.76 0.76 0.0 0 1 112.93 248.19
  L 114.59 242.77
  A 0.76 0.76 0.0 0 0 114.32 241.94
  L 109.79 238.53
  A 0.76 0.76 0.0 0 1 110.23 237.16
  L 115.90 237.07
  A 0.76 0.76 0.0 0 0 116.61 236.55
  L 118.45 231.19
  A 0.76 0.76 0.0 0 1 119.89 231.19
  L 121.73 236.55
  A 0.76 0.76 0.0 0 0 122.44 237.07
  Z"
/>
<path fill="#f5f5f5" d="
  M 170.03 237.05
  L 175.71 237.13
  A 0.76 0.76 0.0 0 1 176.16 238.50
  L 171.61 241.92
  A 0.76 0.76 0.0 0 0 171.34 242.75
  L 173.01 248.18
  A 0.76 0.76 0.0 0 1 171.85 249.03
  L 167.20 245.76
  A 0.76 0.76 0.0 0 0 166.32 245.76
  L 161.67 249.03
  A 0.76 0.76 0.0 0 1 160.51 248.18
  L 162.18 242.75
  A 0.76 0.76 0.0 0 0 161.91 241.92
  L 157.36 238.50
  A 0.76 0.76 0.0 0 1 157.81 237.13
  L 163.49 237.05
  A 0.76 0.76 0.0 0 0 164.20 236.53
  L 166.04 231.15
  A 0.76 0.76 0.0 0 1 167.48 231.15
  L 169.32 236.53
  A 0.76 0.76 0.0 0 0 170.03 237.05
  Z"
/>
<path fill="#f5f5f5" d="
  M 27.26 237.10
  L 32.93 237.18
  A 0.76 0.76 0.0 0 1 33.38 238.55
  L 28.83 241.95
  A 0.76 0.76 0.0 0 0 28.56 242.78
  L 30.24 248.21
  A 0.76 0.76 0.0 0 1 29.08 249.05
  L 24.44 245.78
  A 0.76 0.76 0.0 0 0 23.56 245.78
  L 18.92 249.05
  A 0.76 0.76 0.0 0 1 17.76 248.21
  L 19.44 242.78
  A 0.76 0.76 0.0 0 0 19.17 241.95
  L 14.62 238.55
  A 0.76 0.76 0.0 0 1 15.07 237.18
  L 20.74 237.10
  A 0.76 0.76 0.0 0 0 21.45 236.59
  L 23.28 231.21
  A 0.76 0.76 0.0 0 1 24.72 231.21
  L 26.55 236.59
  A 0.76 0.76 0.0 0 0 27.26 237.10
  Z"
/>
<path fill="#f5f5f5" d="
  M 74.87 237.00
  L 80.46 237.16
  A 0.76 0.76 0.0 0 1 80.90 238.52
  L 76.47 241.92
  A 0.76 0.76 0.0 0 0 76.21 242.74
  L 77.79 248.10
  A 0.76 0.76 0.0 0 1 76.63 248.94
  L 72.02 245.78
  A 0.76 0.76 0.0 0 0 71.16 245.78
  L 66.55 248.94
  A 0.76 0.76 0.0 0 1 65.39 248.10
  L 66.97 242.74
  A 0.76 0.76 0.0 0 0 66.71 241.92
  L 62.28 238.52
  A 0.76 0.76 0.0 0 1 62.72 237.16
  L 68.31 237.00
  A 0.76 0.76 0.0 0 0 69.00 236.50
  L 70.87 231.23
  A 0.76 0.76 0.0 0 1 72.31 231.23
  L 74.18 236.50
  A 0.76 0.76 0.0 0 0 74.87 237.00
  Z"
/>
<path fill="#f5f5f5" d="
  M 217.64 237.08
  L 223.30 237.12
  A 0.79 0.79 0.0 0 1 223.76 238.55
  L 219.21 241.92
  A 0.79 0.79 0.0 0 0 218.92 242.79
  L 220.63 248.19
  A 0.79 0.79 0.0 0 1 219.42 249.07
  L 214.81 245.78
  A 0.79 0.79 0.0 0 0 213.89 245.78
  L 209.28 249.07
  A 0.79 0.79 0.0 0 1 208.07 248.19
  L 209.78 242.79
  A 0.79 0.79 0.0 0 0 209.49 241.92
  L 204.94 238.55
  A 0.79 0.79 0.0 0 1 205.40 237.12
  L 211.06 237.08
  A 0.79 0.79 0.0 0 0 211.81 236.54
  L 213.60 231.17
  A 0.79 0.79 0.0 0 1 215.10 231.17
  L 216.89 236.54
  A 0.79 0.79 0.0 0 0 217.64 237.08
  Z"
/>
<path fill="#ff4b55" d="
  M 512.00 243.06
  L 512.00 268.81
  L 231.75 268.90
  Q 235.36 267.33 237.07 264.36
  C 239.44 260.23 238.25 248.29 238.47 243.05
  L 512.00 243.06
  Z"
/>
<path fill="#f5f5f5" d="
  M 0.03 263.17
  Q 1.91 266.53 5.09 268.02
  Q 7.18 268.99 11.70 268.99
  Q 119.05 269.01 226.41 269.00
  C 227.87 269.00 229.94 268.68 231.75 268.90
  L 512.00 268.81
  L 512.00 294.81
  L 0.00 294.69
  L 0.03 263.17
  Z"
/>
<path fill="#ff4b55" d="
  M 0.00 294.69
  L 512.00 294.81
  L 512.00 320.56
  L 0.00 320.44
  L 0.00 294.69
  Z"
/>
<path fill="#f5f5f5" d="
  M 0.00 320.44
  L 512.00 320.56
  L 512.00 346.27
  L 0.00 346.19
  L 0.00 320.44
  Z"
/>
<path fill="#ff4b55" d="
  M 0.00 346.19
  L 512.00 346.27
  L 512.00 372.06
  L 0.00 372.16
  L 0.00 346.19
  Z"
/>
<path fill="#f5f5f5" d="
  M 0.00 372.16
  L 512.00 372.06
  L 512.00 387.06
  Q 511.45 393.22 509.72 398.09
  L 2.08 398.08
  Q 0.57 392.76 0.00 386.69
  L 0.00 372.16
  Z"
/>
<path fill="#ff4b55" d="
  M 509.72 398.09
  Q 501.72 418.21 482.90 422.72
  Q 477.58 424.00 462.99 424.00
  Q 255.75 424.00 48.50 424.00
  Q 34.25 424.00 28.63 422.56
  Q 10.09 417.79 2.08 398.08
  L 509.72 398.09
  Z"
/>
</svg>
