<svg xmlns="http://www.w3.org/2000/svg" viewBox="0 0 24 16" id="pt_BR">
    <path d="M24 12c0 2.21-1.265 4-3.75 4H3.75C1.265 16 0 14.21 0 12V4c0-2.21 1.265-4 3.75-4h16.5C22.735 0 24 1.79 24 4v8Z" fill="#128807"></path>
    <path d="m21.427 8.287-9.37 6.386-9.372-6.386 9.371-6.385 9.371 6.385Z" fill="#F9CB38"></path>
    <path fill-rule="evenodd" clip-rule="evenodd" d="M15.754 9.4c-.427 1.405-1.762 2.476-3.274 2.621-2.02.196-3.788-1.049-4.218-2.973a3.475 3.475 0 0 1 .048-1.711c.058-.062.14-.077.22-.088a9.757 9.757 0 0 1 1.785-.075 8.945 8.945 0 0 1 3.691.986c.433.223.846.48 1.236.767.132.1.266.197.393.303.057.047.101.098.118.17" fill="#002776"></path>
    <path fill-rule="evenodd" clip-rule="evenodd" d="M8.521 6.768c.485-1.05 1.301-1.748 2.43-2.076 2.272-.66 4.603.796 4.941 3.067.053.35.055.703 0 1.054-.058.021-.1-.008-.14-.04a9.503 9.503 0 0 0-1.314-.873 8.745 8.745 0 0 0-1.107-.512c-.067-.026-.152-.04-.175-.127a.488.488 0 0 1 .092-.113c.013-.013.032-.026.014-.048-.006-.007-.018-.007-.029-.006-.028.003-.024.022-.023.042.002.065-.037.107-.088.14a.374.374 0 0 1-.252-.044c-.212-.108-.446-.145-.67-.205-.349-.092-.707-.144-1.065-.198a9.98 9.98 0 0 0-.861-.095 5.97 5.97 0 0 0-.795.002c-.288.02-.577.04-.864.073a.098.098 0 0 1-.094-.041Z" fill="#002776"></path>
    <path fill-rule="evenodd" clip-rule="evenodd" d="M13.159 7.238c-.002.045.04.039.064.048a9.635 9.635 0 0 1 2.666 1.527c-.023.2-.068.396-.136.586-.469-.377-.95-.737-1.48-1.03A9.015 9.015 0 0 0 8.872 7.27c-.188.019-.375.043-.563.066.049-.197.11-.39.211-.57a9.805 9.805 0 0 1 4.136.328c.168.05.328.132.508.147l-.005-.004" fill="#FEFEFE"></path>
    <path fill-rule="evenodd" clip-rule="evenodd" d="M14.906 9.582c-.113-.012.01.122-.104.12-.1-.002-.105-.08-.153-.122.037-.038.104-.045.125-.104.014.062.074.075.132.106Z" fill="#D9DFEA"></path>
    <path fill-rule="evenodd" clip-rule="evenodd" d="M10.648 10.255c-.106.011-.018.123-.106.125-.09.002-.136-.062-.154-.129-.006-.019.08-.06.122-.092.005.066.076.063.138.095Z" fill="#E9ECF3"></path>
    <path fill-rule="evenodd" clip-rule="evenodd" d="M12.053 10.052c-.148.092-.029-.116-.116-.096.029-.044.108-.033.113-.1.038.037.07.081.13.09-.086-.012.007.171-.127.106Z" fill="#EDEFF5"></path>
    <path fill-rule="evenodd" clip-rule="evenodd" d="M9.007 7.602c-.035.065-.061.138-.168.094-.055-.022.003-.095-.062-.102l.121-.103.027.05c.01.043.098-.014.082.06Z" fill="#F0F2F6"></path>
    <path fill-rule="evenodd" clip-rule="evenodd" d="M9.348 9.182c-.056.017-.016.16-.136.097-.012-.006-.065.022-.055.006.032-.06-.039-.089-.028-.136.066.027.062-.089.129-.058.005.004.005.018.008.028.007.045.098-.011.082.063Z" fill="#ECEFF4"></path>
    <path fill-rule="evenodd" clip-rule="evenodd" d="M8.758 9.603c-.115.039-.03-.096-.095-.095.03-.025.065-.072.096-.07.036.002.07.046.104.07-.05.017.002.15-.105.095Z" fill="#D9DFEA"></path>
    <path fill-rule="evenodd" clip-rule="evenodd" d="M13.207 10.89c-.121.054-.003-.105-.084-.085-.008-.06.093-.024.08-.088l.11.086c-.044.02 0 .143-.106.087Z" fill="#D8DEEA"></path>
    <path fill-rule="evenodd" clip-rule="evenodd" d="M13.988 10.802c-.101.04-.04-.09-.094-.104l.111-.07c.003.053.08.033.088.081-.057.003.002.122-.105.093ZM14.689 10.313c-.115.056-.03-.092-.096-.086.013-.047.089-.03.093-.084l.108.078c-.066-.001.015.155-.105.092Z" fill="#DCE1EC"></path>
    <path fill-rule="evenodd" clip-rule="evenodd" d="M10.044 9.634c-.12.066-.042-.082-.098-.085.006-.054.09-.03.095-.088.01.053.084.038.1.086-.072-.01.03.156-.097.087Z" fill="#D4DAE7"></path>
    <path fill-rule="evenodd" clip-rule="evenodd" d="M10.53 8.53c-.068-.005.02-.109-.064-.102.014-.059.078-.047.114-.077.018.037.069.045.071.098.006.096-.082.047-.121.08Z" fill="#F2F4F7"></path>
    <path fill-rule="evenodd" clip-rule="evenodd" d="M12.506 9.297c-.104.058-.049-.071-.097-.085l.097-.08c.002.054.109.042.079.083-.018.025.04.138-.079.082Z" fill="#E6E9F1"></path>
    <path fill-rule="evenodd" clip-rule="evenodd" d="M12.041 8.973c-.118.012.004-.093-.073-.09.03-.027.059-.074.093-.077.029-.003.063.043.095.069-.042.039-.036.14-.115.098Z" fill="#EAEDF3"></path>
    <path fill-rule="evenodd" clip-rule="evenodd" d="M14.918 9.822c.025.062.073.07.11.093-.038.042-.053.106-.133.106-.081 0-.026-.06-.044-.088-.046-.07.122-.01.067-.111Z" fill="#E4E8F0"></path>
    <path fill-rule="evenodd" clip-rule="evenodd" d="M14.07 11.089c-.03.04-.01.08-.085.082-.087.001-.06-.06-.063-.08-.007-.03.042-.06.07-.054.025.004.073.018.077.052Z" fill="#CED5E4"></path>
    <path fill-rule="evenodd" clip-rule="evenodd" d="M10.018 9.924c-.062.007-.01.085-.09.083-.07-.003-.06-.05-.068-.078-.012-.04.048-.038.061-.068l.097.063Z" fill="#DAE0EB"></path>
    <path fill-rule="evenodd" clip-rule="evenodd" d="M13.901 10.339c.027-.02.053-.037.082-.055.002.04.091.017.061.068-.012.021.018.078-.06.073-.069-.005-.052-.052-.083-.086Z" fill="#D8DEE9"></path>
    <path fill-rule="evenodd" clip-rule="evenodd" d="M13.616 10.464c-.013.071-.055.083-.101.091-.079.013-.02-.044-.033-.066-.033-.055.05-.044.06-.08.022.028.072.027.074.055Z" fill="#CBD2E3"></path>
    <path fill-rule="evenodd" clip-rule="evenodd" d="M13.178 8.105c-.027.012.008.073-.048.056-.043-.014-.095-.034-.092-.085.002-.02.053-.036.081-.053.005.037.086.025.059.082Z" fill="#D1D8E6"></path>
    <path fill-rule="evenodd" clip-rule="evenodd" d="M15.3 9.7c-.07.027-.039-.03-.051-.045-.048-.063.046-.054.05-.09.03.018.086.039.084.055a.086.086 0 0 1-.027.055.091.091 0 0 1-.056.025Z" fill="#DADFEA"></path>
    <path fill-rule="evenodd" clip-rule="evenodd" d="M11.674 9.145c0 .043.088.026.058.079-.012.021.013.079-.047.067-.046-.01-.093-.036-.095-.08 0-.02.054-.043.084-.066Z" fill="#CAD2E2"></path>
    <path fill-rule="evenodd" clip-rule="evenodd" d="M12.874 10.461c-.035-.016-.036-.06-.034-.08.004-.029.042-.066.075-.051.02.01.078.004.064.055-.013.048-.063.055-.105.076Z" fill="#D0D7E5"></path>
    <path fill-rule="evenodd" clip-rule="evenodd" d="M14.325 10.397c.002 0 .028-.036.057-.036.022-.001.043.042.066.066-.03.008-.004.063-.065.063-.055-.002-.055-.026-.058-.093Z" fill="#EFF2F6"></path>
    <path fill-rule="evenodd" clip-rule="evenodd" d="M11.912 9.476c-.01.04-.01.064-.046.063-.037 0-.055-.014-.054-.05 0-.029.02-.049.042-.047.025.002.062.009.058.034Z" fill="#CCD4E3"></path>
    <path fill-rule="evenodd" clip-rule="evenodd" d="M9.613 8.91c.018.02.038.034.046.054a.032.032 0 0 1-.027.043c-.026.002-.053.001-.062-.03-.007-.03.02-.042.043-.066Z" fill="#E0E5EE"></path>
    <path fill-rule="evenodd" clip-rule="evenodd" d="M9.348 9.182c-.01-.042-.077-.015-.082-.063.015.036.126-.045.082.063Z" fill="#7085B1"></path>
    <path fill-rule="evenodd" clip-rule="evenodd" d="M9.008 7.602c-.009-.045-.08-.01-.083-.06.02.03.12-.043.083.06Z" fill="#5C75A7"></path>
    <path fill-rule="evenodd" clip-rule="evenodd" d="M13.166 7.242c.007-.027.03-.073.021-.08-.122-.106.041-.124.066-.146.044-.041.037.135.155.023a.322.322 0 0 1-.246.2l.004.003Z" fill="#E7EAF2"></path>
    <path fill-rule="evenodd" clip-rule="evenodd" d="M9.552 7.13c-.12-.012-.013-.163-.04-.25-.032-.113.053-.111.136-.112.128 0 .2.052.2.183 0 .129-.062.18-.296.178Z" fill="#15A24A"></path>
    <path fill-rule="evenodd" clip-rule="evenodd" d="M14.108 7.856c-.026.077-.123.126-.14.222-.002.013-.039.01-.046-.027-.03-.174-.032-.173-.164-.08-.01.008-.029.014-.039.011-.02-.008-.027-.027-.016-.049.044-.082.085-.168.135-.248.033-.053.073-.009.105.007.07.033.158.053.165.164Z" fill="#13A248"></path>
    <path fill-rule="evenodd" clip-rule="evenodd" d="M14.444 8.139c-.07.026-.103-.024-.147-.042-.03-.013-.058-.024-.079.008-.022.034 0 .054.03.07.024.01.049.02.066.037.03.03.126.023.087.088-.03.053-.081-.008-.115-.028-.058-.034-.173-.053-.16-.113a.504.504 0 0 1 .15-.267c.06-.053.127.047.195.072.03.01.08.02.07.065-.008.046-.043.019-.07.013-.063-.014-.125-.118-.175-.046-.03.043.094.06.133.108.006.007.007.016.014.035ZM15.252 8.653c.01.085-.025.143-.117.128-.095-.015-.167-.072-.184-.173-.001-.01.011-.03.022-.033a.045.045 0 0 1 .037.004.043.043 0 0 1 .02.03c.012.07.05.1.125.102.014-.114-.198-.166-.076-.284.061-.06.136-.01.19.037.048.043.108.09.019.153-.013-.007-.03-.017-.04-.01-.019.012 0 .03.004.046Z" fill="#11A147"></path>
    <path fill-rule="evenodd" clip-rule="evenodd" d="M12.662 7.57c-.045-.025-.043-.048-.036-.073.014-.054-.014-.083-.065-.098-.051-.016-.09-.014-.105.048-.005.028-.02.047-.05.037-.037-.013-.019-.041-.012-.062.014-.048.027-.096.05-.141.02-.046.006-.129.08-.124.078.006.163.024.222.087.027.028.038.075.016.096-.063.063-.058.153-.1.23Z" fill="#0FA046"></path>
    <path fill-rule="evenodd" clip-rule="evenodd" d="M10.347 7.107c-.12.044-.216.018-.31.02-.042.001-.046-.03-.046-.06.003-.035.003-.07.003-.105.005-.191.075-.24.269-.187.022.006.042.01.044.033 0 .033-.024.039-.055.038-.004 0-.009-.002-.014-.001-.058.014-.162-.05-.164.034-.002.065.111.02.17.041.008.003.017.01.03.02-.037.064-.098.028-.146.036-.028.004-.065-.008-.069.036-.005.053.033.05.07.054.062.007.13-.016.218.04Z" fill="#0B9F43"></path>
    <path fill-rule="evenodd" clip-rule="evenodd" d="M9.352 7.135c-.066-.014-.057-.05-.068-.076-.02-.047-.058-.047-.1-.044-.049.005-.075.023-.07.075.002.025.013.066-.036.06-.042-.005-.03-.044-.032-.071-.004-.044-.009-.09-.004-.133.006-.049-.042-.123.03-.14.075-.02.161-.033.239.003.034.016.06.054.048.085-.029.078-.006.157-.007.24Z" fill="#079D3F"></path>
    <path fill-rule="evenodd" clip-rule="evenodd" d="M8.56 7.01c.012-.098.057-.178.168-.174.107.003.164.075.164.179 0 .103-.05.174-.162.173-.115 0-.154-.081-.17-.177Z" fill="#15A24A"></path>
    <path fill-rule="evenodd" clip-rule="evenodd" d="M15.699 8.858c-.01.098-.06.172-.175.182-.107.008-.163-.05-.171-.148-.01-.097.09-.19.19-.19.089 0 .154.063.156.156Z" fill="#11A147"></path>
    <path fill-rule="evenodd" clip-rule="evenodd" d="M13.594 7.72c.085.066-.018.11-.022.165-.07-.031-.159-.018-.216-.078-.06-.064-.05-.137-.01-.207.044-.075.112-.107.195-.079.076.027.132.076.095.17-.058.01-.105-.065-.187-.015.054.024.12-.01.145.044Z" fill="#0C9F43"></path>
    <path fill-rule="evenodd" clip-rule="evenodd" d="M11.554 6.97c-.05.057-.086.035-.12.036-.033 0-.068-.026-.11.007.037.058.126.02.16.078-.004.009-.006.02-.013.026-.05.038-.128-.054-.16.022-.027.065.047.042.079.053.035.014.08.009.124.056-.101.043-.222.023-.263-.024-.066-.075-.02-.207.03-.273.059-.079.167-.002.273.02Z" fill="#19A44D"></path>
    <path fill-rule="evenodd" clip-rule="evenodd" d="M12.193 7.287c-.085-.008-.182-.067-.206.07 0 .004-.03.01-.04.004-.01-.005-.015-.026-.013-.037.022-.087.033-.179.072-.256.046-.088.124-.014.188-.005.076.01.119.054.11.133-.007.067-.06.085-.11.091Z" fill="#0D9F44"></path>
    <path fill-rule="evenodd" clip-rule="evenodd" d="M13.207 7.496c-.008.11-.063.185-.176.188-.101.004-.158-.065-.155-.163.003-.105.056-.181.173-.185.107-.003.15.067.159.16Z" fill="#0FA046"></path>
    <path fill-rule="evenodd" clip-rule="evenodd" d="M10.68 7.1c-.013.027-.023.063-.059.055-.061-.014-.034-.072-.049-.11-.045-.043-.033.016-.048.027-.005.027.008.068-.03.074-.046.005-.035-.038-.034-.063.004-.053.005-.109.02-.16.013-.043-.035-.124.055-.124.079 0 .062.077.072.124.01.054.016.077.061.024.047-.012.057.02.068.053.006.046-.016.079-.056.1Z" fill="#0EA044"></path>
    <path fill-rule="evenodd" clip-rule="evenodd" d="M14.674 8.436c.027 0 .056.036.083.005.02-.022.002-.045-.016-.064-.014-.014-.028-.027-.041-.042-.038-.045-.092-.088-.039-.153.048-.06.104-.045.16-.007.01.019.006.037-.004.054-.041.062.035.1.033.153.012.05.02.1-.037.129-.07.036-.125.003-.177-.04-.005-.03.006-.044.038-.035Z" fill="#10A146"></path>
    <path fill-rule="evenodd" clip-rule="evenodd" d="M13.594 7.72c-.03.02-.087-.044-.085.004.003.085-.04.077-.081.052-.056-.033-.059-.09-.024-.142.034-.051.082-.08.14-.04.035.026.061.064.092.096l-.042.03Z" fill="#ECF7F0"></path>
    <path fill-rule="evenodd" clip-rule="evenodd" d="M10.704 7.015a.833.833 0 0 0-.036-.066c.014-.033.026-.065.041-.097.014-.03.04-.045.074-.035.04.013.036.042.034.073l-.023.267c-.055.034-.069.003-.078-.043-.006-.033.011-.069-.012-.1Z" fill="#17A34C"></path>
    <path fill-rule="evenodd" clip-rule="evenodd" d="M14.851 8.382c-.033-.034-.07-.065-.1-.1-.037-.043-.023-.069.032-.076.079.017.127.054.104.142a.713.713 0 0 1-.036.034Z" fill="#D7EFE0"></path>
    <path fill-rule="evenodd" clip-rule="evenodd" d="M14.887 8.348c-.037-.045-.046-.11-.104-.142l.039-.031c.063.043.178.068.065.173Z" fill="#2BAB5B"></path>
    <path fill-rule="evenodd" clip-rule="evenodd" d="M15.252 8.653c-.005-.003-.012-.005-.014-.009-.03-.053-.13-.102-.095-.15.042-.057.086.011.11.06l.035.063a1.11 1.11 0 0 0-.036.036Z" fill="#E6F5EC"></path>
    <path fill-rule="evenodd" clip-rule="evenodd" d="m14.674 8.436-.038.035c-.015-.011-.037-.019-.047-.035-.02-.035-.074-.082-.01-.11.052-.024.052.042.07.074.007.013.016.024.025.036Z" fill="#29AA59"></path>
    <path fill-rule="evenodd" clip-rule="evenodd" d="M10.704 7.015c.055.02.026.065.027.098.003.045.02.06.063.044-.091.086-.08-.028-.115-.054.01-.03.017-.06.025-.088Z" fill="#DDF1E4"></path>
    <path fill-rule="evenodd" clip-rule="evenodd" d="M10.523 7.073v-.117c.051.016.053.05.047.09-.015.009-.032.017-.047.027Z" fill="#6FC690"></path>
    <path fill-rule="evenodd" clip-rule="evenodd" d="M9.588 6.953c.005-.053-.021-.122.072-.117.069.004.118.03.122.107.004.081-.045.114-.123.12-.099.007-.059-.068-.071-.11Z" fill="#F5FBF7"></path>
    <path fill-rule="evenodd" clip-rule="evenodd" d="M13.912 7.753c.04.02.1.024.112.08.006.03-.02.049-.046.04-.05-.014-.115-.015-.122-.082-.002-.02.02-.045.056-.038Z" fill="#EFF8F3"></path>
    <path fill-rule="evenodd" clip-rule="evenodd" d="M12.696 7.305c-.01.038-.037.051-.069.04-.042-.015-.11.002-.111-.07-.002-.038.025-.05.06-.038.046.015.103.013.12.068Z" fill="#DEF2E5"></path>
    <path fill-rule="evenodd" clip-rule="evenodd" d="M9.193 6.858c.037.004.095-.015.091.046-.004.053-.059.045-.099.045-.032.002-.077.018-.08-.038-.003-.066.05-.046.088-.053Z" fill="#F3FAF5"></path>
    <path fill-rule="evenodd" clip-rule="evenodd" d="M8.719 6.908c.068.005.101.044.104.106.004.055-.024.102-.083.107-.067.007-.098-.043-.101-.104-.004-.056.018-.097.08-.109Z" fill="#F3FAF6"></path>
    <path fill-rule="evenodd" clip-rule="evenodd" d="M15.624 8.87c-.01.061-.047.104-.12.104-.057 0-.08-.042-.073-.092.006-.067.047-.111.118-.11.056.001.078.04.075.099Z" fill="#F9FCFA"></path>
    <path fill-rule="evenodd" clip-rule="evenodd" d="M12.105 7.108c.038.023.114 0 .125.072.003.028-.028.042-.053.037-.05-.01-.118.006-.124-.07-.001-.024.01-.05.052-.039Z" fill="#E7F5EC"></path>
    <path fill-rule="evenodd" clip-rule="evenodd" d="M13.133 7.504c-.008.063-.04.107-.105.107-.065.001-.088-.043-.085-.1.006-.063.043-.106.106-.108.063-.002.084.046.084.101Z" fill="#F5FBF7"></path>
</svg>